<svg xmlns="http://www.w3.org/2000/svg" viewBox="0 0 341.09 49.37" style="fill: #49DBD8">
  <path d="M10.63,16.35,9,11.67H3.1L1.68,16.35H0L5.18.34h2.3l5.21,16ZM6.14,2.47,3.67,10.15H8.59ZM23.4,16.35V.34h1.85v16Zm16.42-5.78c0,3.55-2.28,6.1-5.47,6.1s-5.16-2.5-5.16-6.26S31.37,4.2,34.54,4.2,39.82,6.7,39.82,10.56ZM32,7a6,6,0,0,0-.82,3.36c0,3,1.2,4.78,3.29,4.78s3.31-1.75,3.31-4.68A5.77,5.77,0,0,0,37,7a3.17,3.17,0,0,0-2.5-1.27A3.07,3.07,0,0,0,32,7Zm19.37,9.34V8.74c0-1.92-.86-3-2.45-3-1.92,0-3.31,1.73-3.31,4.06v6.5H43.78V4.51h1.7V6.7c1.22-1.87,2.16-2.5,3.79-2.5a3.74,3.74,0,0,1,3.41,2.06,7.32,7.32,0,0,1,.43,3.24v6.84Zm16-12.22c-1.56,0-2.09.29-2.26,1.34a4.36,4.36,0,0,1,1.13,2.86c0,2.3-1.9,3.94-4.54,3.94a4.14,4.14,0,0,1-.82-.07,7,7,0,0,0-.77-.12A1.27,1.27,0,0,0,58.9,13.2a.91.91,0,0,0,.6.86c.41.19.89.24,3.07.31,2.45.07,3.24.19,4,.7a2.69,2.69,0,0,1,1.3,2.35c0,2.23-2,3.38-6,3.38-3.53,0-5.4-1.08-5.4-3.12a2.35,2.35,0,0,1,1.8-2.35,2.13,2.13,0,0,1-1.15-1.92c0-1,.43-1.51,1.63-2.09a3.79,3.79,0,0,1-1.54-3.14c0-2.3,1.92-4,4.51-4a5.21,5.21,0,0,1,2.42.55,2.53,2.53,0,0,1,.74-1.54c.41-.41.89-.53,2-.53a3.94,3.94,0,0,1,.48,0ZM58.27,17.5a1.35,1.35,0,0,0,.43,1,5.53,5.53,0,0,0,3.34.89A9.56,9.56,0,0,0,64.85,19,1.55,1.55,0,0,0,66.1,17.5a1.16,1.16,0,0,0-.82-1.13c-.58-.26-.79-.29-2.86-.34-1.2,0-2.3-.1-2.86-.17C58.58,16.35,58.27,16.75,58.27,17.5Zm.86-9.24a2.47,2.47,0,0,0,2.64,2.59A2.5,2.5,0,0,0,64.42,8.3,2.58,2.58,0,0,0,61.8,5.62,2.54,2.54,0,0,0,59.14,8.26Zm24.14,8.28a10.37,10.37,0,0,1-1.75.14c-2.23,0-3.38-1.22-3.38-3.6V6H76.06V4.51h2.09l.07-3,1.73-.14V4.51h2.66V6H79.94v7.42a1.67,1.67,0,0,0,1.92,1.85,6.83,6.83,0,0,0,1.42-.14Zm5-14.16h-2v-2h2Zm-.07,14H86.4V4.51h1.85Zm18.94,0V9a3.51,3.51,0,0,0-.38-2.16,2.26,2.26,0,0,0-1.9-1.06,3,3,0,0,0-2.11,1,3.84,3.84,0,0,0-.91,2.86v6.67H100.1V8.57a2.94,2.94,0,0,0-.55-2,2.31,2.31,0,0,0-1.78-.86c-1.63,0-2.9,1.56-2.9,3.55v7.08H93.12V4.51H94.7V6.79A4,4,0,0,1,98.35,4.2,3.35,3.35,0,0,1,101.66,7a4.07,4.07,0,0,1,3.75-2.83,3.53,3.53,0,0,1,3,1.68A5.42,5.42,0,0,1,109,9v7.34Zm16.17-3.17a5.07,5.07,0,0,1-5,3.48c-3.24,0-5.42-2.47-5.42-6.17s2.26-6.29,5.5-6.29a4.79,4.79,0,0,1,4.46,2.74,8.24,8.24,0,0,1,.7,3.65H115a5.57,5.57,0,0,0,.48,2.76,3.4,3.4,0,0,0,3,1.8,3.25,3.25,0,0,0,2.47-1.08,4.06,4.06,0,0,0,.72-1.25Zm-1.8-4a3.7,3.7,0,0,0-.67-2.35,2.81,2.81,0,0,0-2.45-1.25,3.18,3.18,0,0,0-2.54,1.22,4,4,0,0,0-.84,2.38Zm20.62,7.13a14.09,14.09,0,0,1-.22-2.14,4.17,4.17,0,0,1-4.15,2.45c-2.45,0-4.13-1.46-4.13-3.58a3.66,3.66,0,0,1,2-3.24A10.43,10.43,0,0,1,140.42,9c.43,0,.79,0,1.54,0V8.64c0-2.23-.84-3-3.1-3-1.78,0-2.86.74-3.17,2.16L134,7.46a3.06,3.06,0,0,1,.89-1.85,5.94,5.94,0,0,1,4.39-1.44c1.78,0,3,.46,3.67,1.39A5.44,5.44,0,0,1,143.74,9v5a9.68,9.68,0,0,0,.26,2.3Zm-1.78-6c-3.07,0-4.75,1-4.75,2.76,0,1.27,1,2.11,2.52,2.11A3.88,3.88,0,0,0,142,11.18c0-.22,0-.46,0-.77ZM158,4.13c-1.56,0-2.09.29-2.26,1.34a4.35,4.35,0,0,1,1.13,2.86c0,2.3-1.9,3.94-4.54,3.94a4.14,4.14,0,0,1-.82-.07,7,7,0,0,0-.77-.12,1.27,1.27,0,0,0-1.25,1.13.91.91,0,0,0,.6.86c.41.19.89.24,3.07.31,2.45.07,3.24.19,4,.7a2.69,2.69,0,0,1,1.3,2.35c0,2.23-2,3.38-6,3.38-3.53,0-5.4-1.08-5.4-3.12a2.35,2.35,0,0,1,1.8-2.35,2.13,2.13,0,0,1-1.15-1.92c0-1,.43-1.51,1.63-2.09a3.79,3.79,0,0,1-1.54-3.14c0-2.3,1.92-4,4.51-4a5.21,5.21,0,0,1,2.42.55,2.53,2.53,0,0,1,.74-1.54c.41-.41.89-.53,2-.53a3.94,3.94,0,0,1,.48,0ZM148.92,17.5a1.35,1.35,0,0,0,.43,1,5.53,5.53,0,0,0,3.34.89A9.56,9.56,0,0,0,155.5,19a1.55,1.55,0,0,0,1.25-1.46,1.16,1.16,0,0,0-.82-1.13c-.58-.26-.79-.29-2.86-.34-1.2,0-2.3-.1-2.86-.17C149.23,16.35,148.92,16.75,148.92,17.5Zm.86-9.24a2.47,2.47,0,0,0,2.64,2.59,2.5,2.5,0,0,0,2.64-2.54,2.58,2.58,0,0,0-2.62-2.69A2.54,2.54,0,0,0,149.78,8.26Zm20.9,2.3c0,3.55-2.28,6.1-5.47,6.1s-5.16-2.5-5.16-6.26,2.18-6.19,5.35-6.19S170.69,6.7,170.69,10.56ZM162.89,7a6,6,0,0,0-.82,3.36c0,3,1.2,4.78,3.29,4.78s3.31-1.75,3.31-4.68A5.77,5.77,0,0,0,167.83,7a3.17,3.17,0,0,0-2.5-1.27A3.07,3.07,0,0,0,162.89,7Zm20.86-4.63h-2v-2h2Zm-.07,14h-1.85V4.51h1.85Zm12.48,0V8.74c0-1.92-.86-3-2.45-3-1.92,0-3.31,1.73-3.31,4.06v6.5h-1.85V4.51h1.7V6.7c1.22-1.87,2.16-2.5,3.79-2.5a3.74,3.74,0,0,1,3.41,2.06,7.32,7.32,0,0,1,.43,3.24v6.84Zm21.24,0a14.09,14.09,0,0,1-.22-2.14A4.17,4.17,0,0,1,213,16.66c-2.45,0-4.13-1.46-4.13-3.58a3.66,3.66,0,0,1,2-3.24A10.43,10.43,0,0,1,215.64,9c.43,0,.79,0,1.54,0V8.64c0-2.23-.84-3-3.1-3-1.78,0-2.86.74-3.17,2.16l-1.7-.29a3.06,3.06,0,0,1,.89-1.85,5.94,5.94,0,0,1,4.39-1.44c1.78,0,3,.46,3.67,1.39A5.44,5.44,0,0,1,219,9v5a9.68,9.68,0,0,0,.26,2.3Zm-1.78-6c-3.07,0-4.75,1-4.75,2.76,0,1.27,1,2.11,2.52,2.11a3.88,3.88,0,0,0,3.82-4.06c0-.22,0-.46,0-.77ZM240.7,4.13c-1.56,0-2.09.29-2.26,1.34a4.36,4.36,0,0,1,1.13,2.86c0,2.3-1.9,3.94-4.54,3.94a4.14,4.14,0,0,1-.82-.07,7,7,0,0,0-.77-.12,1.27,1.27,0,0,0-1.25,1.13.91.91,0,0,0,.6.86c.41.19.89.24,3.07.31,2.45.07,3.24.19,4,.7a2.69,2.69,0,0,1,1.3,2.35c0,2.23-2,3.38-6,3.38-3.53,0-5.4-1.08-5.4-3.12a2.35,2.35,0,0,1,1.8-2.35,2.13,2.13,0,0,1-1.15-1.92c0-1,.43-1.51,1.63-2.09a3.79,3.79,0,0,1-1.54-3.14c0-2.3,1.92-4,4.51-4a5.21,5.21,0,0,1,2.42.55,2.53,2.53,0,0,1,.74-1.54c.41-.41.89-.53,2-.53a3.94,3.94,0,0,1,.48,0ZM231.57,17.5a1.35,1.35,0,0,0,.43,1,5.53,5.53,0,0,0,3.34.89,9.56,9.56,0,0,0,2.81-.43,1.55,1.55,0,0,0,1.25-1.46,1.16,1.16,0,0,0-.82-1.13c-.58-.26-.79-.29-2.86-.34-1.2,0-2.3-.1-2.86-.17C231.89,16.35,231.57,16.75,231.57,17.5Zm.86-9.24a2.47,2.47,0,0,0,2.64,2.59,2.5,2.5,0,0,0,2.64-2.54,2.58,2.58,0,0,0-2.62-2.69A2.54,2.54,0,0,0,232.44,8.26Zm19.06,8.09a14.09,14.09,0,0,1-.22-2.14,4.17,4.17,0,0,1-4.15,2.45c-2.45,0-4.13-1.46-4.13-3.58a3.66,3.66,0,0,1,2-3.24A10.43,10.43,0,0,1,249.74,9c.43,0,.79,0,1.54,0V8.64c0-2.23-.84-3-3.1-3-1.78,0-2.86.74-3.17,2.16l-1.7-.29a3.06,3.06,0,0,1,.89-1.85,5.94,5.94,0,0,1,4.39-1.44c1.78,0,3,.46,3.67,1.39A5.44,5.44,0,0,1,253.06,9v5a9.68,9.68,0,0,0,.26,2.3Zm-1.78-6c-3.07,0-4.75,1-4.75,2.76,0,1.27,1,2.11,2.52,2.11a3.88,3.88,0,0,0,3.82-4.06c0-.22,0-.46,0-.77Zm8.23,6V.34h1.85v16Zm14.16,0a14.09,14.09,0,0,1-.22-2.14,4.17,4.17,0,0,1-4.15,2.45c-2.45,0-4.13-1.46-4.13-3.58a3.66,3.66,0,0,1,2-3.24A10.43,10.43,0,0,1,270.36,9c.43,0,.79,0,1.54,0V8.64c0-2.23-.84-3-3.1-3-1.78,0-2.86.74-3.17,2.16l-1.7-.29a3.06,3.06,0,0,1,.89-1.85,5.94,5.94,0,0,1,4.39-1.44c1.78,0,3,.46,3.67,1.39A5.44,5.44,0,0,1,273.67,9v5a9.68,9.68,0,0,0,.26,2.3Zm-1.78-6c-3.07,0-4.75,1-4.75,2.76,0,1.27,1,2.11,2.52,2.11a3.88,3.88,0,0,0,3.82-4.06c0-.22,0-.46,0-.77Zm14.38,6-3-4.8-3.07,4.8h-1.8l4-6.14-3.6-5.69h2.11l2.54,4,2.57-4h1.78l-3.46,5.3,4.08,6.53Zm9,1.39a4.62,4.62,0,0,1-1.63,2.38,3,3,0,0,1-1.85.46,5.21,5.21,0,0,1-1.39-.19V18.91a5.62,5.62,0,0,0,1.22.17,2,2,0,0,0,1.87-1,7.7,7.7,0,0,0,.77-1.94L288.62,4.51h1.87l3.17,8.9,3.24-8.9h1.56ZM313.61,6h-2.88V16.35H309V6h-2.09V4.51H309a7.08,7.08,0,0,1,.38-2.64A3.13,3.13,0,0,1,312.55,0a11.29,11.29,0,0,1,1.75.17V1.66a3.42,3.42,0,0,0-1.1-.17c-1.22,0-2,.38-2.26,1.13-.22.5-.22.6-.22,1.9h2.88Zm10.87,10.39a14.09,14.09,0,0,1-.22-2.14,4.17,4.17,0,0,1-4.15,2.45c-2.45,0-4.13-1.46-4.13-3.58a3.66,3.66,0,0,1,2-3.24A10.43,10.43,0,0,1,322.73,9c.43,0,.79,0,1.54,0V8.64c0-2.23-.84-3-3.1-3-1.78,0-2.86.74-3.17,2.16l-1.7-.29a3.06,3.06,0,0,1,.89-1.85,5.94,5.94,0,0,1,4.39-1.44c1.78,0,3,.46,3.67,1.39A5.44,5.44,0,0,1,326,9v5a9.68,9.68,0,0,0,.26,2.3Zm-1.78-6c-3.07,0-4.75,1-4.75,2.76,0,1.27,1,2.11,2.52,2.11a3.88,3.88,0,0,0,3.82-4.06c0-.22,0-.46,0-.77Zm8.23,6V4.51h1.61V7.27a9,9,0,0,1,1.22-2.06,3.11,3.11,0,0,1,2.33-1c.14,0,.41,0,.67,0V6c-2.23-.19-3.94,1.58-4,4.1v6.26Zm10.15-.26-1.78,3.26h-1l1.39-3h-1.2V13.68h2.57ZM6.67,34.75H3.79V45.15H2.09V34.75H0V33.31H2.09a7.07,7.07,0,0,1,.38-2.64A3.13,3.13,0,0,1,5.62,28.8,11.3,11.3,0,0,1,7.37,29v1.49a3.42,3.42,0,0,0-1.1-.17c-1.22,0-2,.38-2.26,1.13-.22.5-.22.6-.22,1.9H6.67ZM17.54,45.15A14.23,14.23,0,0,1,17.33,43a4.17,4.17,0,0,1-4.15,2.45C10.73,45.46,9,44,9,41.88a3.66,3.66,0,0,1,2-3.24,10.42,10.42,0,0,1,4.75-.86c.43,0,.79,0,1.54,0v-.38c0-2.23-.84-3-3.1-3-1.78,0-2.86.74-3.17,2.16l-1.7-.29a3.06,3.06,0,0,1,.89-1.85A5.94,5.94,0,0,1,14.64,33c1.78,0,3,.46,3.67,1.39a5.44,5.44,0,0,1,.79,3.46v5a9.66,9.66,0,0,0,.26,2.3Zm-1.78-6c-3.07,0-4.75,1-4.75,2.76C11,43.2,12,44,13.54,44A3.88,3.88,0,0,0,17.35,40c0-.22,0-.46,0-.77Zm8.23,6V33.31h1.61v2.76A9,9,0,0,1,26.83,34a3.11,3.11,0,0,1,2.33-1c.14,0,.41,0,.67,0v1.75c-2.23-.19-3.94,1.58-4,4.1v6.26Zm23.74,0A14.09,14.09,0,0,1,47.52,43a4.17,4.17,0,0,1-4.15,2.45c-2.45,0-4.13-1.46-4.13-3.58a3.66,3.66,0,0,1,2-3.24A10.43,10.43,0,0,1,46,37.78c.43,0,.79,0,1.54,0v-.38c0-2.23-.84-3-3.1-3-1.78,0-2.86.74-3.17,2.16l-1.7-.29a3.06,3.06,0,0,1,.89-1.85A5.94,5.94,0,0,1,44.83,33c1.78,0,3,.46,3.67,1.39a5.44,5.44,0,0,1,.79,3.46v5a9.68,9.68,0,0,0,.26,2.3Zm-1.78-6c-3.07,0-4.75,1-4.75,2.76,0,1.27,1,2.11,2.52,2.11A3.88,3.88,0,0,0,47.54,40c0-.22,0-.46,0-.77Zm18,6H62.45l-2.64-8.78-2.42,8.78H55.87L52.32,33.31h1.85l2.57,8.81,2.47-8.81h1.34l2.64,8.86,2.66-8.86h1.49Zm14.11,0A14.09,14.09,0,0,1,77.83,43a4.17,4.17,0,0,1-4.15,2.45c-2.45,0-4.13-1.46-4.13-3.58a3.66,3.66,0,0,1,2-3.24,10.43,10.43,0,0,1,4.75-.86c.43,0,.79,0,1.54,0v-.38c0-2.23-.84-3-3.1-3-1.78,0-2.86.74-3.17,2.16l-1.7-.29a3.06,3.06,0,0,1,.89-1.85A5.94,5.94,0,0,1,75.14,33c1.78,0,3,.46,3.67,1.39a5.44,5.44,0,0,1,.79,3.46v5a9.68,9.68,0,0,0,.26,2.3Zm-1.78-6c-3.07,0-4.75,1-4.75,2.76,0,1.27,1,2.11,2.52,2.11A3.88,3.88,0,0,0,77.86,40c0-.22,0-.46,0-.77Zm11.06,7.37a4.62,4.62,0,0,1-1.63,2.38,3,3,0,0,1-1.85.46,5.21,5.21,0,0,1-1.39-.19V47.71a5.62,5.62,0,0,0,1.22.17,2,2,0,0,0,1.87-1,7.7,7.7,0,0,0,.77-1.94L82.25,33.31h1.87l3.17,8.9,3.24-8.9h1.56Zm9.19-1.39H93.91V42.53h2.62Zm7.2,0h-2.62V42.53h2.62Zm7.2,0h-2.62V42.53h2.62Z"/>
</svg>
