<svg xmlns="http://www.w3.org/2000/svg" viewBox="0 0 155.96 365.42" style="fill: #F7D237">
  <path d="M.84,75.28v-8H2.28v8Zm6,0a5,5,0,0,1-.94.13,1.8,1.8,0,0,1-1.26-.47c-.31-.31-.41-.67-.41-1.48V70.41H3.55v-1h.82l.12-1.54,1.09-.1v1.63h1.2v1H5.58v2.88c0,.74.22,1,1,1h.34ZM16,68.67V67.28h1.33v1.39Zm0,6.61V69.37h1.33v5.91Zm3.65-1.6a1.2,1.2,0,0,0,1.31.72c.76,0,1.2-.26,1.2-.73,0-.29-.25-.52-.65-.59l-1.08-.22c-1.22-.23-1.79-.78-1.79-1.74a1.82,1.82,0,0,1,.47-1.24,2.29,2.29,0,0,1,1.81-.65,2.09,2.09,0,0,1,2.28,1.37l-1.2.25c-.16-.48-.47-.67-1.08-.67s-1,.25-1,.64.25.55.85.67l1.27.26a1.63,1.63,0,0,1,1.49,1.72c0,1.18-1,1.92-2.58,1.92a3.17,3.17,0,0,1-1.9-.55,1.62,1.62,0,0,1-.61-.92Zm16.71,1.6a5.21,5.21,0,0,1-.2-1.2,2,2,0,0,1-2,1.32,1.8,1.8,0,0,1-2-1.81c0-.92.59-1.56,1.7-1.83a8.65,8.65,0,0,1,2.25-.2v-.44c0-.61-.42-.91-1.26-.91s-1.22.28-1.37.91l-1.14-.17a1.63,1.63,0,0,1,.78-1.22,3.15,3.15,0,0,1,1.89-.47,2.51,2.51,0,0,1,2,.65c.3.34.37.66.37,1.52v2.66a4.09,4.09,0,0,0,.18,1.2Zm-.2-3c-1.7,0-2.59.42-2.59,1.24,0,.55.4.89,1,.89a1.48,1.48,0,0,0,1.55-1.58Zm10.92,5V69.37h1.28v1a1.9,1.9,0,0,1,1.8-1.15,1.73,1.73,0,0,1,1.51.78,3.88,3.88,0,0,1,.63,2.25,4,4,0,0,1-.7,2.39,1.78,1.78,0,0,1-1.55.73,1.72,1.72,0,0,1-1.63-.95v2.83Zm1.36-4.43a1.35,1.35,0,0,0,1.28,1.49c.73,0,1.17-.73,1.17-2s-.43-2-1.19-2S48.45,71,48.45,72Zm10.25.7a2.56,2.56,0,0,1-2.63,1.85c-1.66,0-2.72-1.2-2.72-3.06a2.79,2.79,0,0,1,2.78-3.09c1.7,0,2.65,1.15,2.66,3.24H54.74v.17c0,1.08.53,1.69,1.42,1.69a1.28,1.28,0,0,0,1.33-1Zm-1.28-1.93a1.44,1.44,0,0,0-.3-.92,1.23,1.23,0,0,0-1-.52c-.76,0-1.24.5-1.34,1.44Zm2.79,3.66V69.37h1.21v1.42c.28-1,1-1.64,1.8-1.58v1.44H62.9c-.79,0-1.34.79-1.37,1.9v2.73Zm4.09-6.61V67.28h1.33v1.39Zm0,6.61V69.37h1.33v5.91ZM72,70.46a3.27,3.27,0,0,1,.49,1.87,2.82,2.82,0,0,1-2.81,3.07,2.4,2.4,0,0,1-2.11-1.09,3.45,3.45,0,0,1-.59-2,2.8,2.8,0,0,1,2.77-3.06A2.46,2.46,0,0,1,72,70.46Zm-3.6,1.86c0,1.27.48,2,1.33,2s1.34-.72,1.34-2-.47-2-1.32-2S68.44,71,68.44,72.32Zm9.11,3V74.1a1.76,1.76,0,0,1-1.74,1.31,1.94,1.94,0,0,1-1.58-.76,4.33,4.33,0,0,1-.67-2.4,3.77,3.77,0,0,1,.83-2.47,1.88,1.88,0,0,1,1.5-.65,1.6,1.6,0,0,1,1.58,1V67.28H78.8v8Zm-.08-3.49a1.51,1.51,0,0,0-.31-1.08,1.17,1.17,0,0,0-.91-.44c-.82,0-1.27.73-1.27,2.05s.43,2,1.24,2a1.38,1.38,0,0,0,1.26-1.51ZM93,70.46a3.27,3.27,0,0,1,.49,1.87,2.82,2.82,0,0,1-2.81,3.07,2.4,2.4,0,0,1-2.11-1.09,3.45,3.45,0,0,1-.59-2,2.8,2.8,0,0,1,2.77-3.06A2.46,2.46,0,0,1,93,70.46Zm-3.6,1.86c0,1.27.48,2,1.33,2s1.34-.72,1.34-2-.47-2-1.32-2S89.44,71,89.44,72.32Zm5.7,3V70.41h-.88v-1h.88a2.14,2.14,0,0,1,.44-1.7,2,2,0,0,1,1.68-.52h.48v1.06a2.08,2.08,0,0,0-.36,0,1,1,0,0,0-.83.25c-.12.16-.13.24-.13.92h1.32v1H96.42v4.87Zm16.16-2.05a2.89,2.89,0,0,1-.55,1.31,2.26,2.26,0,0,1-1.87.86c-1.51,0-2.52-1.24-2.52-3.07s1.07-3.08,2.64-3.08a2.22,2.22,0,0,1,1.76.74,2.31,2.31,0,0,1,.54,1.3l-1.15.16c-.1-.73-.47-1.1-1.08-1.1-.82,0-1.29.76-1.29,2s.46,1.86,1.21,1.86c.59,0,1-.38,1.16-1.13Zm1.21-4.56V67.28h1.33v1.39Zm0,6.61V69.37h1.33v5.91Zm5.53,0h-1.12l-2.05-5.91h1.39l1.38,4,1.36-4h1Zm3-6.61V67.28h1.33v1.39Zm0,6.61V69.37h1.33v5.91Zm3.12,0v-8h1.33v8Zm16.65,0h-1.2l-1.07-4.15-1.05,4.15h-1.24l-1.82-5.91h1.42l1.18,4,1-4h1.21l1,4,1.14-4h1.13Zm6.47,0a5.27,5.27,0,0,1-.2-1.2,2,2,0,0,1-2,1.32,1.8,1.8,0,0,1-2-1.81c0-.92.59-1.56,1.7-1.83a8.65,8.65,0,0,1,2.25-.2v-.44c0-.61-.42-.91-1.26-.91s-1.22.28-1.37.91l-1.14-.17a1.63,1.63,0,0,1,.78-1.22,3.15,3.15,0,0,1,1.89-.47,2.51,2.51,0,0,1,2,.65c.3.34.37.66.37,1.52v2.66a4.09,4.09,0,0,0,.18,1.2Zm-.2-3c-1.7,0-2.59.42-2.59,1.24,0,.55.4.89,1,.89a1.48,1.48,0,0,0,1.55-1.58Zm3.08,3V69.37h1.21v1.42c.28-1,1-1.64,1.8-1.58v1.44h-.31c-.79,0-1.34.79-1.37,1.9v2.73Zm5.05,0h-1.45V73.75h1.45ZM5.55,89.68,4.31,86.4h-2v3.29H.84v-8H4.31a2.94,2.94,0,0,1,2.09.62A2.2,2.2,0,0,1,7.11,84a2.11,2.11,0,0,1-1.44,2.12l1.4,3.53ZM4.08,85.25c1,0,1.54-.44,1.54-1.24s-.54-1.18-1.42-1.18H2.28v2.41ZM13.48,88a2.55,2.55,0,0,1-2.63,1.85c-1.66,0-2.72-1.2-2.72-3.06a2.79,2.79,0,0,1,2.78-3.09c1.7,0,2.65,1.15,2.66,3.24H9.53v.17c0,1.08.53,1.69,1.42,1.69a1.28,1.28,0,0,0,1.33-1ZM12.2,86a1.44,1.44,0,0,0-.3-.92,1.24,1.24,0,0,0-1-.52c-.76,0-1.24.5-1.34,1.44ZM15,89.68v-8h1.33v2.89c.49-.83.89-1.08,1.64-1.08,1.35,0,2.25,1.24,2.25,3.12a3.82,3.82,0,0,1-.68,2.33,2,2,0,0,1-1.77.86,1.93,1.93,0,0,1-1.81-1.09l-.36,1Zm1.33-2.53c0,1,.44,1.56,1.22,1.56a1,1,0,0,0,.95-.53,2.93,2.93,0,0,0,.32-1.62,2.53,2.53,0,0,0-.35-1.46,1.06,1.06,0,0,0-.89-.46c-.77,0-1.26.64-1.26,1.63Zm10.27.8a2.55,2.55,0,0,1-2.63,1.85c-1.66,0-2.72-1.2-2.72-3.06A2.79,2.79,0,0,1,24,83.65c1.7,0,2.65,1.15,2.66,3.24H22.59v.17c0,1.08.53,1.69,1.42,1.69a1.28,1.28,0,0,0,1.33-1ZM25.27,86a1.44,1.44,0,0,0-.3-.92,1.24,1.24,0,0,0-1-.52c-.76,0-1.24.5-1.34,1.44ZM28,89.68v-8h1.33v8Zm15.76-1.59a1.2,1.2,0,0,0,1.31.72c.76,0,1.2-.26,1.2-.73,0-.29-.25-.52-.65-.59l-1.08-.22c-1.22-.23-1.79-.78-1.79-1.74a1.82,1.82,0,0,1,.47-1.24A2.29,2.29,0,0,1,45,83.65,2.09,2.09,0,0,1,47.33,85l-1.2.25c-.16-.48-.47-.67-1.08-.67s-1,.25-1,.64.25.55.85.67l1.27.26a1.63,1.63,0,0,1,1.49,1.71c0,1.17-1,1.92-2.58,1.92a3.17,3.17,0,0,1-1.9-.55,1.62,1.62,0,0,1-.61-.92Zm5.1,3.6V83.77h1.28v1A1.9,1.9,0,0,1,52,83.65a1.73,1.73,0,0,1,1.51.78,3.88,3.88,0,0,1,.63,2.25,4,4,0,0,1-.7,2.39,1.78,1.78,0,0,1-1.55.73,1.72,1.72,0,0,1-1.63-.95v2.83Zm1.36-4.43a1.35,1.35,0,0,0,1.28,1.49c.73,0,1.17-.73,1.17-2s-.43-2-1.19-2-1.27.71-1.27,1.68Zm9.06,2.42a5.21,5.21,0,0,1-.2-1.2,2,2,0,0,1-2,1.32,1.8,1.8,0,0,1-2-1.81c0-.92.59-1.56,1.7-1.83a8.7,8.7,0,0,1,2.25-.2v-.44c0-.61-.42-.91-1.26-.91s-1.22.28-1.37.91l-1.14-.17a1.63,1.63,0,0,1,.78-1.22A3.15,3.15,0,0,1,58,83.65a2.5,2.5,0,0,1,2,.65c.3.34.37.66.37,1.52v2.66a4.09,4.09,0,0,0,.18,1.2Zm-.2-3c-1.7,0-2.59.42-2.59,1.24,0,.55.4.89,1,.89a1.48,1.48,0,0,0,1.55-1.58Zm7.64,1a2.9,2.9,0,0,1-.55,1.31,2.26,2.26,0,0,1-1.87.86c-1.51,0-2.52-1.24-2.52-3.07s1.07-3.08,2.64-3.08a2.22,2.22,0,0,1,1.76.74,2.31,2.31,0,0,1,.54,1.29l-1.15.16c-.1-.73-.47-1.1-1.08-1.1-.82,0-1.29.76-1.29,2s.46,1.86,1.21,1.86c.59,0,1-.38,1.16-1.13Zm6.21.32a2.55,2.55,0,0,1-2.63,1.85c-1.66,0-2.72-1.2-2.72-3.06a2.79,2.79,0,0,1,2.78-3.09c1.7,0,2.65,1.15,2.66,3.24H69v.17c0,1.08.53,1.69,1.42,1.69a1.28,1.28,0,0,0,1.33-1ZM71.66,86a1.44,1.44,0,0,0-.3-.92,1.24,1.24,0,0,0-1-.52c-.76,0-1.24.5-1.34,1.44ZM75,88.09a1.2,1.2,0,0,0,1.31.72c.76,0,1.2-.26,1.2-.73,0-.29-.25-.52-.65-.59l-1.08-.22C74.57,87,74,86.49,74,85.53a1.82,1.82,0,0,1,.47-1.24,2.29,2.29,0,0,1,1.81-.65A2.09,2.09,0,0,1,78.56,85l-1.2.25c-.16-.48-.47-.67-1.08-.67s-1,.25-1,.64.25.55.85.67l1.27.26a1.63,1.63,0,0,1,1.49,1.71c0,1.17-1,1.92-2.58,1.92a3.17,3.17,0,0,1-1.9-.55,1.62,1.62,0,0,1-.61-.92Zm8.67,1.59V85.81c0-.74-.32-1.14-.91-1.14a1.25,1.25,0,0,0-1.08.65,2.68,2.68,0,0,0-.25,1.29v3.07H80.11v-8h1.33V84.8a1.77,1.77,0,0,1,1.76-1.28,1.66,1.66,0,0,1,1.52.76A2.38,2.38,0,0,1,85,85.62v4.07Zm3.11-6.61V81.68h1.33v1.39Zm0,6.61V83.77h1.33v5.91Zm3.12,2V83.77H91.2v1A1.9,1.9,0,0,1,93,83.65a1.73,1.73,0,0,1,1.51.78,3.88,3.88,0,0,1,.63,2.25,4,4,0,0,1-.7,2.39,1.78,1.78,0,0,1-1.55.73,1.72,1.72,0,0,1-1.63-.95v2.83Zm1.36-4.43a1.35,1.35,0,0,0,1.28,1.49c.73,0,1.17-.73,1.17-2s-.43-2-1.19-2-1.27.71-1.27,1.68Zm5.81.83a1.2,1.2,0,0,0,1.31.72c.76,0,1.2-.26,1.2-.73,0-.29-.25-.52-.65-.59l-1.08-.22c-1.22-.23-1.79-.78-1.79-1.74a1.82,1.82,0,0,1,.47-1.24,2.29,2.29,0,0,1,1.81-.65A2.09,2.09,0,0,1,100.63,85l-1.2.25c-.16-.48-.47-.67-1.08-.67s-1,.25-1,.64.25.55.85.67l1.27.26a1.63,1.63,0,0,1,1.49,1.71c0,1.17-1,1.92-2.58,1.92a3.17,3.17,0,0,1-1.9-.55,1.62,1.62,0,0,1-.61-.92Zm6.64,1.44-.94,1.87h-.52l.7-1.71h-.7v-1.5h1.45Zm14.34-1.44a1.2,1.2,0,0,0,1.31.72c.76,0,1.2-.26,1.2-.73,0-.29-.25-.52-.65-.59l-1.08-.22c-1.22-.23-1.79-.78-1.79-1.74a1.82,1.82,0,0,1,.47-1.24,2.29,2.29,0,0,1,1.81-.65A2.09,2.09,0,0,1,121.61,85l-1.2.25c-.16-.48-.47-.67-1.08-.67s-1,.25-1,.64.25.55.85.67l1.27.26a1.63,1.63,0,0,1,1.49,1.71c0,1.17-1,1.92-2.58,1.92a3.17,3.17,0,0,1-1.9-.55,1.62,1.62,0,0,1-.61-.92Zm7.82,1.59a5,5,0,0,1-.94.13,1.8,1.8,0,0,1-1.26-.47c-.31-.31-.41-.67-.41-1.47V84.81h-.73v-1h.82l.12-1.54,1.09-.1v1.63h1.2v1h-1.2v2.88c0,.74.22,1,1,1h.34Zm1.2,0V83.77h1.21v1.42c.28-1,1-1.64,1.8-1.58V85h-.31c-.79,0-1.34.79-1.37,1.9v2.73Zm4.09-6.61V81.68h1.33v1.39Zm0,6.61V83.77h1.33v5.91Zm7.22,0-1.51-3-1.31,1.47v1.56h-1.28v-8h1.28v5c.12-.17.18-.23.26-.34l2.34-2.54h1.44l-1.78,2,2,4Zm2.44-6.61V81.68h1.33v1.39Zm0,6.61V83.77h1.33v5.91Zm6.68,0V86c0-.72-.36-1.17-.92-1.17a1.27,1.27,0,0,0-1.09.73,2.45,2.45,0,0,0-.22,1.1v3H144V83.77h1.21v1.37c.49-1.07,1-1.49,1.81-1.49a1.85,1.85,0,0,1,1.62.88,2.77,2.77,0,0,1,.25,1.34v3.81Zm8.43-6h-.41c-.5,0-.65.1-.86.48a1.57,1.57,0,0,1,.7,1.28c0,1.06-1,1.81-2.39,1.81a4.37,4.37,0,0,1-1.12-.16c-.3.16-.41.3-.41.56s.31.6.8.6H154c1.15,0,1.93.66,1.93,1.62,0,1.2-1.18,1.94-3.08,1.94S150,91.27,150,90.2c0-.56.22-.86.86-1.2-.42-.37-.55-.6-.55-1,0-.54.26-.89.95-1.24a1.48,1.48,0,0,1-.83-1.36,1.57,1.57,0,0,1,.52-1.17,2.65,2.65,0,0,1,1.94-.61,5,5,0,0,1,1.13.12,1.32,1.32,0,0,1,1.42-1.13h.5Zm-3.54,5.84a2.91,2.91,0,0,1-1-.14c-.22.2-.29.32-.29.52,0,.62.77,1,2,1,1,0,1.55-.28,1.55-.79,0-.36-.35-.6-.89-.6Zm-.59-4a1,1,0,0,0,1.09,1c.67,0,1.09-.36,1.09-.94a1,1,0,0,0-1.07-1A1,1,0,0,0,151.82,85.47ZM1,104.08V99.21H.1v-1H1a2.14,2.14,0,0,1,.44-1.7A2,2,0,0,1,3.09,96h.48V97a2.12,2.12,0,0,0-.36,0,1,1,0,0,0-.83.25c-.12.16-.13.24-.13.92H3.57v1H2.25v4.87Zm3.77,0V98.17H6v1.42c.28-1,1-1.64,1.8-1.58v1.44H7.44c-.79,0-1.34.79-1.37,1.9v2.73Zm8.71-4.82a3.27,3.27,0,0,1,.49,1.87,2.82,2.82,0,0,1-2.81,3.07A2.4,2.4,0,0,1,9,103.11a3.45,3.45,0,0,1-.59-2,2.8,2.8,0,0,1,2.77-3.06A2.46,2.46,0,0,1,13.45,99.26Zm-3.6,1.86c0,1.27.48,2,1.33,2s1.34-.72,1.34-2-.47-2-1.32-2S9.85,99.85,9.85,101.12Zm12.93,3V100.4c0-.76-.35-1.14-1-1.14-.83,0-1.29.62-1.29,1.71v3.11H19.05V100.4a1.24,1.24,0,0,0-.13-.71.91.91,0,0,0-.83-.46c-.8,0-1.37.72-1.37,1.74v3.11H15.35V98.17h1.29v1.26a2.74,2.74,0,0,1,.65-.92,2,2,0,0,1,1.32-.46,1.65,1.65,0,0,1,1.7,1.38,2.17,2.17,0,0,1,2-1.38,1.8,1.8,0,0,1,1.89,1.85v4.19Zm9.56,0a5.21,5.21,0,0,1-.2-1.2,2,2,0,0,1-2,1.32,1.8,1.8,0,0,1-2-1.81c0-.92.59-1.56,1.7-1.83a8.7,8.7,0,0,1,2.25-.2v-.44c0-.61-.42-.91-1.26-.91s-1.22.28-1.37.91l-1.14-.17a1.63,1.63,0,0,1,.78-1.22A3.15,3.15,0,0,1,31,98.05a2.5,2.5,0,0,1,2,.65c.3.34.37.66.37,1.52v2.66a4.09,4.09,0,0,0,.18,1.2Zm-.2-3c-1.7,0-2.59.42-2.59,1.24,0,.55.4.89,1,.89a1.48,1.48,0,0,0,1.55-1.58Zm9.26,3v-3.87c0-.74-.32-1.14-.91-1.14a1.25,1.25,0,0,0-1.08.65,2.68,2.68,0,0,0-.25,1.29v3.07H37.83v-8h1.33V99.2a1.77,1.77,0,0,1,1.76-1.28,1.66,1.66,0,0,1,1.52.76,2.38,2.38,0,0,1,.29,1.34v4.07Zm3.11-6.61V96.08h1.33v1.39Zm0,6.61V98.17h1.33v5.91Zm6.73,0V102.9a1.76,1.76,0,0,1-1.74,1.31,1.94,1.94,0,0,1-1.58-.76,4.33,4.33,0,0,1-.67-2.4,3.77,3.77,0,0,1,.83-2.47,1.88,1.88,0,0,1,1.5-.65,1.6,1.6,0,0,1,1.58,1V96.08h1.33v8Zm-.08-3.49a1.51,1.51,0,0,0-.31-1.08,1.17,1.17,0,0,0-.91-.44c-.82,0-1.27.73-1.27,2.05s.43,2,1.24,2a1.38,1.38,0,0,0,1.26-1.51Zm6.72,3.49V102.9a1.76,1.76,0,0,1-1.74,1.31,1.94,1.94,0,0,1-1.58-.76,4.33,4.33,0,0,1-.67-2.4,3.77,3.77,0,0,1,.83-2.47,1.88,1.88,0,0,1,1.5-.65,1.6,1.6,0,0,1,1.58,1V96.08h1.33v8Zm-.08-3.49a1.51,1.51,0,0,0-.31-1.08,1.17,1.17,0,0,0-.91-.44c-.82,0-1.27.73-1.27,2.05s.43,2,1.24,2a1.38,1.38,0,0,0,1.26-1.51Zm8.07,1.76a2.55,2.55,0,0,1-2.63,1.85c-1.66,0-2.72-1.2-2.72-3.06a2.79,2.79,0,0,1,2.78-3.09c1.7,0,2.65,1.15,2.66,3.24H61.91v.17c0,1.08.53,1.69,1.42,1.69a1.28,1.28,0,0,0,1.33-1Zm-1.28-1.93a1.44,1.44,0,0,0-.3-.92,1.24,1.24,0,0,0-1-.52c-.76,0-1.24.5-1.34,1.44Zm6.35,3.66v-3.69c0-.72-.36-1.17-.92-1.17a1.27,1.27,0,0,0-1.09.73,2.45,2.45,0,0,0-.22,1.1v3H67.37V98.17h1.21v1.37c.49-1.07,1-1.49,1.81-1.49a1.85,1.85,0,0,1,1.62.88,2.77,2.77,0,0,1,.25,1.34v3.81Zm5.71,0v-8H78V99c.49-.83.89-1.08,1.64-1.08,1.35,0,2.25,1.24,2.25,3.12a3.82,3.82,0,0,1-.68,2.33,2,2,0,0,1-1.77.86,1.93,1.93,0,0,1-1.81-1.09l-.36,1ZM78,101.55c0,1,.44,1.56,1.22,1.56a1,1,0,0,0,.95-.53,2.93,2.93,0,0,0,.32-1.62,2.53,2.53,0,0,0-.35-1.46,1.06,1.06,0,0,0-.89-.46c-.77,0-1.26.64-1.26,1.63Zm9.08,2.53a5.26,5.26,0,0,1-.2-1.2,2,2,0,0,1-2,1.32,1.8,1.8,0,0,1-2-1.81c0-.92.59-1.56,1.7-1.83a8.7,8.7,0,0,1,2.25-.2v-.44c0-.61-.42-.91-1.26-.91s-1.22.28-1.37.91l-1.14-.17a1.63,1.63,0,0,1,.78-1.22,3.15,3.15,0,0,1,1.89-.47,2.5,2.5,0,0,1,2,.65c.3.34.37.66.37,1.52v2.66a4.09,4.09,0,0,0,.18,1.2Zm-.2-3c-1.7,0-2.59.42-2.59,1.24,0,.55.4.89,1,.89a1.48,1.48,0,0,0,1.55-1.58Zm3.65,1.42a1.2,1.2,0,0,0,1.31.72c.76,0,1.2-.26,1.2-.73,0-.29-.25-.52-.65-.59l-1.08-.22c-1.22-.23-1.79-.78-1.79-1.74A1.82,1.82,0,0,1,90,98.7a2.29,2.29,0,0,1,1.81-.65A2.09,2.09,0,0,1,94,99.42l-1.2.25c-.16-.48-.47-.67-1.08-.67s-1,.25-1,.64.25.55.85.67l1.27.26a1.63,1.63,0,0,1,1.49,1.71c0,1.17-1,1.92-2.58,1.92a3.17,3.17,0,0,1-1.9-.55,1.62,1.62,0,0,1-.61-.92Zm10.07-.13a2.55,2.55,0,0,1-2.63,1.85c-1.66,0-2.72-1.2-2.72-3.06A2.79,2.79,0,0,1,98,98.05c1.7,0,2.65,1.15,2.66,3.24H96.61v.17c0,1.08.53,1.69,1.42,1.69a1.28,1.28,0,0,0,1.33-1Zm-1.28-1.93a1.44,1.44,0,0,0-.3-.92A1.24,1.24,0,0,0,98,99c-.76,0-1.24.5-1.34,1.44Zm4.11,3.5-.94,1.87h-.52l.7-1.71h-.7v-1.5h1.45Zm7.88.16v-3.87c0-.74-.32-1.14-.91-1.14a1.25,1.25,0,0,0-1.08.65A2.68,2.68,0,0,0,109,101v3.07h-1.33v-8H109V99.2a1.77,1.77,0,0,1,1.76-1.28,1.66,1.66,0,0,1,1.52.76,2.38,2.38,0,0,1,.29,1.34v4.07Zm6.89,0a5.21,5.21,0,0,1-.2-1.2,2,2,0,0,1-2,1.32,1.8,1.8,0,0,1-2-1.81c0-.92.59-1.56,1.7-1.83a8.7,8.7,0,0,1,2.25-.2v-.44c0-.61-.42-.91-1.26-.91s-1.22.28-1.37.91l-1.14-.17a1.63,1.63,0,0,1,.78-1.22,3.15,3.15,0,0,1,1.89-.47,2.5,2.5,0,0,1,2,.65c.3.34.37.66.37,1.52v2.66a4.09,4.09,0,0,0,.18,1.2Zm-.2-3c-1.7,0-2.59.42-2.59,1.24,0,.55.4.89,1,.89a1.48,1.48,0,0,0,1.55-1.58Zm5.38,3h-1.12l-2.05-5.91h1.39l1.38,4,1.36-4h1Zm7.89-1.73a2.55,2.55,0,0,1-2.63,1.85c-1.66,0-2.72-1.2-2.72-3.06a2.79,2.79,0,0,1,2.78-3.09c1.7,0,2.65,1.15,2.66,3.24h-4.05v.17c0,1.08.53,1.69,1.42,1.69a1.28,1.28,0,0,0,1.33-1Zm-1.28-1.93a1.44,1.44,0,0,0-.3-.92,1.24,1.24,0,0,0-1-.52c-.76,0-1.24.5-1.34,1.44ZM141,104.08h-1.2l-1.07-4.15-1.05,4.15h-1.24l-1.82-5.91h1.42l1.18,4,1-4h1.21l1,4,1.14-4h1.13Zm7.36-4.82a3.27,3.27,0,0,1,.49,1.87,2.82,2.82,0,0,1-2.81,3.07,2.4,2.4,0,0,1-2.11-1.09,3.45,3.45,0,0,1-.59-2,2.8,2.8,0,0,1,2.77-3.06A2.46,2.46,0,0,1,148.38,99.26Zm-3.6,1.86c0,1.27.48,2,1.33,2s1.34-.72,1.34-2-.47-2-1.32-2S144.78,99.85,144.78,101.12Zm9.06,3v-3.69c0-.72-.36-1.17-.92-1.17a1.27,1.27,0,0,0-1.09.73,2.45,2.45,0,0,0-.22,1.1v3h-1.33V98.17h1.21v1.37c.49-1.07,1-1.49,1.81-1.49a1.85,1.85,0,0,1,1.62.88,2.77,2.77,0,0,1,.25,1.34v3.81ZM3.5,118.48a5,5,0,0,1-.94.13,1.8,1.8,0,0,1-1.26-.47c-.31-.31-.41-.67-.41-1.47v-3.06H.17v-1H1L1.1,111l1.09-.1v1.63h1.2v1H2.19v2.88c0,.74.22,1,1,1H3.5Zm4.78,0v-3.87c0-.74-.32-1.14-.91-1.14a1.25,1.25,0,0,0-1.08.65A2.68,2.68,0,0,0,6,115.41v3.07H4.7v-8H6v3.12a1.77,1.77,0,0,1,1.76-1.28,1.66,1.66,0,0,1,1.52.76,2.38,2.38,0,0,1,.29,1.34v4.07Zm8.08-1.73a2.55,2.55,0,0,1-2.63,1.85c-1.66,0-2.72-1.2-2.72-3.06a2.79,2.79,0,0,1,2.78-3.09c1.7,0,2.65,1.15,2.66,3.24H12.4v.17c0,1.08.53,1.69,1.42,1.69a1.28,1.28,0,0,0,1.33-1Zm-1.28-1.93a1.44,1.44,0,0,0-.3-.92,1.24,1.24,0,0,0-1-.52c-.76,0-1.24.5-1.34,1.44Zm2.79-3v-1.39h1.33v1.39Zm0,6.61v-5.91h1.33v5.91Zm3.12,0v-5.91h1.21V114c.28-1,1-1.64,1.8-1.58v1.44h-.31c-.79,0-1.34.79-1.37,1.9v2.73Zm9.33,0v-4.87h-.88v-1h.88a2.14,2.14,0,0,1,.44-1.7,2,2,0,0,1,1.68-.52h.48v1.05a2.12,2.12,0,0,0-.36,0,1,1,0,0,0-.83.25c-.12.16-.13.24-.13.92h1.32v1H31.59v4.87Zm3.7-6.61v-1.39h1.33v1.39Zm0,6.61v-5.91h1.33v5.91Zm3.12,0v-5.91h1.21V114c.28-1,1-1.64,1.8-1.58v1.44h-.31c-.79,0-1.34.79-1.37,1.9v2.73Zm4.81-1.59a1.2,1.2,0,0,0,1.31.72c.76,0,1.2-.26,1.2-.73,0-.29-.25-.52-.65-.59l-1.08-.22c-1.22-.23-1.79-.78-1.79-1.74a1.82,1.82,0,0,1,.47-1.24,2.29,2.29,0,0,1,1.81-.65,2.09,2.09,0,0,1,2.28,1.37l-1.2.25c-.16-.48-.47-.67-1.08-.67s-1,.25-1,.64.25.55.85.67l1.27.26a1.63,1.63,0,0,1,1.49,1.71c0,1.17-1,1.92-2.58,1.92a3.17,3.17,0,0,1-1.9-.55,1.62,1.62,0,0,1-.61-.92Zm7.82,1.59a5,5,0,0,1-.94.13,1.8,1.8,0,0,1-1.26-.47c-.31-.31-.41-.67-.41-1.47v-3.06h-.73v-1h.82l.12-1.54,1.09-.1v1.63h1.2v1h-1.2v2.88c0,.74.22,1,1,1h.34Zm8.73,0H57.37l-2.05-5.91h1.39l1.38,4,1.36-4h1Zm3-6.61v-1.39h1.33v1.39Zm0,6.61v-5.91h1.33v5.91Zm7.68-2.05a2.9,2.9,0,0,1-.55,1.31,2.26,2.26,0,0,1-1.87.86c-1.51,0-2.52-1.24-2.52-3.07s1.07-3.08,2.64-3.08a2.22,2.22,0,0,1,1.76.74,2.31,2.31,0,0,1,.54,1.29l-1.15.16c-.1-.73-.47-1.1-1.08-1.1-.82,0-1.29.76-1.29,2s.46,1.86,1.21,1.86c.59,0,1-.38,1.16-1.13Zm4,2.05a5,5,0,0,1-.94.13,1.8,1.8,0,0,1-1.26-.47c-.31-.31-.41-.67-.41-1.47v-3.06h-.73v-1h.82l.12-1.54,1.09-.1v1.63h1.2v1h-1.2v2.88c0,.74.22,1,1,1h.34ZM79,113.66a3.27,3.27,0,0,1,.49,1.87,2.82,2.82,0,0,1-2.81,3.07,2.4,2.4,0,0,1-2.11-1.09,3.45,3.45,0,0,1-.59-2,2.8,2.8,0,0,1,2.77-3.06A2.46,2.46,0,0,1,79,113.66Zm-3.6,1.86c0,1.27.48,2,1.33,2s1.34-.72,1.34-2-.47-2-1.32-2S75.37,114.25,75.37,115.52Zm5.5,3v-5.91h1.21V114c.28-1,1-1.64,1.8-1.58v1.44h-.31c-.79,0-1.34.79-1.37,1.9v2.73Zm6.54.83c-.31.91-.79,1.31-1.61,1.31-.17,0-.48,0-.77,0v-1.06h.66a.81.81,0,0,0,.78-.33,2.58,2.58,0,0,0,.25-.7,2.17,2.17,0,0,0-.12-.37l-2-5.55H86l1.44,3.91,1.24-3.91h1.07Zm12.13-.83a5.26,5.26,0,0,1-.2-1.2,2,2,0,0,1-2,1.32,1.8,1.8,0,0,1-2-1.81c0-.92.59-1.56,1.7-1.83a8.7,8.7,0,0,1,2.25-.2v-.44c0-.61-.42-.91-1.26-.91s-1.22.28-1.37.91l-1.14-.17a1.63,1.63,0,0,1,.78-1.22,3.15,3.15,0,0,1,1.89-.47,2.5,2.5,0,0,1,2,.65c.3.34.37.66.37,1.52v2.66a4.09,4.09,0,0,0,.18,1.2Zm-.2-3c-1.7,0-2.59.42-2.59,1.24,0,.55.4.89,1,.89A1.48,1.48,0,0,0,99.33,116Zm8.43-3h-.41c-.5,0-.65.1-.86.48a1.57,1.57,0,0,1,.7,1.28c0,1.06-1,1.81-2.39,1.81a4.37,4.37,0,0,1-1.12-.16c-.3.16-.41.3-.41.56s.31.6.8.6h1.76c1.15,0,1.93.66,1.93,1.62,0,1.2-1.18,1.94-3.08,1.94s-2.87-.54-2.87-1.61c0-.56.22-.86.86-1.2-.42-.37-.55-.6-.55-1,0-.54.26-.89.95-1.24a1.48,1.48,0,0,1-.83-1.36,1.57,1.57,0,0,1,.52-1.17,2.65,2.65,0,0,1,1.94-.61,5,5,0,0,1,1.13.12,1.32,1.32,0,0,1,1.42-1.13h.5Zm-3.54,5.84a2.91,2.91,0,0,1-1-.14c-.22.2-.29.32-.29.52,0,.62.77,1,2,1,1,0,1.55-.28,1.55-.79,0-.36-.35-.6-.89-.6Zm-.59-4a1,1,0,0,0,1.09,1c.67,0,1.09-.36,1.09-.94a1,1,0,0,0-1.07-1A1,1,0,0,0,103.64,114.27Zm8.91,4.21a5.26,5.26,0,0,1-.2-1.2,2,2,0,0,1-2,1.32,1.8,1.8,0,0,1-2-1.81c0-.92.59-1.56,1.7-1.83a8.7,8.7,0,0,1,2.25-.2v-.44c0-.61-.42-.91-1.26-.91s-1.22.28-1.37.91l-1.14-.17a1.63,1.63,0,0,1,.78-1.22,3.15,3.15,0,0,1,1.89-.47,2.5,2.5,0,0,1,2,.65c.3.34.37.66.37,1.52v2.66a4.09,4.09,0,0,0,.18,1.2Zm-.2-3c-1.7,0-2.59.42-2.59,1.24,0,.55.4.89,1,.89a1.48,1.48,0,0,0,1.55-1.58Zm3.08-3.6v-1.39h1.33v1.39Zm0,6.61v-5.91h1.33v5.91Zm6.68,0v-3.69c0-.72-.36-1.17-.92-1.17a1.27,1.27,0,0,0-1.09.73,2.45,2.45,0,0,0-.22,1.1v3h-1.33v-5.91h1.21v1.37c.49-1.07,1-1.49,1.81-1.49a1.85,1.85,0,0,1,1.62.88,2.77,2.77,0,0,1,.25,1.34v3.81Zm3.64-1.59a1.2,1.2,0,0,0,1.31.72c.76,0,1.2-.26,1.2-.73,0-.29-.25-.52-.65-.59l-1.08-.22c-1.22-.23-1.79-.78-1.79-1.74a1.82,1.82,0,0,1,.47-1.24,2.29,2.29,0,0,1,1.81-.65,2.09,2.09,0,0,1,2.28,1.37l-1.2.25c-.16-.48-.47-.67-1.08-.67s-1,.25-1,.64.25.55.85.67l1.27.26a1.63,1.63,0,0,1,1.49,1.71c0,1.17-1,1.92-2.58,1.92a3.17,3.17,0,0,1-1.9-.55,1.62,1.62,0,0,1-.61-.92Zm7.82,1.59a5,5,0,0,1-.94.13,1.8,1.8,0,0,1-1.26-.47c-.31-.31-.41-.67-.41-1.47v-3.06h-.73v-1h.82l.12-1.54,1.09-.1v1.63h1.2v1h-1.2v2.88c0,.74.22,1,1,1h.34Zm9,0a5,5,0,0,1-.94.13,1.8,1.8,0,0,1-1.26-.47c-.31-.31-.41-.67-.41-1.47v-3.06h-.73v-1h.82l.12-1.54,1.09-.1v1.63h1.2v1h-1.2v2.88c0,.74.22,1,1,1h.34Zm4.78,0v-3.87c0-.74-.32-1.14-.91-1.14a1.25,1.25,0,0,0-1.08.65,2.68,2.68,0,0,0-.25,1.29v3.07H143.8v-8h1.33v3.12a1.77,1.77,0,0,1,1.76-1.28,1.66,1.66,0,0,1,1.52.76,2.38,2.38,0,0,1,.29,1.34v4.07Zm8.07-1.73a2.55,2.55,0,0,1-2.63,1.85c-1.66,0-2.72-1.2-2.72-3.06a2.79,2.79,0,0,1,2.78-3.09c1.7,0,2.65,1.15,2.66,3.24h-4.05v.17c0,1.08.53,1.69,1.42,1.69a1.28,1.28,0,0,0,1.33-1Zm-1.28-1.93a1.44,1.44,0,0,0-.3-.92,1.24,1.24,0,0,0-1-.52c-.76,0-1.24.5-1.34,1.44ZM5.73,131.15A2.55,2.55,0,0,1,3.11,133c-1.66,0-2.72-1.2-2.72-3.06a2.79,2.79,0,0,1,2.78-3.09c1.7,0,2.65,1.15,2.66,3.24H1.77v.17c0,1.08.53,1.69,1.42,1.69a1.28,1.28,0,0,0,1.33-1Zm-1.28-1.93a1.44,1.44,0,0,0-.3-.92,1.24,1.24,0,0,0-1-.52c-.76,0-1.24.5-1.34,1.44Zm5.05,3.66H8.39L6.34,127H7.73l1.38,4,1.36-4h1Zm3-6.61v-1.39h1.33v1.39Zm0,6.61V127h1.33v5.91Zm3.12,0v-8H17v8Zm12.44,0h-.64L27,131.8a2.32,2.32,0,0,1-2.16,1.2,2.76,2.76,0,0,1-2.43-1.22,5.25,5.25,0,0,1-.82-2.91,4.83,4.83,0,0,1,.88-2.88A3,3,0,0,1,25,124.76a2.8,2.8,0,0,1,2.29,1,2.85,2.85,0,0,1,.68,1.43l-1.26.22a2,2,0,0,0-.36-.85,1.74,1.74,0,0,0-2.69,0,3.37,3.37,0,0,0-.56,2.17c0,2,.65,3,1.9,3a1.64,1.64,0,0,0,1.56-1,1.61,1.61,0,0,0,.16-.84H25.09v-1.16h3Zm5.48,0a5.21,5.21,0,0,1-.2-1.2,2,2,0,0,1-2,1.32,1.8,1.8,0,0,1-2-1.81c0-.92.59-1.56,1.7-1.83a8.7,8.7,0,0,1,2.25-.2v-.44c0-.61-.42-.91-1.26-.91s-1.22.28-1.37.91l-1.14-.17a1.63,1.63,0,0,1,.78-1.22,3.15,3.15,0,0,1,1.89-.47,2.5,2.5,0,0,1,2,.65c.3.34.37.66.37,1.52v2.66a4.09,4.09,0,0,0,.18,1.2Zm-.2-3c-1.7,0-2.59.42-2.59,1.24,0,.55.4.89,1,.89a1.48,1.48,0,0,0,1.55-1.58Zm3.08,3v-8H37.8v8Zm6.9,0a5.21,5.21,0,0,1-.2-1.2,2,2,0,0,1-2,1.32,1.8,1.8,0,0,1-2-1.81c0-.92.59-1.56,1.7-1.83a8.7,8.7,0,0,1,2.25-.2v-.44c0-.61-.42-.91-1.26-.91s-1.22.28-1.37.91l-1.14-.17a1.63,1.63,0,0,1,.78-1.22,3.15,3.15,0,0,1,1.89-.47,2.5,2.5,0,0,1,2,.65c.3.34.37.66.37,1.52v2.66a4.09,4.09,0,0,0,.18,1.2Zm-.2-3c-1.7,0-2.59.42-2.59,1.24,0,.55.4.89,1,.89a1.48,1.48,0,0,0,1.55-1.58Zm7.64,1a2.9,2.9,0,0,1-.55,1.31,2.26,2.26,0,0,1-1.87.86c-1.51,0-2.52-1.24-2.52-3.07s1.07-3.08,2.64-3.08a2.22,2.22,0,0,1,1.76.74,2.31,2.31,0,0,1,.54,1.29l-1.15.16c-.1-.73-.47-1.1-1.08-1.1-.82,0-1.29.76-1.29,2s.46,1.86,1.21,1.86c.59,0,1-.38,1.16-1.13Zm4,2.05a5,5,0,0,1-.94.13,1.8,1.8,0,0,1-1.26-.47c-.31-.31-.41-.67-.41-1.47V128h-.73v-1h.82l.12-1.54,1.09-.1V127h1.2v1h-1.2v2.88c0,.74.22,1,1,1h.34Zm1.2-6.61v-1.39h1.33v1.39Zm0,6.61V127h1.33v5.91Zm7.68-2.05a2.9,2.9,0,0,1-.55,1.31,2.26,2.26,0,0,1-1.87.86c-1.51,0-2.52-1.24-2.52-3.07s1.07-3.08,2.64-3.08a2.22,2.22,0,0,1,1.76.74,2.31,2.31,0,0,1,.54,1.29l-1.15.16c-.1-.73-.47-1.1-1.08-1.1-.82,0-1.29.76-1.29,2s.46,1.86,1.21,1.86c.59,0,1-.38,1.16-1.13Zm4.47,2.05v-8h5.14v1.19H69.61v2.17h3v1.16h-3v2.24h3.75v1.24Zm14,0V129.2c0-.76-.35-1.14-1-1.14-.83,0-1.29.62-1.29,1.71v3.11H78.43V129.2a1.24,1.24,0,0,0-.13-.71.91.91,0,0,0-.83-.46c-.8,0-1.37.72-1.37,1.74v3.11H74.72V127H76v1.26a2.74,2.74,0,0,1,.65-.92,2,2,0,0,1,1.32-.46,1.65,1.65,0,0,1,1.7,1.38,2.17,2.17,0,0,1,2-1.38,1.8,1.8,0,0,1,1.89,1.85v4.19Zm3.13,2V127h1.28v1a1.9,1.9,0,0,1,1.8-1.15,1.73,1.73,0,0,1,1.51.78,3.88,3.88,0,0,1,.63,2.25,4,4,0,0,1-.7,2.39,1.78,1.78,0,0,1-1.55.73,1.72,1.72,0,0,1-1.63-.95v2.83Zm1.36-4.43a1.35,1.35,0,0,0,1.28,1.49c.73,0,1.17-.73,1.17-2s-.43-2-1.19-2-1.27.71-1.27,1.68Zm5.28-4.19v-1.39h1.33v1.39Zm0,6.61V127h1.33v5.91Zm3.12,0V127h1.21v1.42c.28-1,1-1.64,1.8-1.58v1.44h-.31c-.79,0-1.34.79-1.37,1.9v2.73Zm9-1.73a2.55,2.55,0,0,1-2.63,1.85c-1.66,0-2.72-1.2-2.72-3.06a2.79,2.79,0,0,1,2.78-3.09c1.7,0,2.65,1.15,2.66,3.24h-4.05v.17c0,1.08.53,1.69,1.42,1.69a1.28,1.28,0,0,0,1.33-1Zm-1.28-1.93a1.44,1.44,0,0,0-.3-.92,1.24,1.24,0,0,0-1-.52c-.76,0-1.24.5-1.34,1.44Zm4.11,3.66h-1.45v-1.54h1.45ZM.8,153.68H3.74a3.18,3.18,0,0,1,2.47,1,4.17,4.17,0,0,1,1.14,3A4.07,4.07,0,0,1,6,160.89a3.89,3.89,0,0,1-2.55.79H.8Zm2.67,6.82c1.4,0,2.32-1.13,2.32-2.87s-.89-2.82-2.15-2.82H2.28v5.68Zm9,1.18V160.4a1.77,1.77,0,0,1-.62,1,1.9,1.9,0,0,1-1.25.43,1.66,1.66,0,0,1-1.45-.72,1.9,1.9,0,0,1-.3-1.18v-4.14h1.37v3.85a1.29,1.29,0,0,0,.12.65.86.86,0,0,0,.72.4,1.32,1.32,0,0,0,1.15-.83,2.92,2.92,0,0,0,.18-1.22v-2.84h1.33v5.91Zm3,0v-5.91h1.21v1.42c.28-1,1-1.64,1.8-1.58V157h-.31c-.79,0-1.34.79-1.37,1.9v2.73Zm4.09-6.61v-1.39h1.33v1.39Zm0,6.61v-5.91h1.33v5.91Zm6.68,0V158c0-.72-.36-1.17-.92-1.17a1.27,1.27,0,0,0-1.09.73,2.45,2.45,0,0,0-.22,1.1v3H22.67v-5.91h1.21v1.37c.49-1.07,1-1.49,1.81-1.49a1.85,1.85,0,0,1,1.62.88,2.77,2.77,0,0,1,.25,1.34v3.81Zm8.44-6h-.41c-.5,0-.65.1-.86.48a1.57,1.57,0,0,1,.7,1.28c0,1.06-1,1.81-2.39,1.81a4.37,4.37,0,0,1-1.12-.16c-.3.16-.41.3-.41.56s.31.6.8.6h1.76c1.15,0,1.93.66,1.93,1.62,0,1.2-1.18,1.94-3.08,1.94s-2.87-.54-2.87-1.61c0-.56.22-.86.86-1.2-.42-.37-.55-.6-.55-1,0-.54.26-.89.95-1.24a1.48,1.48,0,0,1-.83-1.36,1.57,1.57,0,0,1,.52-1.17,2.65,2.65,0,0,1,1.94-.61,5,5,0,0,1,1.13.12,1.32,1.32,0,0,1,1.42-1.13h.5Zm-3.54,5.84a2.91,2.91,0,0,1-1-.14c-.22.2-.29.32-.29.52,0,.62.77,1,2,1,1,0,1.55-.28,1.55-.79,0-.36-.35-.6-.89-.6Zm-.59-4a1,1,0,0,0,1.09,1c.67,0,1.09-.36,1.09-.94a1,1,0,0,0-1.07-1A1,1,0,0,0,30.54,157.47Zm10.93,4.21a5,5,0,0,1-.94.13,1.8,1.8,0,0,1-1.26-.47c-.31-.31-.41-.67-.41-1.47v-3.06h-.73v-1H39l.12-1.54,1.09-.1v1.63h1.2v1h-1.2v2.88c0,.74.22,1,1,1h.34Zm4.78,0v-3.87c0-.74-.32-1.14-.91-1.14a1.25,1.25,0,0,0-1.08.65,2.68,2.68,0,0,0-.25,1.29v3.07H42.68v-8H44v3.12a1.77,1.77,0,0,1,1.76-1.28,1.66,1.66,0,0,1,1.52.76,2.38,2.38,0,0,1,.29,1.34v4.07ZM54.33,160a2.55,2.55,0,0,1-2.63,1.85c-1.66,0-2.72-1.2-2.72-3.06a2.79,2.79,0,0,1,2.78-3.09c1.7,0,2.65,1.15,2.66,3.24H50.37v.17c0,1.08.53,1.69,1.42,1.69a1.28,1.28,0,0,0,1.33-1ZM53,158a1.44,1.44,0,0,0-.3-.92,1.24,1.24,0,0,0-1-.52c-.76,0-1.24.5-1.34,1.44Zm5.86,3.66v-8h1.33v2.89c.49-.83.89-1.08,1.64-1.08,1.35,0,2.25,1.24,2.25,3.12a3.82,3.82,0,0,1-.68,2.33,2,2,0,0,1-1.77.86,1.93,1.93,0,0,1-1.81-1.09l-.36,1Zm1.33-2.53c0,1,.44,1.56,1.22,1.56a1,1,0,0,0,.95-.53,2.93,2.93,0,0,0,.32-1.62,2.53,2.53,0,0,0-.35-1.46,1.06,1.06,0,0,0-.89-.46c-.77,0-1.26.64-1.26,1.63Zm9.08,2.53a5.21,5.21,0,0,1-.2-1.2,2,2,0,0,1-2,1.32,1.8,1.8,0,0,1-2-1.81c0-.92.59-1.56,1.7-1.83a8.7,8.7,0,0,1,2.25-.2v-.44c0-.61-.42-.91-1.26-.91s-1.22.28-1.37.91l-1.14-.17a1.63,1.63,0,0,1,.78-1.22,3.15,3.15,0,0,1,1.89-.47,2.5,2.5,0,0,1,2,.65c.3.34.37.66.37,1.52v2.66a4.09,4.09,0,0,0,.18,1.2Zm-.2-3c-1.7,0-2.59.42-2.59,1.24,0,.55.4.89,1,.89a1.48,1.48,0,0,0,1.55-1.58Zm5.74,3a5,5,0,0,1-.94.13,1.8,1.8,0,0,1-1.26-.47c-.31-.31-.41-.67-.41-1.47v-3.06h-.73v-1h.82l.12-1.54,1.09-.1v1.63h1.2v1h-1.2v2.88c0,.74.22,1,1,1h.34Zm4.14,0a5,5,0,0,1-.94.13,1.8,1.8,0,0,1-1.26-.47c-.31-.31-.41-.67-.41-1.47v-3.06h-.73v-1h.82l.12-1.54,1.09-.1v1.63h1.2v1h-1.2v2.88c0,.74.22,1,1,1H79Zm1.31,0v-8h1.33v8ZM88.38,160a2.55,2.55,0,0,1-2.63,1.85c-1.66,0-2.72-1.2-2.72-3.06a2.79,2.79,0,0,1,2.78-3.09c1.7,0,2.65,1.15,2.66,3.24H84.43v.17c0,1.08.53,1.69,1.42,1.69a1.28,1.28,0,0,0,1.33-1ZM87.1,158a1.44,1.44,0,0,0-.3-.92,1.24,1.24,0,0,0-1-.52c-.76,0-1.24.5-1.34,1.44Zm4.11,3.5-.94,1.87h-.52l.7-1.71h-.7v-1.5h1.45Zm9.57.16-1.25-3.29h-2v3.29H96.06v-8h3.47a2.94,2.94,0,0,1,2.09.62,2.2,2.2,0,0,1,.72,1.73,2.11,2.11,0,0,1-1.44,2.12l1.4,3.53Zm-1.48-4.44c1,0,1.54-.44,1.54-1.24s-.54-1.18-1.42-1.18H97.5v2.41ZM108.7,160a2.55,2.55,0,0,1-2.63,1.85c-1.66,0-2.72-1.2-2.72-3.06a2.79,2.79,0,0,1,2.78-3.09c1.7,0,2.65,1.15,2.66,3.24h-4.05v.17c0,1.08.53,1.69,1.42,1.69a1.28,1.28,0,0,0,1.33-1ZM107.42,158a1.44,1.44,0,0,0-.3-.92,1.24,1.24,0,0,0-1-.52c-.76,0-1.24.5-1.34,1.44Zm2.75,3.66v-8h1.33v2.89c.49-.83.89-1.08,1.64-1.08,1.35,0,2.25,1.24,2.25,3.12a3.82,3.82,0,0,1-.68,2.33,2,2,0,0,1-1.77.86,1.93,1.93,0,0,1-1.81-1.09l-.36,1Zm1.33-2.53c0,1,.44,1.56,1.22,1.56a1,1,0,0,0,.95-.53,2.93,2.93,0,0,0,.32-1.62,2.53,2.53,0,0,0-.35-1.46,1.06,1.06,0,0,0-.89-.46c-.77,0-1.26.64-1.26,1.63Zm10.27.8a2.55,2.55,0,0,1-2.63,1.85c-1.66,0-2.72-1.2-2.72-3.06a2.79,2.79,0,0,1,2.78-3.09c1.7,0,2.65,1.15,2.66,3.24h-4.05v.17c0,1.08.53,1.69,1.42,1.69a1.28,1.28,0,0,0,1.33-1ZM120.49,158a1.44,1.44,0,0,0-.3-.92,1.24,1.24,0,0,0-1-.52c-.76,0-1.24.5-1.34,1.44Zm2.75,3.66v-8h1.33v8Zm6.72-1.59a1.2,1.2,0,0,0,1.31.72c.76,0,1.2-.26,1.2-.73,0-.29-.25-.52-.65-.59l-1.08-.22c-1.22-.23-1.79-.78-1.79-1.74a1.82,1.82,0,0,1,.47-1.24,2.29,2.29,0,0,1,1.81-.65,2.09,2.09,0,0,1,2.28,1.37l-1.2.25c-.16-.48-.47-.67-1.08-.67s-1,.25-1,.64.25.55.85.67l1.27.26a1.63,1.63,0,0,1,1.49,1.71c0,1.17-1,1.92-2.58,1.92a3.17,3.17,0,0,1-1.9-.55,1.62,1.62,0,0,1-.61-.92Zm5.1,3.6v-7.92h1.28v1a1.9,1.9,0,0,1,1.8-1.15,1.73,1.73,0,0,1,1.51.78,3.88,3.88,0,0,1,.63,2.25,4,4,0,0,1-.7,2.39,1.78,1.78,0,0,1-1.55.73,1.72,1.72,0,0,1-1.63-.95v2.83Zm1.36-4.43a1.35,1.35,0,0,0,1.28,1.49c.73,0,1.17-.73,1.17-2s-.43-2-1.19-2-1.27.71-1.27,1.68Zm5.28-4.19v-1.39H143v1.39Zm0,6.61v-5.91H143v5.91Zm8.08-1.73a2.55,2.55,0,0,1-2.63,1.85c-1.66,0-2.72-1.2-2.72-3.06a2.79,2.79,0,0,1,2.78-3.09c1.7,0,2.65,1.15,2.66,3.24h-4.05v.17c0,1.08.53,1.69,1.42,1.69a1.28,1.28,0,0,0,1.33-1ZM148.5,158a1.44,1.44,0,0,0-.3-.92,1.24,1.24,0,0,0-1-.52c-.76,0-1.24.5-1.34,1.44Zm3.35,2.06a1.2,1.2,0,0,0,1.31.72c.76,0,1.2-.26,1.2-.73,0-.29-.25-.52-.65-.59l-1.08-.22c-1.22-.23-1.79-.78-1.79-1.74a1.82,1.82,0,0,1,.47-1.24,2.29,2.29,0,0,1,1.81-.65A2.09,2.09,0,0,1,155.4,157l-1.2.25c-.16-.48-.47-.67-1.08-.67s-1,.25-1,.64.25.55.85.67l1.27.26a1.63,1.63,0,0,1,1.49,1.71c0,1.17-1,1.92-2.58,1.92a3.17,3.17,0,0,1-1.9-.55,1.62,1.62,0,0,1-.61-.92ZM8.2,176.08V172.4c0-.76-.35-1.14-1-1.14-.83,0-1.29.62-1.29,1.71v3.11H4.47V172.4a1.24,1.24,0,0,0-.13-.71.91.91,0,0,0-.83-.46c-.8,0-1.37.72-1.37,1.74v3.11H.77v-5.91H2.06v1.26a2.74,2.74,0,0,1,.65-.92A2,2,0,0,1,4,170.05a1.65,1.65,0,0,1,1.7,1.38,2.17,2.17,0,0,1,2-1.38,1.8,1.8,0,0,1,1.89,1.85v4.19Zm7,0a5.26,5.26,0,0,1-.2-1.2,2,2,0,0,1-2,1.32,1.8,1.8,0,0,1-2-1.81c0-.92.59-1.56,1.7-1.83a8.7,8.7,0,0,1,2.25-.2v-.44c0-.61-.42-.91-1.26-.91s-1.22.28-1.37.91l-1.14-.17a1.63,1.63,0,0,1,.78-1.22,3.15,3.15,0,0,1,1.89-.47,2.5,2.5,0,0,1,2,.65c.3.34.37.66.37,1.52v2.66a4.09,4.09,0,0,0,.18,1.2Zm-.2-3c-1.7,0-2.59.42-2.59,1.24,0,.55.4.89,1,.89A1.48,1.48,0,0,0,15,173.61Zm6.65,3v-3.69c0-.72-.36-1.17-.92-1.17a1.27,1.27,0,0,0-1.09.73,2.45,2.45,0,0,0-.22,1.1v3H18v-5.91h1.21v1.37c.49-1.07,1-1.49,1.81-1.49a1.85,1.85,0,0,1,1.62.88,2.77,2.77,0,0,1,.25,1.34v3.81Zm6.89,0a5.26,5.26,0,0,1-.2-1.2,2,2,0,0,1-2,1.32,1.8,1.8,0,0,1-2-1.81c0-.92.59-1.56,1.7-1.83a8.7,8.7,0,0,1,2.25-.2v-.44c0-.61-.42-.91-1.26-.91s-1.22.28-1.37.91l-1.14-.17a1.63,1.63,0,0,1,.78-1.22,3.15,3.15,0,0,1,1.89-.47,2.5,2.5,0,0,1,2,.65c.3.34.37.66.37,1.52v2.66a4.09,4.09,0,0,0,.18,1.2Zm-.2-3c-1.7,0-2.59.42-2.59,1.24,0,.55.4.89,1,.89a1.48,1.48,0,0,0,1.55-1.58Zm8.43-3h-.41c-.5,0-.65.1-.86.48a1.57,1.57,0,0,1,.7,1.28c0,1.06-1,1.81-2.39,1.81a4.37,4.37,0,0,1-1.12-.16c-.3.16-.41.3-.41.56s.31.6.8.6h1.76c1.15,0,1.93.66,1.93,1.62,0,1.2-1.18,1.94-3.08,1.94s-2.87-.54-2.87-1.61c0-.56.22-.86.86-1.2-.42-.37-.55-.6-.55-1,0-.54.26-.89.95-1.24a1.48,1.48,0,0,1-.83-1.36,1.57,1.57,0,0,1,.52-1.17,2.65,2.65,0,0,1,1.94-.61,5,5,0,0,1,1.13.12A1.32,1.32,0,0,1,36.22,169h.5Zm-3.54,5.84a2.91,2.91,0,0,1-1-.14c-.22.2-.29.32-.29.52,0,.62.77,1,2,1,1,0,1.55-.28,1.55-.79,0-.36-.35-.6-.89-.6Zm-.59-4a1,1,0,0,0,1.09,1c.67,0,1.09-.36,1.09-.94a1,1,0,0,0-1.07-1A1,1,0,0,0,32.6,171.87Zm10,2.48A2.55,2.55,0,0,1,40,176.2c-1.66,0-2.72-1.2-2.72-3.06A2.79,2.79,0,0,1,40,170.05c1.7,0,2.65,1.15,2.66,3.24H38.64v.17c0,1.08.53,1.69,1.42,1.69a1.28,1.28,0,0,0,1.33-1Zm-1.28-1.93a1.44,1.44,0,0,0-.3-.92,1.24,1.24,0,0,0-1-.52c-.76,0-1.24.5-1.34,1.44Zm6.4,3.66V174.9A1.76,1.76,0,0,1,46,176.2a1.94,1.94,0,0,1-1.58-.76,4.33,4.33,0,0,1-.67-2.4,3.77,3.77,0,0,1,.83-2.47,1.88,1.88,0,0,1,1.5-.65,1.6,1.6,0,0,1,1.58,1v-2.89H49v8Zm-.08-3.49a1.51,1.51,0,0,0-.31-1.08,1.17,1.17,0,0,0-.91-.44c-.82,0-1.27.73-1.27,2.05s.43,2,1.24,2a1.38,1.38,0,0,0,1.26-1.51Zm18.43,3.49a5,5,0,0,1-.94.13,1.8,1.8,0,0,1-1.26-.47c-.31-.31-.41-.67-.41-1.47v-3.06h-.73v-1h.82l.12-1.54,1.09-.1v1.63h1.2v1h-1.2v2.88c0,.74.22,1,1,1h.34Zm5.75-4.82a3.27,3.27,0,0,1,.49,1.87,2.82,2.82,0,0,1-2.81,3.07,2.4,2.4,0,0,1-2.11-1.09,3.45,3.45,0,0,1-.59-2,2.8,2.8,0,0,1,2.77-3.06A2.46,2.46,0,0,1,71.8,171.26Zm-3.6,1.86c0,1.27.48,2,1.33,2s1.34-.72,1.34-2-.47-2-1.32-2S68.21,171.85,68.21,173.12Zm18.61,1.37a1.2,1.2,0,0,0,1.31.72c.76,0,1.2-.26,1.2-.73,0-.29-.25-.52-.65-.59l-1.08-.22c-1.22-.23-1.79-.78-1.79-1.74a1.82,1.82,0,0,1,.47-1.24,2.29,2.29,0,0,1,1.81-.65,2.09,2.09,0,0,1,2.28,1.37l-1.2.25c-.16-.48-.47-.67-1.08-.67s-1,.25-1,.64.25.55.85.67l1.27.26a1.63,1.63,0,0,1,1.49,1.71c0,1.17-1,1.92-2.58,1.92a3.17,3.17,0,0,1-1.9-.55,1.62,1.62,0,0,1-.61-.92Zm7.82,1.59a5,5,0,0,1-.94.13,1.8,1.8,0,0,1-1.26-.47c-.31-.31-.41-.67-.41-1.47v-3.06h-.73v-1h.82l.12-1.54,1.09-.1v1.63h1.2v1h-1.2v2.88c0,.74.22,1,1,1h.34Zm6.11-1.73a2.55,2.55,0,0,1-2.63,1.85c-1.66,0-2.72-1.2-2.72-3.06a2.79,2.79,0,0,1,2.78-3.09c1.7,0,2.65,1.15,2.66,3.24H96.79v.17c0,1.08.53,1.69,1.42,1.69a1.28,1.28,0,0,0,1.33-1Zm-1.28-1.93a1.44,1.44,0,0,0-.3-.92,1.24,1.24,0,0,0-1-.52c-.76,0-1.24.5-1.34,1.44Zm6.52,3.66a5.21,5.21,0,0,1-.2-1.2,2,2,0,0,1-2,1.32,1.8,1.8,0,0,1-2-1.81c0-.92.59-1.56,1.7-1.83a8.7,8.7,0,0,1,2.25-.2v-.44c0-.61-.42-.91-1.26-.91s-1.22.28-1.37.91l-1.14-.17a1.63,1.63,0,0,1,.78-1.22,3.15,3.15,0,0,1,1.89-.47,2.5,2.5,0,0,1,2,.65c.3.34.37.66.37,1.52v2.66a4.09,4.09,0,0,0,.18,1.2Zm-.2-3c-1.7,0-2.59.42-2.59,1.24,0,.55.4.89,1,.89a1.48,1.48,0,0,0,1.55-1.58Zm3.08,3v-8h1.33v8Zm16.24-1.59a1.2,1.2,0,0,0,1.31.72c.76,0,1.2-.26,1.2-.73,0-.29-.25-.52-.65-.59l-1.08-.22c-1.22-.23-1.79-.78-1.79-1.74a1.82,1.82,0,0,1,.47-1.24,2.29,2.29,0,0,1,1.81-.65,2.09,2.09,0,0,1,2.28,1.37l-1.2.25c-.16-.48-.47-.67-1.08-.67s-1,.25-1,.64.25.55.85.67l1.27.26a1.63,1.63,0,0,1,1.49,1.71c0,1.17-1,1.92-2.58,1.92a3.17,3.17,0,0,1-1.9-.55,1.62,1.62,0,0,1-.61-.92Zm10.07-.13a2.55,2.55,0,0,1-2.63,1.85c-1.66,0-2.72-1.2-2.72-3.06a2.79,2.79,0,0,1,2.78-3.09c1.7,0,2.65,1.15,2.66,3.24h-4.05v.17c0,1.08.53,1.69,1.42,1.69a1.28,1.28,0,0,0,1.33-1Zm-1.28-1.93a1.44,1.44,0,0,0-.3-.92,1.24,1.24,0,0,0-1-.52c-.76,0-1.24.5-1.34,1.44Zm7.34,1.61a2.9,2.9,0,0,1-.55,1.31,2.26,2.26,0,0,1-1.87.86c-1.51,0-2.52-1.24-2.52-3.07s1.07-3.08,2.64-3.08a2.22,2.22,0,0,1,1.76.74,2.31,2.31,0,0,1,.54,1.29l-1.15.16c-.1-.73-.47-1.1-1.08-1.1-.82,0-1.29.76-1.29,2s.46,1.86,1.21,1.86c.59,0,1-.38,1.16-1.13Zm1.21,2.05v-5.91h1.21v1.42c.28-1,1-1.64,1.8-1.58v1.44h-.31c-.79,0-1.34.79-1.37,1.9v2.73Zm9-1.73a2.55,2.55,0,0,1-2.63,1.85c-1.66,0-2.72-1.2-2.72-3.06a2.79,2.79,0,0,1,2.78-3.09c1.7,0,2.65,1.15,2.66,3.24h-4.05v.17c0,1.08.53,1.69,1.42,1.69a1.28,1.28,0,0,0,1.33-1Zm-1.28-1.93a1.44,1.44,0,0,0-.3-.92,1.24,1.24,0,0,0-1-.52c-.76,0-1.24.5-1.34,1.44Zm5.44,3.66a5,5,0,0,1-.94.13,1.8,1.8,0,0,1-1.26-.47c-.31-.31-.41-.67-.41-1.47v-3.06h-.73v-1h.82l.12-1.54,1.09-.1v1.63h1.2v1h-1.2v2.88c0,.74.22,1,1,1h.34ZM.77,192.49v-7.92H2.05v1a1.9,1.9,0,0,1,1.8-1.15,1.73,1.73,0,0,1,1.51.78A3.88,3.88,0,0,1,6,187.48a4,4,0,0,1-.7,2.39,1.78,1.78,0,0,1-1.55.73,1.72,1.72,0,0,1-1.63-.95v2.83Zm1.36-4.43a1.35,1.35,0,0,0,1.28,1.49c.73,0,1.17-.73,1.17-2s-.43-2-1.19-2-1.27.71-1.27,1.68Zm5.28,2.42v-8H8.73v8Zm6.9,0a5.21,5.21,0,0,1-.2-1.2,2,2,0,0,1-2,1.32,1.8,1.8,0,0,1-2-1.81c0-.92.59-1.56,1.7-1.83a8.7,8.7,0,0,1,2.25-.2v-.44c0-.61-.42-.91-1.26-.91s-1.22.28-1.37.91l-1.14-.17a1.63,1.63,0,0,1,.78-1.22,3.15,3.15,0,0,1,1.89-.47,2.5,2.5,0,0,1,2,.65c.3.34.37.66.37,1.52v2.66a4.09,4.09,0,0,0,.18,1.2Zm-.2-3c-1.7,0-2.59.42-2.59,1.24,0,.55.4.89,1,.89A1.48,1.48,0,0,0,14.1,188Zm6.65,3v-3.69c0-.72-.36-1.17-.92-1.17a1.27,1.27,0,0,0-1.09.73,2.45,2.45,0,0,0-.22,1.1v3H17.18v-5.91h1.21v1.37c.49-1.07,1-1.49,1.81-1.49a1.85,1.85,0,0,1,1.62.88,2.77,2.77,0,0,1,.25,1.34v3.81Zm3.64-1.59a1.2,1.2,0,0,0,1.31.72c.76,0,1.2-.26,1.2-.73,0-.29-.25-.52-.65-.59l-1.08-.22c-1.22-.23-1.79-.78-1.79-1.74a1.82,1.82,0,0,1,.47-1.24,2.29,2.29,0,0,1,1.81-.65,2.09,2.09,0,0,1,2.28,1.37l-1.2.25c-.16-.48-.47-.67-1.08-.67s-1,.25-1,.64.25.55.85.67l1.27.26a1.63,1.63,0,0,1,1.49,1.71c0,1.17-1,1.92-2.58,1.92a3.17,3.17,0,0,1-1.9-.55,1.62,1.62,0,0,1-.61-.92Zm25.88,1.59a5,5,0,0,1-.94.13,1.8,1.8,0,0,1-1.26-.47c-.31-.31-.41-.67-.41-1.47v-3.06h-.73v-1h.82l.12-1.54,1.09-.1v1.63h1.2v1H49v2.88c0,.74.22,1,1,1h.34ZM56,185.66a3.27,3.27,0,0,1,.49,1.87,2.82,2.82,0,0,1-2.81,3.07,2.4,2.4,0,0,1-2.11-1.09,3.45,3.45,0,0,1-.59-2,2.8,2.8,0,0,1,2.77-3.06A2.46,2.46,0,0,1,56,185.66Zm-3.6,1.86c0,1.27.48,2,1.33,2s1.34-.72,1.34-2-.47-2-1.32-2S52.41,186.25,52.41,187.52Zm26.27,3a5,5,0,0,1-.94.13,1.8,1.8,0,0,1-1.26-.47c-.31-.31-.41-.67-.41-1.47v-3.06h-.73v-1h.82l.12-1.54,1.09-.1v1.63h1.2v1h-1.2v2.88c0,.74.22,1,1,1h.34Zm4.78,0v-3.87c0-.74-.32-1.14-.91-1.14a1.25,1.25,0,0,0-1.08.65,2.68,2.68,0,0,0-.25,1.29v3.07H79.88v-8h1.33v3.12A1.77,1.77,0,0,1,83,184.32a1.66,1.66,0,0,1,1.52.76,2.38,2.38,0,0,1,.29,1.34v4.07Zm8.08-1.73a2.55,2.55,0,0,1-2.63,1.85c-1.66,0-2.72-1.2-2.72-3.06A2.79,2.79,0,0,1,89,184.45c1.7,0,2.65,1.15,2.66,3.24H87.57v.17c0,1.08.53,1.69,1.42,1.69a1.28,1.28,0,0,0,1.33-1Zm-1.28-1.93a1.44,1.44,0,0,0-.3-.92,1.24,1.24,0,0,0-1-.52c-.76,0-1.24.5-1.34,1.44Zm20.9,3.66v-8h5.14v1.19h-3.71v2.17h3V187h-3v2.24h3.75v1.24Zm14,0V186.8c0-.76-.35-1.14-1-1.14-.83,0-1.29.62-1.29,1.71v3.11H121.4V186.8a1.24,1.24,0,0,0-.13-.71.91.91,0,0,0-.83-.46c-.8,0-1.37.72-1.37,1.74v3.11H117.7v-5.91H119v1.26a2.74,2.74,0,0,1,.65-.92,2,2,0,0,1,1.32-.46,1.65,1.65,0,0,1,1.7,1.38,2.17,2.17,0,0,1,2-1.38,1.8,1.8,0,0,1,1.89,1.85v4.19Zm3.14,2v-7.92h1.28v1a1.9,1.9,0,0,1,1.8-1.15,1.73,1.73,0,0,1,1.51.78,3.88,3.88,0,0,1,.63,2.25,4,4,0,0,1-.7,2.39,1.78,1.78,0,0,1-1.55.73,1.72,1.72,0,0,1-1.63-.95v2.83Zm1.36-4.43a1.35,1.35,0,0,0,1.28,1.49c.73,0,1.17-.73,1.17-2s-.43-2-1.19-2-1.27.71-1.27,1.68Zm5.28-4.19v-1.39h1.33v1.39Zm0,6.61v-5.91h1.33v5.91Zm3.12,0v-5.91h1.21V186c.28-1,1-1.64,1.8-1.58v1.44h-.31c-.79,0-1.34.79-1.37,1.9v2.73Zm9-1.73a2.55,2.55,0,0,1-2.63,1.85c-1.66,0-2.72-1.2-2.72-3.06a2.79,2.79,0,0,1,2.78-3.09c1.7,0,2.65,1.15,2.66,3.24h-4.05v.17c0,1.08.53,1.69,1.42,1.69a1.28,1.28,0,0,0,1.33-1Zm-1.28-1.93a1.44,1.44,0,0,0-.3-.92,1.24,1.24,0,0,0-1-.52c-.76,0-1.24.5-1.34,1.44Zm2.8-1.13-.19-3.21h1.31l-.19,3.21Zm3.26,3.19a1.2,1.2,0,0,0,1.31.72c.76,0,1.2-.26,1.2-.73,0-.29-.25-.52-.65-.59l-1.08-.22c-1.22-.23-1.79-.78-1.79-1.74a1.82,1.82,0,0,1,.47-1.24,2.29,2.29,0,0,1,1.81-.65,2.09,2.09,0,0,1,2.28,1.37l-1.2.25c-.16-.48-.47-.67-1.08-.67s-1,.25-1,.64.25.55.85.67l1.27.26a1.63,1.63,0,0,1,1.49,1.71c0,1.17-1,1.92-2.58,1.92a3.17,3.17,0,0,1-1.9-.55,1.62,1.62,0,0,1-.61-.92Zm-147.46,16V203.6a1.77,1.77,0,0,1-.62,1,1.9,1.9,0,0,1-1.25.43,1.66,1.66,0,0,1-1.45-.72,1.9,1.9,0,0,1-.3-1.18V199H2.13v3.85a1.29,1.29,0,0,0,.12.65.86.86,0,0,0,.72.4A1.32,1.32,0,0,0,4.13,203a2.92,2.92,0,0,0,.18-1.22V199H5.64v5.91Zm3,0v-8H8.75v8Zm5.86,0a5,5,0,0,1-.94.13,1.8,1.8,0,0,1-1.26-.47c-.31-.31-.41-.67-.41-1.47V200H9.94v-1h.82l.12-1.54,1.09-.1V199h1.2v1H12v2.88c0,.74.22,1,1,1h.34Zm1.2-6.61v-1.39H15.8v1.39Zm0,6.61V199H15.8v5.91Zm10.56,0V201.2c0-.76-.35-1.14-1-1.14-.83,0-1.29.62-1.29,1.71v3.11H21.3V201.2a1.24,1.24,0,0,0-.13-.71.91.91,0,0,0-.83-.46c-.8,0-1.37.72-1.37,1.74v3.11H17.59V199h1.29v1.26a2.74,2.74,0,0,1,.65-.92,2,2,0,0,1,1.32-.46,1.65,1.65,0,0,1,1.7,1.38,2.17,2.17,0,0,1,2-1.38,1.8,1.8,0,0,1,1.89,1.85v4.19Zm7,0a5.26,5.26,0,0,1-.2-1.2,2,2,0,0,1-2,1.32,1.8,1.8,0,0,1-2-1.81c0-.92.59-1.56,1.7-1.83a8.7,8.7,0,0,1,2.25-.2v-.44c0-.61-.42-.91-1.26-.91s-1.22.28-1.37.91L28,200.54a1.63,1.63,0,0,1,.78-1.22,3.15,3.15,0,0,1,1.89-.47,2.5,2.5,0,0,1,2,.65c.3.34.37.66.37,1.52v2.66a4.09,4.09,0,0,0,.18,1.2Zm-.2-3c-1.7,0-2.59.42-2.59,1.24,0,.55.4.89,1,.89a1.48,1.48,0,0,0,1.55-1.58Zm5.74,3a5,5,0,0,1-.94.13,1.8,1.8,0,0,1-1.26-.47c-.31-.31-.41-.67-.41-1.47V200h-.73v-1H35l.12-1.54,1.09-.1V199h1.2v1h-1.2v2.88c0,.74.22,1,1,1h.34Zm6.11-1.73A2.55,2.55,0,0,1,41,205c-1.66,0-2.72-1.2-2.72-3.06a2.79,2.79,0,0,1,2.78-3.09c1.7,0,2.65,1.15,2.66,3.24H39.67v.17c0,1.08.53,1.69,1.42,1.69a1.28,1.28,0,0,0,1.33-1Zm-1.28-1.93a1.44,1.44,0,0,0-.3-.92,1.24,1.24,0,0,0-1-.52c-.76,0-1.24.5-1.34,1.44Zm13.43,3.66h-1.2l-1.07-4.15-1.05,4.15H51.22L49.4,199h1.42L52,203l1-4h1.21l1,4,1.14-4h1.13Zm7.69-1.73A2.55,2.55,0,0,1,60.84,205c-1.66,0-2.72-1.2-2.72-3.06a2.79,2.79,0,0,1,2.78-3.09c1.7,0,2.65,1.15,2.66,3.24H59.51v.17c0,1.08.53,1.69,1.42,1.69a1.28,1.28,0,0,0,1.33-1Zm-1.28-1.93a1.44,1.44,0,0,0-.3-.92,1.24,1.24,0,0,0-1-.52c-.76,0-1.24.5-1.34,1.44Zm6.52,3.66a5.26,5.26,0,0,1-.2-1.2,2,2,0,0,1-2,1.32,1.8,1.8,0,0,1-2-1.81c0-.92.59-1.56,1.7-1.83a8.7,8.7,0,0,1,2.25-.2v-.44c0-.61-.42-.91-1.26-.91s-1.22.28-1.37.91l-1.14-.17a1.63,1.63,0,0,1,.78-1.22,3.15,3.15,0,0,1,1.89-.47,2.5,2.5,0,0,1,2,.65c.3.34.37.66.37,1.52v2.66a4.09,4.09,0,0,0,.18,1.2Zm-.2-3c-1.7,0-2.59.42-2.59,1.24,0,.55.4.89,1,.89a1.48,1.48,0,0,0,1.55-1.58Zm3.08,5V199h1.28v1a1.9,1.9,0,0,1,1.8-1.15,1.73,1.73,0,0,1,1.51.78,3.88,3.88,0,0,1,.63,2.25,4,4,0,0,1-.7,2.39,1.78,1.78,0,0,1-1.55.73,1.72,1.72,0,0,1-1.63-.95v2.83Zm1.36-4.43a1.35,1.35,0,0,0,1.28,1.49c.73,0,1.17-.73,1.17-2s-.43-2-1.19-2-1.27.71-1.27,1.68Zm9.91-2.4a3.27,3.27,0,0,1,.49,1.87A2.82,2.82,0,0,1,80.54,205a2.4,2.4,0,0,1-2.11-1.09,3.45,3.45,0,0,1-.59-2,2.8,2.8,0,0,1,2.77-3.06A2.46,2.46,0,0,1,82.85,200.06Zm-3.6,1.86c0,1.27.48,2,1.33,2s1.34-.72,1.34-2-.47-2-1.32-2S79.25,200.65,79.25,201.92Zm9.06,3v-3.69c0-.72-.36-1.17-.92-1.17a1.27,1.27,0,0,0-1.09.73,2.45,2.45,0,0,0-.22,1.1v3H84.75V199H86v1.37c.49-1.07,1-1.49,1.81-1.49a1.85,1.85,0,0,1,1.62.88,2.77,2.77,0,0,1,.25,1.34v3.81Zm4.48-.16-.94,1.87h-.52l.7-1.71h-.7v-1.5h1.45Zm9.39.16a5,5,0,0,1-.94.13,1.8,1.8,0,0,1-1.26-.47c-.31-.31-.41-.67-.41-1.47V200h-.73v-1h.82l.12-1.54,1.09-.1V199h1.2v1h-1.2v2.88c0,.74.22,1,1,1h.34Zm4.78,0V201c0-.74-.32-1.14-.91-1.14a1.25,1.25,0,0,0-1.08.65,2.68,2.68,0,0,0-.25,1.29v3.07h-1.33v-8h1.33V200a1.77,1.77,0,0,1,1.76-1.28,1.66,1.66,0,0,1,1.52.76,2.38,2.38,0,0,1,.29,1.34v4.07Zm8.07-1.73A2.55,2.55,0,0,1,112.4,205c-1.66,0-2.72-1.2-2.72-3.06a2.79,2.79,0,0,1,2.78-3.09c1.7,0,2.65,1.15,2.66,3.24h-4.05v.17c0,1.08.53,1.69,1.42,1.69a1.28,1.28,0,0,0,1.33-1Zm-1.28-1.93a1.44,1.44,0,0,0-.3-.92,1.24,1.24,0,0,0-1-.52c-.76,0-1.24.5-1.34,1.44Zm7.77-4.34h2.94a3.18,3.18,0,0,1,2.47,1,4.17,4.17,0,0,1,1.14,3,4.07,4.07,0,0,1-1.38,3.23,3.89,3.89,0,0,1-2.55.79h-2.61Zm2.67,6.82c1.4,0,2.32-1.13,2.32-2.87s-.89-2.82-2.15-2.82H123v5.68Zm5.35,1.18v-8h5.14v1.19H131v2.17h3v1.16h-3v2.24h3.75v1.24Zm11.59,0L140.5,203h-3.07l-.63,1.91h-1.22l2.65-8H140l2.69,8Zm-2.18-6.63-1.16,3.57h2.33Zm5.46,6.63v-6.76h-2.12v-1.24h5.79v1.24H146v6.76Zm9.24,0V201.4h-3.06v3.48h-1.44v-8h1.44v3.29h3.06v-3.29h1.44v8ZM1.39,217.05a1.3,1.3,0,0,0,.46.77,2.4,2.4,0,0,0,1.5.42c1,0,1.58-.43,1.58-1.13,0-.48-.32-.79-1-1l-1.54-.4a2.47,2.47,0,0,1-1.51-.82,2.18,2.18,0,0,1-.47-1.38c0-1.43,1.13-2.39,2.83-2.39a3.52,3.52,0,0,1,2.21.7,1.85,1.85,0,0,1,.67,1l-1.37.34a1.38,1.38,0,0,0-1.5-.9c-.83,0-1.37.38-1.37,1s.36.78,1.12,1l1.37.34a2.67,2.67,0,0,1,1.69,1,2.26,2.26,0,0,1,.38,1.29c0,1.52-1.26,2.51-3.19,2.51a3.85,3.85,0,0,1-2.46-.76,2.37,2.37,0,0,1-.8-1.29Zm7.76,2.23v-6.76H7v-1.24h5.79v1.24H10.7v6.76Zm8.83,0-.64-1.91H14.28l-.63,1.91H12.42l2.65-8h1.78l2.69,8Zm-2.18-6.63-1.16,3.57H17Zm9.59,6.63L24.14,216h-2v3.29H20.68v-8h3.47a2.94,2.94,0,0,1,2.09.62,2.2,2.2,0,0,1,.72,1.73,2.11,2.11,0,0,1-1.44,2.12l1.4,3.53Zm-1.48-4.44c1,0,1.54-.44,1.54-1.24s-.54-1.18-1.42-1.18H22.11v2.41Zm6,4.28L28.93,221h-.52l.7-1.71h-.7v-1.5h1.45Zm17.4.16a5.21,5.21,0,0,1-.2-1.2,2,2,0,0,1-2,1.32,1.8,1.8,0,0,1-2-1.81c0-.92.59-1.56,1.7-1.83a8.7,8.7,0,0,1,2.25-.2v-.44c0-.61-.42-.91-1.26-.91s-1.22.28-1.37.91l-1.14-.17a1.63,1.63,0,0,1,.78-1.22,3.15,3.15,0,0,1,1.89-.47,2.5,2.5,0,0,1,2,.65c.3.34.37.66.37,1.52v2.66a4.09,4.09,0,0,0,.18,1.2Zm-.2-3c-1.7,0-2.59.42-2.59,1.24,0,.55.4.89,1,.89a1.48,1.48,0,0,0,1.55-1.58Zm6.65,3v-3.69c0-.72-.36-1.17-.92-1.17a1.27,1.27,0,0,0-1.09.73,2.45,2.45,0,0,0-.22,1.1v3H50.15v-5.91h1.21v1.37c.49-1.07,1-1.49,1.81-1.49a1.85,1.85,0,0,1,1.62.88,2.77,2.77,0,0,1,.25,1.34v3.81Zm18.81,0a5.26,5.26,0,0,1-.2-1.2,2,2,0,0,1-2,1.32,1.8,1.8,0,0,1-2-1.81c0-.92.59-1.56,1.7-1.83a8.7,8.7,0,0,1,2.25-.2v-.44c0-.61-.42-.91-1.26-.91s-1.22.28-1.37.91l-1.14-.17a1.63,1.63,0,0,1,.78-1.22,3.15,3.15,0,0,1,1.89-.47,2.5,2.5,0,0,1,2,.65c.3.34.37.66.37,1.52v2.66a4.09,4.09,0,0,0,.18,1.2Zm-.2-3c-1.7,0-2.59.42-2.59,1.24,0,.55.4.89,1,.89a1.48,1.48,0,0,0,1.55-1.58Zm3.08,3v-5.91h1.21v1.42c.28-1,1-1.64,1.8-1.58v1.44H78.1c-.79,0-1.34.79-1.37,1.9v2.73Zm11.53,0V215.6c0-.76-.35-1.14-1-1.14-.83,0-1.29.62-1.29,1.71v3.11H83.2V215.6a1.24,1.24,0,0,0-.13-.71.91.91,0,0,0-.83-.46c-.8,0-1.37.72-1.37,1.74v3.11H79.5v-5.91h1.29v1.26a2.74,2.74,0,0,1,.65-.92,2,2,0,0,1,1.32-.46,1.65,1.65,0,0,1,1.7,1.38,2.17,2.17,0,0,1,2-1.38,1.8,1.8,0,0,1,1.89,1.85v4.19Zm7.81-4.82a3.27,3.27,0,0,1,.49,1.87,2.82,2.82,0,0,1-2.81,3.07,2.4,2.4,0,0,1-2.11-1.09,3.45,3.45,0,0,1-.59-2,2.8,2.8,0,0,1,2.77-3.06A2.46,2.46,0,0,1,94.74,214.46Zm-3.6,1.86c0,1.27.48,2,1.33,2s1.34-.72,1.34-2-.47-2-1.32-2S91.15,215,91.15,216.32Zm5.5,3v-5.91h1.21v1.42c.28-1,1-1.64,1.8-1.58v1.44h-.31c-.79,0-1.34.79-1.37,1.9v2.73Zm9-1.73a2.55,2.55,0,0,1-2.63,1.85c-1.66,0-2.72-1.2-2.72-3.06a2.79,2.79,0,0,1,2.78-3.09c1.7,0,2.65,1.15,2.66,3.24h-4.05v.17c0,1.08.53,1.69,1.42,1.69a1.28,1.28,0,0,0,1.33-1Zm-1.28-1.93a1.44,1.44,0,0,0-.3-.92,1.24,1.24,0,0,0-1-.52c-.76,0-1.24.5-1.34,1.44Zm6.4,3.66V218.1a1.76,1.76,0,0,1-1.74,1.31,1.94,1.94,0,0,1-1.58-.76,4.33,4.33,0,0,1-.67-2.4,3.77,3.77,0,0,1,.83-2.47,1.88,1.88,0,0,1,1.5-.65,1.6,1.6,0,0,1,1.58,1v-2.89H112v8Zm-.08-3.49a1.51,1.51,0,0,0-.31-1.08,1.17,1.17,0,0,0-.91-.44c-.82,0-1.27.73-1.27,2.05s.43,2,1.24,2a1.38,1.38,0,0,0,1.26-1.51Zm15.56,1.9a1.2,1.2,0,0,0,1.31.72c.76,0,1.2-.26,1.2-.73,0-.29-.25-.52-.65-.59l-1.08-.22c-1.22-.23-1.79-.78-1.79-1.74a1.82,1.82,0,0,1,.47-1.24,2.29,2.29,0,0,1,1.81-.65,2.09,2.09,0,0,1,2.28,1.37l-1.2.25c-.16-.48-.47-.67-1.08-.67s-1,.25-1,.64.25.55.85.67l1.27.26a1.63,1.63,0,0,1,1.49,1.71c0,1.17-1,1.92-2.58,1.92a3.17,3.17,0,0,1-1.9-.55,1.62,1.62,0,0,1-.61-.92Zm5.1,3.6v-7.92h1.28v1a1.9,1.9,0,0,1,1.8-1.15A1.73,1.73,0,0,1,136,214a3.88,3.88,0,0,1,.63,2.25,4,4,0,0,1-.7,2.39,1.78,1.78,0,0,1-1.55.73,1.72,1.72,0,0,1-1.63-.95v2.83Zm1.36-4.43a1.35,1.35,0,0,0,1.28,1.49c.73,0,1.17-.73,1.17-2s-.43-2-1.19-2-1.27.71-1.27,1.68Zm9.06,2.42a5.21,5.21,0,0,1-.2-1.2,2,2,0,0,1-2,1.32,1.8,1.8,0,0,1-2-1.81c0-.92.59-1.56,1.7-1.83a8.7,8.7,0,0,1,2.25-.2v-.44c0-.61-.42-.91-1.26-.91s-1.22.28-1.37.91l-1.14-.17a1.63,1.63,0,0,1,.78-1.22,3.15,3.15,0,0,1,1.89-.47,2.5,2.5,0,0,1,2,.65c.3.34.37.66.37,1.52v2.66a4.09,4.09,0,0,0,.18,1.2Zm-.2-3c-1.7,0-2.59.42-2.59,1.24,0,.55.4.89,1,.89a1.48,1.48,0,0,0,1.55-1.58Zm7.64,1a2.9,2.9,0,0,1-.55,1.31,2.26,2.26,0,0,1-1.87.86c-1.51,0-2.52-1.24-2.52-3.07s1.07-3.08,2.64-3.08a2.22,2.22,0,0,1,1.76.74,2.31,2.31,0,0,1,.54,1.29l-1.15.16c-.1-.73-.47-1.1-1.08-1.1-.82,0-1.29.76-1.29,2s.46,1.86,1.21,1.86c.59,0,1-.38,1.16-1.13Zm6.22.32a2.55,2.55,0,0,1-2.63,1.85c-1.66,0-2.72-1.2-2.72-3.06a2.79,2.79,0,0,1,2.78-3.09c1.7,0,2.65,1.15,2.66,3.24h-4.05v.17c0,1.08.53,1.69,1.42,1.69a1.28,1.28,0,0,0,1.33-1Zm-1.28-1.93a1.44,1.44,0,0,0-.3-.92,1.24,1.24,0,0,0-1-.52c-.76,0-1.24.5-1.34,1.44ZM1.29,232.09a1.2,1.2,0,0,0,1.31.72c.76,0,1.2-.26,1.2-.73,0-.29-.25-.52-.65-.59l-1.08-.22C.85,231,.29,230.49.29,229.53a1.82,1.82,0,0,1,.47-1.24,2.29,2.29,0,0,1,1.81-.65A2.09,2.09,0,0,1,4.84,229l-1.2.25c-.16-.48-.47-.67-1.08-.67s-1,.25-1,.64.25.55.85.67l1.27.26a1.63,1.63,0,0,1,1.49,1.71c0,1.17-1,1.92-2.58,1.92a3.17,3.17,0,0,1-1.9-.55,1.62,1.62,0,0,1-.61-.92Zm7.82,1.59a5,5,0,0,1-.94.13,1.8,1.8,0,0,1-1.26-.47c-.31-.31-.41-.67-.41-1.47v-3.06H5.78v-1H6.6l.12-1.54,1.09-.1v1.63H9v1H7.81v2.88c0,.74.22,1,1,1h.34Zm5.09,0a5.21,5.21,0,0,1-.2-1.2,2,2,0,0,1-2,1.32A1.8,1.8,0,0,1,10,232c0-.92.59-1.56,1.7-1.83A8.7,8.7,0,0,1,14,230v-.44c0-.61-.42-.91-1.26-.91s-1.22.28-1.37.91l-1.14-.17a1.63,1.63,0,0,1,.78-1.22,3.15,3.15,0,0,1,1.89-.47,2.5,2.5,0,0,1,2,.65c.3.34.37.66.37,1.52v2.66a4.09,4.09,0,0,0,.18,1.2Zm-.2-3c-1.7,0-2.59.42-2.59,1.24,0,.55.4.89,1,.89A1.48,1.48,0,0,0,14,231.21Zm5.74,3a5,5,0,0,1-.94.13,1.8,1.8,0,0,1-1.26-.47c-.31-.31-.41-.67-.41-1.47v-3.06H16.4v-1h.82l.12-1.54,1.09-.1v1.63h1.2v1h-1.2v2.88c0,.74.22,1,1,1h.34Zm1.2-6.61v-1.39h1.33v1.39Zm0,6.61v-5.91h1.33v5.91Zm7.75-4.82a3.27,3.27,0,0,1,.49,1.87,2.82,2.82,0,0,1-2.81,3.07,2.4,2.4,0,0,1-2.11-1.09,3.45,3.45,0,0,1-.59-2,2.8,2.8,0,0,1,2.77-3.06A2.46,2.46,0,0,1,28.69,228.86Zm-3.6,1.86c0,1.27.48,2,1.33,2s1.34-.72,1.34-2-.47-2-1.32-2S25.09,229.45,25.09,230.72Zm9.06,3V230c0-.72-.36-1.17-.92-1.17a1.27,1.27,0,0,0-1.09.73,2.45,2.45,0,0,0-.22,1.1v3H30.59v-5.91H31.8v1.37c.49-1.07,1-1.49,1.81-1.49a1.85,1.85,0,0,1,1.62.88,2.77,2.77,0,0,1,.25,1.34v3.81Zm12.71,0h-1.2l-1.07-4.15-1.05,4.15H42.3l-1.82-5.91h1.42l1.18,4,1-4h1.21l1,4,1.14-4H48.6Zm2.8-6.61v-1.39H51v1.39Zm0,6.61v-5.91H51v5.91Zm5.85,0a5,5,0,0,1-.94.13,1.8,1.8,0,0,1-1.26-.47c-.31-.31-.41-.67-.41-1.47v-3.06h-.73v-1H53l.12-1.54,1.09-.1v1.63h1.2v1H54.2v2.88c0,.74.22,1,1,1h.34Zm4.78,0v-3.87c0-.74-.32-1.14-.91-1.14a1.25,1.25,0,0,0-1.08.65,2.68,2.68,0,0,0-.25,1.29v3.07H56.71v-8H58v3.12a1.77,1.77,0,0,1,1.76-1.28,1.66,1.66,0,0,1,1.52.76,2.38,2.38,0,0,1,.29,1.34v4.07Zm12-1.73a2.55,2.55,0,0,1-2.63,1.85c-1.66,0-2.72-1.2-2.72-3.06a2.79,2.79,0,0,1,2.78-3.09c1.7,0,2.65,1.15,2.66,3.24H68.3v.17c0,1.08.53,1.69,1.42,1.69a1.28,1.28,0,0,0,1.33-1ZM71,230a1.44,1.44,0,0,0-.3-.92,1.24,1.24,0,0,0-1-.52c-.76,0-1.24.5-1.34,1.44Zm6.35,3.66V230c0-.72-.36-1.17-.92-1.17a1.27,1.27,0,0,0-1.09.73,2.45,2.45,0,0,0-.22,1.1v3H73.77v-5.91H75v1.37c.49-1.07,1-1.49,1.81-1.49a1.85,1.85,0,0,1,1.62.88,2.77,2.77,0,0,1,.25,1.34v3.81Zm7.74-4.82a3.27,3.27,0,0,1,.49,1.87,2.82,2.82,0,0,1-2.81,3.07,2.4,2.4,0,0,1-2.11-1.09,3.45,3.45,0,0,1-.59-2,2.8,2.8,0,0,1,2.77-3.06A2.46,2.46,0,0,1,85.07,228.86Zm-3.6,1.86c0,1.27.48,2,1.33,2s1.34-.72,1.34-2-.47-2-1.32-2S81.47,229.45,81.47,230.72Zm9.12,3V232.4a1.77,1.77,0,0,1-.62,1,1.9,1.9,0,0,1-1.25.43,1.66,1.66,0,0,1-1.45-.72,1.9,1.9,0,0,1-.3-1.18v-4.14h1.37v3.85a1.29,1.29,0,0,0,.12.65.86.86,0,0,0,.72.4,1.32,1.32,0,0,0,1.15-.83,2.92,2.92,0,0,0,.18-1.22v-2.84h1.33v5.91Zm8.4-6h-.41c-.5,0-.65.1-.86.48a1.57,1.57,0,0,1,.7,1.28c0,1.06-1,1.81-2.39,1.81a4.37,4.37,0,0,1-1.12-.16c-.3.16-.41.3-.41.56s.31.6.8.6h1.76c1.15,0,1.93.66,1.93,1.62,0,1.2-1.18,1.94-3.08,1.94S93,235.27,93,234.2c0-.56.22-.86.86-1.2-.42-.37-.55-.6-.55-1,0-.54.26-.89.95-1.24a1.48,1.48,0,0,1-.83-1.36,1.57,1.57,0,0,1,.52-1.17,2.65,2.65,0,0,1,1.94-.61,5,5,0,0,1,1.13.12,1.32,1.32,0,0,1,1.42-1.13H99Zm-3.54,5.84a2.91,2.91,0,0,1-1-.14c-.22.2-.29.32-.29.52,0,.62.77,1,2,1,1,0,1.55-.28,1.55-.79,0-.36-.35-.6-.89-.6Zm-.59-4a1,1,0,0,0,1.09,1c.67,0,1.09-.36,1.09-.94a1,1,0,0,0-1.07-1A1,1,0,0,0,94.86,229.47Zm8.7,4.21v-3.87c0-.74-.32-1.14-.91-1.14a1.25,1.25,0,0,0-1.08.65,2.68,2.68,0,0,0-.25,1.29v3.07H100v-8h1.33v3.12a1.77,1.77,0,0,1,1.76-1.28,1.66,1.66,0,0,1,1.52.76,2.38,2.38,0,0,1,.29,1.34v4.07Zm7,2v-7.92h1.28v1a1.9,1.9,0,0,1,1.8-1.15,1.73,1.73,0,0,1,1.51.78,3.88,3.88,0,0,1,.63,2.25,4,4,0,0,1-.7,2.39,1.78,1.78,0,0,1-1.55.73,1.72,1.72,0,0,1-1.63-.95v2.83Zm1.36-4.43a1.35,1.35,0,0,0,1.28,1.49c.73,0,1.17-.73,1.17-2s-.43-2-1.19-2-1.27.71-1.27,1.68Zm9.91-2.4a3.27,3.27,0,0,1,.49,1.87,2.82,2.82,0,0,1-2.81,3.07,2.4,2.4,0,0,1-2.11-1.09,3.45,3.45,0,0,1-.59-2,2.8,2.8,0,0,1,2.77-3.06A2.46,2.46,0,0,1,121.83,228.86Zm-3.6,1.86c0,1.27.48,2,1.33,2s1.34-.72,1.34-2-.47-2-1.32-2S118.24,229.45,118.24,230.72Zm11.08,3h-1.2l-1.07-4.15L126,233.68h-1.24l-1.82-5.91h1.42l1.18,4,1-4h1.21l1,4,1.14-4h1.13ZM137,232a2.55,2.55,0,0,1-2.63,1.85c-1.66,0-2.72-1.2-2.72-3.06a2.79,2.79,0,0,1,2.78-3.09c1.7,0,2.65,1.15,2.66,3.24h-4.05v.17c0,1.08.53,1.69,1.42,1.69a1.28,1.28,0,0,0,1.33-1ZM135.73,230a1.44,1.44,0,0,0-.3-.92,1.24,1.24,0,0,0-1-.52c-.76,0-1.24.5-1.34,1.44Zm2.79,3.66v-5.91h1.21v1.42c.28-1,1-1.64,1.8-1.58V229h-.31c-.79,0-1.34.79-1.37,1.9v2.73Zm10.79,0a5,5,0,0,1-.94.13,1.8,1.8,0,0,1-1.26-.47c-.31-.31-.41-.67-.41-1.47v-3.06H146v-1h.82l.12-1.54,1.09-.1v1.63h1.2v1H148v2.88c0,.74.22,1,1,1h.34Zm5.75-4.82a3.27,3.27,0,0,1,.49,1.87,2.82,2.82,0,0,1-2.81,3.07,2.4,2.4,0,0,1-2.11-1.09,3.45,3.45,0,0,1-.59-2,2.8,2.8,0,0,1,2.77-3.06A2.46,2.46,0,0,1,155.05,228.86Zm-3.6,1.86c0,1.27.48,2,1.33,2s1.34-.72,1.34-2-.47-2-1.32-2S151.45,229.45,151.45,230.72ZM4.38,248.08V246.9a1.76,1.76,0,0,1-1.74,1.31,1.94,1.94,0,0,1-1.58-.76A4.33,4.33,0,0,1,.38,245a3.77,3.77,0,0,1,.83-2.47,1.88,1.88,0,0,1,1.5-.65,1.6,1.6,0,0,1,1.58,1v-2.89H5.63v8Zm-.08-3.49A1.51,1.51,0,0,0,4,243.51a1.17,1.17,0,0,0-.91-.44c-.82,0-1.27.73-1.27,2.05s.43,2,1.24,2a1.38,1.38,0,0,0,1.26-1.51Zm8.07,1.76a2.55,2.55,0,0,1-2.63,1.85C8.09,248.2,7,247,7,245.14a2.79,2.79,0,0,1,2.78-3.09c1.7,0,2.65,1.15,2.66,3.24H8.41v.17c0,1.08.53,1.69,1.42,1.69a1.28,1.28,0,0,0,1.33-1Zm-1.28-1.93a1.44,1.44,0,0,0-.3-.92,1.24,1.24,0,0,0-1-.52c-.76,0-1.24.5-1.34,1.44Zm3.35,2.06a1.2,1.2,0,0,0,1.31.72c.76,0,1.2-.26,1.2-.73,0-.29-.25-.52-.65-.59l-1.08-.22c-1.22-.23-1.79-.78-1.79-1.74a1.82,1.82,0,0,1,.47-1.24,2.29,2.29,0,0,1,1.81-.65A2.09,2.09,0,0,1,18,243.42l-1.2.25c-.16-.48-.47-.67-1.08-.67s-1,.25-1,.64.25.55.85.67l1.27.26a1.63,1.63,0,0,1,1.49,1.71c0,1.17-1,1.92-2.58,1.92a3.17,3.17,0,0,1-1.9-.55,1.62,1.62,0,0,1-.61-.92Zm7.82,1.59a5,5,0,0,1-.94.13,1.8,1.8,0,0,1-1.26-.47c-.31-.31-.41-.67-.41-1.47v-3.06h-.73v-1h.82l.12-1.54,1.09-.1v1.63h1.2v1H21v2.88c0,.74.22,1,1,1h.34Zm1.2,0v-5.91h1.21v1.42c.28-1,1-1.64,1.8-1.58v1.44h-.31c-.79,0-1.34.79-1.37,1.9v2.73Zm8.71-4.82a3.27,3.27,0,0,1,.49,1.87,2.82,2.82,0,0,1-2.81,3.07,2.4,2.4,0,0,1-2.11-1.09,3.45,3.45,0,0,1-.59-2,2.8,2.8,0,0,1,2.77-3.06A2.46,2.46,0,0,1,32.17,243.26Zm-3.6,1.86c0,1.27.48,2,1.33,2s1.34-.72,1.34-2-.47-2-1.32-2S28.57,243.85,28.57,245.12ZM36,248.91c-.31.91-.79,1.31-1.61,1.31-.17,0-.48,0-.77,0v-1.06h.66a.81.81,0,0,0,.78-.33,2.58,2.58,0,0,0,.25-.7,2.22,2.22,0,0,0-.12-.37l-2-5.55h1.39L36,246.08l1.24-3.91h1.07Zm10.33-.83a5.26,5.26,0,0,1-.2-1.2,2,2,0,0,1-2,1.32,1.8,1.8,0,0,1-2-1.81c0-.92.59-1.56,1.7-1.83a8.7,8.7,0,0,1,2.25-.2v-.44c0-.61-.42-.91-1.26-.91s-1.22.28-1.37.91l-1.14-.17a1.63,1.63,0,0,1,.78-1.22,3.15,3.15,0,0,1,1.89-.47,2.5,2.5,0,0,1,2,.65c.3.34.37.66.37,1.52v2.66a4.09,4.09,0,0,0,.18,1.2Zm-.2-3c-1.7,0-2.59.42-2.59,1.24,0,.55.4.89,1,.89a1.48,1.48,0,0,0,1.55-1.58Zm6.65,3v-3.69c0-.72-.36-1.17-.92-1.17a1.27,1.27,0,0,0-1.09.73,2.45,2.45,0,0,0-.22,1.1v3H49.17v-5.91h1.21v1.37c.49-1.07,1-1.49,1.81-1.49a1.85,1.85,0,0,1,1.62.88,2.77,2.77,0,0,1,.25,1.34v3.81ZM64,246.36a2.55,2.55,0,0,1-2.63,1.85c-1.66,0-2.72-1.2-2.72-3.06a2.79,2.79,0,0,1,2.78-3.09c1.7,0,2.65,1.15,2.66,3.24H60v.17c0,1.08.53,1.69,1.42,1.69a1.28,1.28,0,0,0,1.33-1Zm-1.28-1.93a1.44,1.44,0,0,0-.3-.92,1.24,1.24,0,0,0-1-.52c-.76,0-1.24.5-1.34,1.44Zm6.35,3.66v-3.69c0-.72-.36-1.17-.92-1.17a1.27,1.27,0,0,0-1.09.73,2.45,2.45,0,0,0-.22,1.1v3H65.5v-5.91h1.21v1.37c.49-1.07,1-1.49,1.81-1.49a1.85,1.85,0,0,1,1.62.88,2.77,2.77,0,0,1,.25,1.34v3.81Zm5.84,0a5,5,0,0,1-.94.13,1.8,1.8,0,0,1-1.26-.47c-.31-.31-.41-.67-.41-1.47v-3.06h-.73v-1h.82l.12-1.54,1.09-.1v1.63h1.2v1h-1.2v2.88c0,.74.22,1,1,1h.34Zm1.2-6.61v-1.39h1.33v1.39Zm0,6.61v-5.91h1.33v5.91Zm3.12,0v-5.91h1.21v1.42c.28-1,1-1.64,1.8-1.58v1.44h-.31c-.79,0-1.34.79-1.37,1.9v2.73Zm9-1.73a2.55,2.55,0,0,1-2.63,1.85c-1.66,0-2.72-1.2-2.72-3.06a2.79,2.79,0,0,1,2.78-3.09c1.7,0,2.65,1.15,2.66,3.24H84.31v.17c0,1.08.53,1.69,1.42,1.69a1.28,1.28,0,0,0,1.33-1ZM87,244.42a1.44,1.44,0,0,0-.3-.92,1.24,1.24,0,0,0-1-.52c-.76,0-1.24.5-1.34,1.44Zm6,5.66v-7.92h1.28v1a1.9,1.9,0,0,1,1.8-1.15,1.73,1.73,0,0,1,1.51.78,3.88,3.88,0,0,1,.63,2.25,4,4,0,0,1-.7,2.39,1.78,1.78,0,0,1-1.55.73,1.72,1.72,0,0,1-1.63-.95v2.83Zm1.36-4.43a1.35,1.35,0,0,0,1.28,1.49c.73,0,1.17-.73,1.17-2s-.43-2-1.19-2-1.27.71-1.27,1.68Zm5.28,2.42v-8h1.33v8Zm6.9,0a5.21,5.21,0,0,1-.2-1.2,2,2,0,0,1-2,1.32,1.8,1.8,0,0,1-2-1.81c0-.92.59-1.56,1.7-1.83a8.7,8.7,0,0,1,2.25-.2v-.44c0-.61-.42-.91-1.26-.91s-1.22.28-1.37.91l-1.14-.17a1.63,1.63,0,0,1,.78-1.22,3.15,3.15,0,0,1,1.89-.47,2.5,2.5,0,0,1,2,.65c.3.34.37.66.37,1.52v2.66a4.09,4.09,0,0,0,.18,1.2Zm-.2-3c-1.7,0-2.59.42-2.59,1.24,0,.55.4.89,1,.89a1.48,1.48,0,0,0,1.55-1.58Zm6.65,3v-3.69c0-.72-.36-1.17-.92-1.17a1.27,1.27,0,0,0-1.09.73,2.45,2.45,0,0,0-.22,1.1v3h-1.33v-5.91h1.21v1.37c.49-1.07,1-1.49,1.81-1.49a1.85,1.85,0,0,1,1.62.88,2.77,2.77,0,0,1,.25,1.34v3.81Zm8.08-1.73a2.55,2.55,0,0,1-2.63,1.85c-1.66,0-2.72-1.2-2.72-3.06a2.79,2.79,0,0,1,2.78-3.09c1.7,0,2.65,1.15,2.66,3.24H117v.17c0,1.08.53,1.69,1.42,1.69a1.28,1.28,0,0,0,1.33-1Zm-1.28-1.93a1.44,1.44,0,0,0-.3-.92,1.24,1.24,0,0,0-1-.52c-.76,0-1.24.5-1.34,1.44Zm5.44,3.66a5,5,0,0,1-.94.13,1.8,1.8,0,0,1-1.26-.47c-.31-.31-.41-.67-.41-1.47v-3.06h-.73v-1h.82l.12-1.54,1.09-.1v1.63H125v1h-1.2v2.88c0,.74.22,1,1,1h.34Zm2.76,0h-1.45v-1.54h1.45ZM.84,276.88v-8H4.11a2.91,2.91,0,0,1,1.68.4,2.29,2.29,0,0,1,1.08,2,2.42,2.42,0,0,1-2.59,2.43h-2v3.17ZM4,272.48c.85,0,1.38-.46,1.38-1.19a1.27,1.27,0,0,0-.36-.89,1.63,1.63,0,0,0-1.15-.32H2.28v2.4Zm7.78,4.4V275.6a1.77,1.77,0,0,1-.62,1,1.9,1.9,0,0,1-1.25.43,1.66,1.66,0,0,1-1.45-.72,1.9,1.9,0,0,1-.3-1.18V271H9.5v3.85a1.29,1.29,0,0,0,.12.65.86.86,0,0,0,.72.4,1.32,1.32,0,0,0,1.15-.83,2.92,2.92,0,0,0,.18-1.22V271H13v5.91Zm3,0V271H16v1.42c.28-1,1-1.64,1.8-1.58v1.44h-.31c-.79,0-1.34.79-1.37,1.9v2.73Zm4.81-1.59a1.2,1.2,0,0,0,1.31.72c.76,0,1.2-.26,1.2-.73,0-.29-.25-.52-.65-.59l-1.08-.22c-1.22-.23-1.79-.78-1.79-1.74a1.82,1.82,0,0,1,.47-1.24,2.29,2.29,0,0,1,1.81-.65,2.09,2.09,0,0,1,2.28,1.37l-1.2.25c-.16-.48-.47-.67-1.08-.67s-1,.25-1,.64.25.55.85.67l1.27.26a1.63,1.63,0,0,1,1.49,1.71c0,1.17-1,1.92-2.58,1.92a3.17,3.17,0,0,1-1.9-.55,1.62,1.62,0,0,1-.61-.92Zm8.72,1.59V275.6a1.77,1.77,0,0,1-.62,1,1.9,1.9,0,0,1-1.25.43,1.66,1.66,0,0,1-1.45-.72,1.9,1.9,0,0,1-.3-1.18V271h1.37v3.85a1.29,1.29,0,0,0,.12.65.86.86,0,0,0,.72.4,1.32,1.32,0,0,0,1.15-.83,2.92,2.92,0,0,0,.18-1.22V271h1.33v5.91Zm8-1.73A2.55,2.55,0,0,1,33.68,277C32,277,31,275.8,31,273.94a2.79,2.79,0,0,1,2.78-3.09c1.7,0,2.65,1.15,2.66,3.24H32.35v.17c0,1.08.53,1.69,1.42,1.69a1.28,1.28,0,0,0,1.33-1ZM35,273.22a1.44,1.44,0,0,0-.3-.92,1.24,1.24,0,0,0-1-.52c-.76,0-1.24.5-1.34,1.44Zm6.4,3.66v-1.19A1.76,1.76,0,0,1,39.68,277a1.94,1.94,0,0,1-1.58-.76,4.33,4.33,0,0,1-.67-2.4,3.77,3.77,0,0,1,.83-2.47,1.88,1.88,0,0,1,1.5-.65,1.6,1.6,0,0,1,1.58,1v-2.89h1.33v8Zm-.08-3.49a1.51,1.51,0,0,0-.31-1.08,1.17,1.17,0,0,0-.91-.44c-.82,0-1.27.73-1.27,2.05s.43,2,1.24,2a1.38,1.38,0,0,0,1.26-1.51ZM57,276.88v-8h1.33v2.89c.49-.83.89-1.08,1.64-1.08,1.35,0,2.25,1.24,2.25,3.12a3.82,3.82,0,0,1-.68,2.33,2,2,0,0,1-1.77.86,1.93,1.93,0,0,1-1.81-1.09l-.36,1Zm1.33-2.53c0,1,.44,1.56,1.22,1.56a1,1,0,0,0,.95-.53,2.93,2.93,0,0,0,.32-1.62,2.53,2.53,0,0,0-.35-1.46,1.06,1.06,0,0,0-.89-.46c-.77,0-1.26.64-1.26,1.63Zm7.24,3.36c-.31.91-.79,1.31-1.61,1.31-.17,0-.48,0-.77,0v-1.06h.66a.81.81,0,0,0,.78-.33,2.58,2.58,0,0,0,.25-.7,2.22,2.22,0,0,0-.12-.37l-2-5.55h1.39l1.44,3.91L66.78,271h1.07Zm18.64-.83a5,5,0,0,1-.94.13,1.8,1.8,0,0,1-1.26-.47c-.31-.31-.41-.67-.41-1.47V272h-.73v-1h.82l.12-1.54,1.09-.1V271h1.2v1h-1.2v2.88c0,.74.22,1,1,1h.34Zm4.78,0V273c0-.74-.32-1.14-.91-1.14a1.25,1.25,0,0,0-1.08.65,2.68,2.68,0,0,0-.25,1.29v3.07H85.39v-8h1.33V272a1.77,1.77,0,0,1,1.76-1.28,1.66,1.66,0,0,1,1.52.76,2.38,2.38,0,0,1,.29,1.34v4.07ZM97,275.15A2.55,2.55,0,0,1,94.41,277c-1.66,0-2.72-1.2-2.72-3.06a2.79,2.79,0,0,1,2.78-3.09c1.7,0,2.65,1.15,2.66,3.24H93.08v.17c0,1.08.53,1.69,1.42,1.69a1.28,1.28,0,0,0,1.33-1Zm-1.28-1.93a1.44,1.44,0,0,0-.3-.92,1.24,1.24,0,0,0-1-.52c-.76,0-1.24.5-1.34,1.44Zm15.39,3.66v-8h5.14v1.19h-3.71v2.17h3v1.16h-3v2.24h3.75v1.24Zm14,0V273.2c0-.76-.35-1.14-1-1.14-.83,0-1.29.62-1.29,1.71v3.11H121.4V273.2a1.24,1.24,0,0,0-.13-.71.91.91,0,0,0-.83-.46c-.8,0-1.37.72-1.37,1.74v3.11H117.7V271H119v1.26a2.74,2.74,0,0,1,.65-.92,2,2,0,0,1,1.32-.46,1.65,1.65,0,0,1,1.7,1.38,2.17,2.17,0,0,1,2-1.38,1.8,1.8,0,0,1,1.89,1.85v4.19Zm3.14,2V271h1.28v1a1.9,1.9,0,0,1,1.8-1.15,1.73,1.73,0,0,1,1.51.78,3.88,3.88,0,0,1,.63,2.25,4,4,0,0,1-.7,2.39,1.78,1.78,0,0,1-1.55.73,1.72,1.72,0,0,1-1.63-.95v2.83Zm1.36-4.43a1.35,1.35,0,0,0,1.28,1.49c.73,0,1.17-.73,1.17-2s-.43-2-1.19-2-1.27.71-1.27,1.68Zm5.28-4.19v-1.39h1.33v1.39Zm0,6.61V271h1.33v5.91Zm3.12,0V271h1.21v1.42c.28-1,1-1.64,1.8-1.58v1.44h-.31c-.79,0-1.34.79-1.37,1.9v2.73Zm9-1.73a2.55,2.55,0,0,1-2.63,1.85c-1.66,0-2.72-1.2-2.72-3.06a2.79,2.79,0,0,1,2.78-3.09c1.7,0,2.65,1.15,2.66,3.24h-4.05v.17c0,1.08.53,1.69,1.42,1.69a1.28,1.28,0,0,0,1.33-1Zm-1.28-1.93a1.44,1.44,0,0,0-.3-.92,1.24,1.24,0,0,0-1-.52c-.76,0-1.24.5-1.34,1.44Zm2.8-1.13-.19-3.21h1.31l-.19,3.21Zm3.26,3.19a1.2,1.2,0,0,0,1.31.72c.76,0,1.2-.26,1.2-.73,0-.29-.25-.52-.65-.59l-1.08-.22c-1.22-.23-1.79-.78-1.79-1.74a1.82,1.82,0,0,1,.47-1.24,2.29,2.29,0,0,1,1.81-.65,2.09,2.09,0,0,1,2.28,1.37l-1.2.25c-.16-.48-.47-.67-1.08-.67s-1,.25-1,.64.25.55.85.67l1.27.26a1.63,1.63,0,0,1,1.49,1.71c0,1.17-1,1.92-2.58,1.92a3.17,3.17,0,0,1-1.9-.55,1.62,1.62,0,0,1-.61-.92ZM1.29,289.69a1.2,1.2,0,0,0,1.31.72c.76,0,1.2-.26,1.2-.73,0-.29-.25-.52-.65-.59l-1.08-.22c-1.22-.23-1.79-.78-1.79-1.74a1.82,1.82,0,0,1,.47-1.24,2.29,2.29,0,0,1,1.81-.65,2.09,2.09,0,0,1,2.28,1.37l-1.2.25c-.16-.48-.47-.67-1.08-.67s-1,.25-1,.64.25.55.85.67l1.27.26a1.63,1.63,0,0,1,1.49,1.71c0,1.17-1,1.92-2.58,1.92a3.17,3.17,0,0,1-1.9-.55,1.62,1.62,0,0,1-.61-.92Zm5.1-5v-1.39H7.73v1.39Zm0,6.61v-5.91H7.73v5.91Zm6.68,0v-3.69c0-.72-.36-1.17-.92-1.17a1.27,1.27,0,0,0-1.09.73,2.45,2.45,0,0,0-.22,1.1v3H9.52v-5.91h1.21v1.37c.49-1.07,1-1.49,1.81-1.49a1.85,1.85,0,0,1,1.62.88,2.77,2.77,0,0,1,.25,1.34v3.81Zm3.11-6.61v-1.39h1.33v1.39Zm0,6.61v-5.91h1.33v5.91Zm3.65-1.59a1.2,1.2,0,0,0,1.31.72c.76,0,1.2-.26,1.2-.73,0-.29-.25-.52-.65-.59l-1.08-.22c-1.22-.23-1.79-.78-1.79-1.74a1.82,1.82,0,0,1,.47-1.24,2.29,2.29,0,0,1,1.81-.65,2.09,2.09,0,0,1,2.28,1.37l-1.2.25c-.16-.48-.47-.67-1.08-.67s-1,.25-1,.64.25.55.85.67l1.27.26a1.63,1.63,0,0,1,1.49,1.71c0,1.17-1,1.92-2.58,1.92a3.17,3.17,0,0,1-1.9-.55,1.62,1.62,0,0,1-.61-.92Zm7.82,1.59a5,5,0,0,1-.94.13,1.8,1.8,0,0,1-1.26-.47c-.31-.31-.41-.67-.41-1.47v-3.06h-.73v-1h.82l.12-1.54,1.09-.1v1.63h1.2v1h-1.2v2.88c0,.74.22,1,1,1h.34Zm6.11-1.73a2.55,2.55,0,0,1-2.63,1.85c-1.66,0-2.72-1.2-2.72-3.06a2.79,2.79,0,0,1,2.78-3.09c1.7,0,2.65,1.15,2.66,3.24H29.81v.17c0,1.08.53,1.69,1.42,1.69a1.28,1.28,0,0,0,1.33-1Zm-1.28-1.93a1.44,1.44,0,0,0-.3-.92,1.24,1.24,0,0,0-1-.52c-.76,0-1.24.5-1.34,1.44Zm2.79,3.66v-5.91h1.21v1.42c.28-1,1-1.64,1.8-1.58v1.44H38c-.79,0-1.34.79-1.37,1.9v2.73Zm11.59,0a5.21,5.21,0,0,1-.2-1.2,2,2,0,0,1-2,1.32,1.8,1.8,0,0,1-2-1.81c0-.92.59-1.56,1.7-1.83a8.7,8.7,0,0,1,2.25-.2v-.44c0-.61-.42-.91-1.26-.91s-1.22.28-1.37.91l-1.14-.17a1.63,1.63,0,0,1,.78-1.22,3.15,3.15,0,0,1,1.89-.47,2.5,2.5,0,0,1,2,.65c.3.34.37.66.37,1.52v2.66a4.09,4.09,0,0,0,.18,1.2Zm-.2-3c-1.7,0-2.59.42-2.59,1.24,0,.55.4.89,1,.89a1.48,1.48,0,0,0,1.55-1.58Zm8.43-3h-.41c-.5,0-.65.1-.86.48a1.57,1.57,0,0,1,.7,1.28c0,1.06-1,1.81-2.39,1.81a4.37,4.37,0,0,1-1.12-.16c-.3.16-.41.3-.41.56s.31.6.8.6h1.76c1.15,0,1.93.66,1.93,1.62,0,1.2-1.18,1.94-3.08,1.94s-2.87-.54-2.87-1.61c0-.56.22-.86.86-1.2-.42-.37-.55-.6-.55-1,0-.54.26-.89.95-1.24a1.48,1.48,0,0,1-.83-1.36,1.57,1.57,0,0,1,.52-1.17,2.65,2.65,0,0,1,1.94-.61,5,5,0,0,1,1.13.12,1.32,1.32,0,0,1,1.42-1.13h.5Zm-3.54,5.84a2.91,2.91,0,0,1-1-.14c-.22.2-.29.32-.29.52,0,.62.77,1,2,1,1,0,1.55-.28,1.55-.79,0-.36-.35-.6-.89-.6Zm-.59-4a1,1,0,0,0,1.09,1c.67,0,1.09-.36,1.09-.94a1,1,0,0,0-1.07-1A1,1,0,0,0,51,287.07Zm10,2.48a2.55,2.55,0,0,1-2.63,1.85c-1.66,0-2.72-1.2-2.72-3.06a2.79,2.79,0,0,1,2.78-3.09c1.7,0,2.65,1.15,2.66,3.24H57v.17c0,1.08.53,1.69,1.42,1.69a1.28,1.28,0,0,0,1.33-1Zm-1.28-1.93a1.44,1.44,0,0,0-.3-.92,1.24,1.24,0,0,0-1-.52c-.76,0-1.24.5-1.34,1.44ZM66,291.28v-3.69c0-.72-.36-1.17-.92-1.17a1.27,1.27,0,0,0-1.09.73,2.45,2.45,0,0,0-.22,1.1v3H62.46v-5.91h1.21v1.37c.49-1.07,1-1.49,1.81-1.49a1.85,1.85,0,0,1,1.62.88,2.77,2.77,0,0,1,.25,1.34v3.81Zm5.84,0a5,5,0,0,1-.94.13,1.8,1.8,0,0,1-1.26-.47c-.31-.31-.41-.67-.41-1.47v-3.06h-.73v-1h.82l.12-1.54,1.09-.1v1.63h1.2v1h-1.2v2.88c0,.74.22,1,1,1h.34Zm2-1.59a1.2,1.2,0,0,0,1.31.72c.76,0,1.2-.26,1.2-.73,0-.29-.25-.52-.65-.59l-1.08-.22c-1.22-.23-1.79-.78-1.79-1.74a1.82,1.82,0,0,1,.47-1.24,2.29,2.29,0,0,1,1.81-.65,2.09,2.09,0,0,1,2.28,1.37l-1.2.25c-.16-.48-.47-.67-1.08-.67s-1,.25-1,.64.25.55.85.67l1.27.26a1.63,1.63,0,0,1,1.49,1.71c0,1.17-1,1.92-2.58,1.92a3.17,3.17,0,0,1-1.9-.55,1.62,1.62,0,0,1-.61-.92Zm6.64,1.44L79.58,293h-.52l.7-1.71h-.7v-1.5h1.45Zm5.43.16v-8h3.27a2.91,2.91,0,0,1,1.68.4,2.29,2.29,0,0,1,1.08,2,2.42,2.42,0,0,1-2.59,2.43h-2v3.17Zm3.14-4.4c.85,0,1.38-.46,1.38-1.19a1.27,1.27,0,0,0-.36-.89,1.63,1.63,0,0,0-1.15-.32H87.39v2.4Zm4.15,4.4v-5.91h1.21v1.42c.28-1,1-1.64,1.8-1.58v1.44h-.31c-.79,0-1.34.79-1.37,1.9v2.73Zm4.09-6.61v-1.39h1.33v1.39Zm0,6.61v-5.91h1.33v5.91Zm6.68,0v-3.69c0-.72-.36-1.17-.92-1.17a1.27,1.27,0,0,0-1.09.73,2.45,2.45,0,0,0-.22,1.1v3h-1.33v-5.91h1.21v1.37c.49-1.07,1-1.49,1.81-1.49a1.85,1.85,0,0,1,1.62.88,2.77,2.77,0,0,1,.25,1.34v3.81Zm7.67-2.05a2.9,2.9,0,0,1-.55,1.31,2.26,2.26,0,0,1-1.87.86c-1.51,0-2.52-1.24-2.52-3.07s1.07-3.08,2.64-3.08a2.22,2.22,0,0,1,1.76.74,2.31,2.31,0,0,1,.54,1.29l-1.15.16c-.1-.73-.47-1.1-1.08-1.1-.82,0-1.29.76-1.29,2s.46,1.86,1.21,1.86c.59,0,1-.38,1.16-1.13Zm6.22.32a2.55,2.55,0,0,1-2.63,1.85c-1.66,0-2.72-1.2-2.72-3.06a2.79,2.79,0,0,1,2.78-3.09c1.7,0,2.65,1.15,2.66,3.24h-4.05v.17c0,1.08.53,1.69,1.42,1.69a1.28,1.28,0,0,0,1.33-1Zm-1.28-1.93a1.44,1.44,0,0,0-.3-.92,1.24,1.24,0,0,0-1-.52c-.76,0-1.24.5-1.34,1.44Zm3.35,2.06a1.2,1.2,0,0,0,1.31.72c.76,0,1.2-.26,1.2-.73,0-.29-.25-.52-.65-.59l-1.08-.22c-1.22-.23-1.79-.78-1.79-1.74a1.82,1.82,0,0,1,.47-1.24,2.29,2.29,0,0,1,1.81-.65,2.09,2.09,0,0,1,2.28,1.37l-1.2.25c-.16-.48-.47-.67-1.08-.67s-1,.25-1,.64.25.55.85.67l1.27.26a1.63,1.63,0,0,1,1.49,1.71c0,1.17-1,1.92-2.58,1.92a3.17,3.17,0,0,1-1.9-.55,1.62,1.62,0,0,1-.61-.92Zm5.83,0a1.2,1.2,0,0,0,1.31.72c.76,0,1.2-.26,1.2-.73,0-.29-.25-.52-.65-.59l-1.08-.22c-1.22-.23-1.79-.78-1.79-1.74a1.82,1.82,0,0,1,.47-1.24,2.29,2.29,0,0,1,1.81-.65,2.09,2.09,0,0,1,2.28,1.37l-1.2.25c-.16-.48-.47-.67-1.08-.67s-1,.25-1,.64.25.55.85.67l1.27.26a1.63,1.63,0,0,1,1.49,1.71c0,1.17-1,1.92-2.58,1.92a3.17,3.17,0,0,1-1.9-.55,1.62,1.62,0,0,1-.61-.92Zm8.83,1.59v-8h1.52V290h3.39v1.31Zm11-1.73A2.55,2.55,0,0,1,143,291.4c-1.66,0-2.72-1.2-2.72-3.06a2.79,2.79,0,0,1,2.78-3.09c1.7,0,2.65,1.15,2.66,3.24h-4.05v.17c0,1.08.53,1.69,1.42,1.69a1.28,1.28,0,0,0,1.33-1Zm-1.28-1.93a1.44,1.44,0,0,0-.3-.92,1.24,1.24,0,0,0-1-.52c-.76,0-1.24.5-1.34,1.44Zm2.79-3v-1.39h1.33v1.39Zm0,6.61v-5.91h1.33v5.91Zm6.9,0a5.26,5.26,0,0,1-.2-1.2,2,2,0,0,1-2,1.32,1.8,1.8,0,0,1-2-1.81c0-.92.59-1.56,1.7-1.83a8.7,8.7,0,0,1,2.25-.2v-.44c0-.61-.42-.91-1.26-.91s-1.22.28-1.37.91l-1.14-.17a1.63,1.63,0,0,1,.78-1.22,3.15,3.15,0,0,1,1.89-.47,2.5,2.5,0,0,1,2,.65c.3.34.37.66.37,1.52v2.66a4.09,4.09,0,0,0,.18,1.2Zm-.2-3c-1.7,0-2.59.42-2.59,1.24,0,.55.4.89,1,.89a1.48,1.48,0,0,0,1.55-1.58ZM.77,305.68v-5.91H2v1.42c.28-1,1-1.64,1.8-1.58V301H3.47c-.79,0-1.34.79-1.37,1.9v2.73Zm7.93,0a5.21,5.21,0,0,1-.2-1.2,2,2,0,0,1-2,1.32,1.8,1.8,0,0,1-2-1.81c0-.92.59-1.56,1.7-1.83a8.7,8.7,0,0,1,2.25-.2v-.44c0-.61-.42-.91-1.26-.91s-1.22.28-1.37.91l-1.14-.17a1.63,1.63,0,0,1,.78-1.22,3.15,3.15,0,0,1,1.89-.47,2.5,2.5,0,0,1,2,.65c.3.34.37.66.37,1.52v2.66a4.09,4.09,0,0,0,.18,1.2Zm-.2-3c-1.7,0-2.59.42-2.59,1.24,0,.55.4.89,1,.89a1.48,1.48,0,0,0,1.55-1.58Zm7.64,1a2.9,2.9,0,0,1-.55,1.31,2.26,2.26,0,0,1-1.87.86c-1.51,0-2.52-1.24-2.52-3.07s1.07-3.08,2.64-3.08a2.22,2.22,0,0,1,1.76.74,2.31,2.31,0,0,1,.54,1.29l-1.15.16c-.1-.73-.47-1.1-1.08-1.1-.82,0-1.29.76-1.29,2s.46,1.86,1.21,1.86c.59,0,1-.38,1.16-1.13Zm6.21.32a2.55,2.55,0,0,1-2.63,1.85c-1.66,0-2.72-1.2-2.72-3.06a2.79,2.79,0,0,1,2.78-3.09c1.7,0,2.65,1.15,2.66,3.24H18.39v.17c0,1.08.53,1.69,1.42,1.69a1.28,1.28,0,0,0,1.33-1ZM21.07,302a1.44,1.44,0,0,0-.3-.92,1.24,1.24,0,0,0-1-.52c-.76,0-1.24.5-1.34,1.44Zm3.35,2.06a1.2,1.2,0,0,0,1.31.72c.76,0,1.2-.26,1.2-.73,0-.29-.25-.52-.65-.59l-1.08-.22c-1.22-.23-1.79-.78-1.79-1.74a1.82,1.82,0,0,1,.47-1.24,2.29,2.29,0,0,1,1.81-.65A2.09,2.09,0,0,1,28,301l-1.2.25c-.16-.48-.47-.67-1.08-.67s-1,.25-1,.64.25.55.85.67l1.27.26a1.63,1.63,0,0,1,1.49,1.71c0,1.17-1,1.92-2.58,1.92a3.17,3.17,0,0,1-1.9-.55,1.62,1.62,0,0,1-.61-.92Zm22.87,1.59v-3.87c0-.74-.32-1.14-.91-1.14a1.25,1.25,0,0,0-1.08.65,2.68,2.68,0,0,0-.25,1.29v3.07H43.71v-8H45v3.12a1.77,1.77,0,0,1,1.76-1.28,1.66,1.66,0,0,1,1.52.76,2.38,2.38,0,0,1,.29,1.34v4.07ZM55,300.86a3.27,3.27,0,0,1,.49,1.87,2.82,2.82,0,0,1-2.81,3.07,2.4,2.4,0,0,1-2.11-1.09,3.45,3.45,0,0,1-.59-2,2.8,2.8,0,0,1,2.77-3.06A2.46,2.46,0,0,1,55,300.86Zm-3.6,1.86c0,1.27.48,2,1.33,2s1.34-.72,1.34-2-.47-2-1.32-2S51.42,301.45,51.42,302.72Zm12.93,3V302c0-.76-.35-1.14-1-1.14-.83,0-1.29.62-1.29,1.71v3.11H60.63V302a1.24,1.24,0,0,0-.13-.71.91.91,0,0,0-.83-.46c-.8,0-1.37.72-1.37,1.74v3.11H56.92v-5.91h1.29V301a2.74,2.74,0,0,1,.65-.92,2,2,0,0,1,1.32-.46,1.65,1.65,0,0,1,1.7,1.38,2.17,2.17,0,0,1,2-1.38,1.8,1.8,0,0,1,1.89,1.85v4.19ZM72.5,304a2.55,2.55,0,0,1-2.63,1.85c-1.66,0-2.72-1.2-2.72-3.06a2.79,2.79,0,0,1,2.78-3.09c1.7,0,2.65,1.15,2.66,3.24H68.55v.17c0,1.08.53,1.69,1.42,1.69a1.28,1.28,0,0,0,1.33-1ZM71.22,302a1.44,1.44,0,0,0-.3-.92,1.24,1.24,0,0,0-1-.52c-.76,0-1.24.5-1.34,1.44ZM92,305.68a5.21,5.21,0,0,1-.2-1.2,2,2,0,0,1-2,1.32,1.8,1.8,0,0,1-2-1.81c0-.92.59-1.56,1.7-1.83a8.7,8.7,0,0,1,2.25-.2v-.44c0-.61-.42-.91-1.26-.91s-1.22.28-1.37.91L88,301.34a1.63,1.63,0,0,1,.78-1.22,3.15,3.15,0,0,1,1.89-.47,2.5,2.5,0,0,1,2,.65c.3.34.37.66.37,1.52v2.66a4.09,4.09,0,0,0,.18,1.2Zm-.2-3c-1.7,0-2.59.42-2.59,1.24,0,.55.4.89,1,.89a1.48,1.48,0,0,0,1.55-1.58Zm3.09,3v-8h1.33v2.89c.49-.83.89-1.08,1.64-1.08,1.35,0,2.25,1.24,2.25,3.12a3.82,3.82,0,0,1-.68,2.33,2,2,0,0,1-1.77.86,1.93,1.93,0,0,1-1.81-1.09l-.36,1Zm1.33-2.53c0,1,.44,1.56,1.22,1.56a1,1,0,0,0,.95-.53,2.93,2.93,0,0,0,.32-1.62,2.53,2.53,0,0,0-.35-1.46,1.06,1.06,0,0,0-.89-.46c-.77,0-1.26.64-1.26,1.63Zm9.93-2.29a3.27,3.27,0,0,1,.49,1.87,2.82,2.82,0,0,1-2.81,3.07,2.4,2.4,0,0,1-2.11-1.09,3.45,3.45,0,0,1-.59-2,2.8,2.8,0,0,1,2.77-3.06A2.46,2.46,0,0,1,106.12,300.86Zm-3.6,1.86c0,1.27.48,2,1.33,2s1.34-.72,1.34-2-.47-2-1.32-2S102.52,301.45,102.52,302.72Zm9.27,3a5.26,5.26,0,0,1-.2-1.2,2,2,0,0,1-2,1.32,1.8,1.8,0,0,1-2-1.81c0-.92.59-1.56,1.7-1.83a8.7,8.7,0,0,1,2.25-.2v-.44c0-.61-.42-.91-1.26-.91s-1.22.28-1.37.91l-1.14-.17a1.63,1.63,0,0,1,.78-1.22,3.15,3.15,0,0,1,1.89-.47,2.5,2.5,0,0,1,2,.65c.3.34.37.66.37,1.52v2.66a4.09,4.09,0,0,0,.18,1.2Zm-.2-3c-1.7,0-2.59.42-2.59,1.24,0,.55.4.89,1,.89a1.48,1.48,0,0,0,1.55-1.58Zm3.09,3v-5.91h1.21v1.42c.28-1,1-1.64,1.8-1.58V301h-.31c-.79,0-1.34.79-1.37,1.9v2.73Zm7.75,0V304.5a1.76,1.76,0,0,1-1.74,1.31,1.94,1.94,0,0,1-1.58-.76,4.33,4.33,0,0,1-.67-2.4,3.77,3.77,0,0,1,.83-2.47,1.88,1.88,0,0,1,1.5-.65,1.6,1.6,0,0,1,1.58,1v-2.89h1.33v8Zm-.08-3.49a1.51,1.51,0,0,0-.31-1.08,1.17,1.17,0,0,0-.91-.44c-.82,0-1.27.73-1.27,2.05s.43,2,1.24,2a1.38,1.38,0,0,0,1.26-1.51Zm20.87,3.49v-3.87c0-.74-.32-1.14-.91-1.14a1.25,1.25,0,0,0-1.08.65,2.68,2.68,0,0,0-.25,1.29v3.07h-1.33v-8H141v3.12a1.77,1.77,0,0,1,1.76-1.28,1.66,1.66,0,0,1,1.52.76,2.38,2.38,0,0,1,.29,1.34v4.07Zm8.07-1.73a2.55,2.55,0,0,1-2.63,1.85c-1.66,0-2.72-1.2-2.72-3.06a2.79,2.79,0,0,1,2.78-3.09c1.7,0,2.65,1.15,2.66,3.24h-4.05v.17c0,1.08.53,1.69,1.42,1.69a1.28,1.28,0,0,0,1.33-1ZM150,302a1.44,1.44,0,0,0-.3-.92,1.24,1.24,0,0,0-1-.52c-.76,0-1.24.5-1.34,1.44Zm2.79,3.66v-5.91H154v1.42c.28-1,1-1.64,1.8-1.58V301h-.31c-.79,0-1.34.79-1.37,1.9v2.73ZM1.29,318.49a1.2,1.2,0,0,0,1.31.72c.76,0,1.2-.26,1.2-.73,0-.29-.25-.52-.65-.59l-1.08-.22c-1.22-.23-1.79-.78-1.79-1.74a1.82,1.82,0,0,1,.47-1.24,2.29,2.29,0,0,1,1.81-.65,2.09,2.09,0,0,1,2.28,1.37l-1.2.25c-.16-.48-.47-.67-1.08-.67s-1,.25-1,.64.25.55.85.67l1.27.26a1.63,1.63,0,0,1,1.49,1.71c0,1.17-1,1.92-2.58,1.92a3.17,3.17,0,0,1-1.9-.55,1.62,1.62,0,0,1-.61-.92Zm7.82,1.59a5,5,0,0,1-.94.13,1.8,1.8,0,0,1-1.26-.47c-.31-.31-.41-.67-.41-1.47v-3.06H5.78v-1H6.6l.12-1.54,1.09-.1v1.63H9v1H7.81v2.88c0,.74.22,1,1,1h.34Zm5.09,0a5.21,5.21,0,0,1-.2-1.2,2,2,0,0,1-2,1.32,1.8,1.8,0,0,1-2-1.81c0-.92.59-1.56,1.7-1.83a8.7,8.7,0,0,1,2.25-.2v-.44c0-.61-.42-.91-1.26-.91s-1.22.28-1.37.91l-1.14-.17a1.63,1.63,0,0,1,.78-1.22,3.15,3.15,0,0,1,1.89-.47,2.5,2.5,0,0,1,2,.65c.3.34.37.66.37,1.52v2.66a4.09,4.09,0,0,0,.18,1.2Zm-.2-3c-1.7,0-2.59.42-2.59,1.24,0,.55.4.89,1,.89A1.48,1.48,0,0,0,14,317.61Zm3.08,3v-5.91H18.3v1.42c.28-1,1-1.64,1.8-1.58v1.44h-.31c-.79,0-1.34.79-1.37,1.9v2.73Zm4.81-1.59a1.2,1.2,0,0,0,1.31.72c.76,0,1.2-.26,1.2-.73,0-.29-.25-.52-.65-.59l-1.08-.22c-1.22-.23-1.79-.78-1.79-1.74a1.82,1.82,0,0,1,.47-1.24,2.29,2.29,0,0,1,1.81-.65,2.09,2.09,0,0,1,2.28,1.37l-1.2.25c-.16-.48-.47-.67-1.08-.67s-1,.25-1,.64.25.55.85.67l1.27.26a1.63,1.63,0,0,1,1.49,1.71c0,1.17-1,1.92-2.58,1.92a3.17,3.17,0,0,1-1.9-.55,1.62,1.62,0,0,1-.61-.92Zm8.68,1.59v-3.87c0-.74-.32-1.14-.91-1.14a1.25,1.25,0,0,0-1.08.65,2.68,2.68,0,0,0-.25,1.29v3.07H27v-8h1.33v3.12a1.77,1.77,0,0,1,1.76-1.28,1.66,1.66,0,0,1,1.52.76,2.38,2.38,0,0,1,.29,1.34v4.07Zm3.11-6.61v-1.39H35v1.39Zm0,6.61v-5.91H35v5.91Zm3.12,2v-7.92h1.28v1a1.9,1.9,0,0,1,1.8-1.15,1.73,1.73,0,0,1,1.51.78,3.88,3.88,0,0,1,.63,2.25,4,4,0,0,1-.7,2.39,1.78,1.78,0,0,1-1.55.73,1.72,1.72,0,0,1-1.63-.95v2.83Zm1.36-4.43a1.35,1.35,0,0,0,1.28,1.49c.73,0,1.17-.73,1.17-2s-.43-2-1.19-2-1.27.71-1.27,1.68Zm6.65,2.27-.94,1.87h-.52l.7-1.71h-.7v-1.5h1.45ZM61.52,318a2.9,2.9,0,0,1-.55,1.31,2.26,2.26,0,0,1-1.87.86c-1.51,0-2.52-1.24-2.52-3.07s1.07-3.08,2.64-3.08a2.22,2.22,0,0,1,1.76.74,2.31,2.31,0,0,1,.54,1.29l-1.15.16c-.1-.73-.47-1.1-1.08-1.1-.82,0-1.29.76-1.29,2s.46,1.86,1.21,1.86c.59,0,1-.38,1.16-1.13Zm4.83,2.05V318.8a1.77,1.77,0,0,1-.62,1,1.9,1.9,0,0,1-1.25.43,1.66,1.66,0,0,1-1.45-.72,1.9,1.9,0,0,1-.3-1.18v-4.14h1.37V318a1.29,1.29,0,0,0,.12.65.86.86,0,0,0,.72.4,1.32,1.32,0,0,0,1.15-.83,2.92,2.92,0,0,0,.18-1.22v-2.84h1.33v5.91Zm3.55-1.59a1.2,1.2,0,0,0,1.31.72c.76,0,1.2-.26,1.2-.73,0-.29-.25-.52-.65-.59l-1.08-.22c-1.22-.23-1.79-.78-1.79-1.74a1.82,1.82,0,0,1,.47-1.24,2.29,2.29,0,0,1,1.81-.65,2.09,2.09,0,0,1,2.28,1.37l-1.2.25c-.16-.48-.47-.67-1.08-.67s-1,.25-1,.64.25.55.85.67l1.27.26a1.63,1.63,0,0,1,1.49,1.71c0,1.17-1,1.92-2.58,1.92a3.17,3.17,0,0,1-1.9-.55,1.62,1.62,0,0,1-.61-.92Zm7.82,1.59a5,5,0,0,1-.94.13,1.8,1.8,0,0,1-1.26-.47c-.31-.31-.41-.67-.41-1.47v-3.06h-.73v-1h.82l.12-1.54,1.09-.1v1.63h1.2v1h-1.2v2.88c0,.74.22,1,1,1h.34Zm5.75-4.82a3.27,3.27,0,0,1,.49,1.87,2.82,2.82,0,0,1-2.81,3.07A2.4,2.4,0,0,1,79,319.11a3.45,3.45,0,0,1-.59-2,2.8,2.8,0,0,1,2.77-3.06A2.46,2.46,0,0,1,83.47,315.26Zm-3.6,1.86c0,1.27.48,2,1.33,2s1.34-.72,1.34-2-.47-2-1.32-2S79.87,315.85,79.87,317.12Zm9.11,3V318.9a1.76,1.76,0,0,1-1.74,1.31,1.94,1.94,0,0,1-1.58-.76A4.33,4.33,0,0,1,85,317a3.77,3.77,0,0,1,.83-2.47,1.88,1.88,0,0,1,1.5-.65,1.6,1.6,0,0,1,1.58,1v-2.89h1.33v8Zm-.08-3.49a1.51,1.51,0,0,0-.31-1.08,1.17,1.17,0,0,0-.91-.44c-.82,0-1.27.73-1.27,2.05s.43,2,1.24,2a1.38,1.38,0,0,0,1.26-1.51ZM92,313.47v-1.39h1.33v1.39Zm0,6.61v-5.91h1.33v5.91Zm6.9,0a5.21,5.21,0,0,1-.2-1.2,2,2,0,0,1-2,1.32,1.8,1.8,0,0,1-2-1.81c0-.92.59-1.56,1.7-1.83a8.7,8.7,0,0,1,2.25-.2v-.44c0-.61-.42-.91-1.26-.91s-1.22.28-1.37.91l-1.14-.17a1.63,1.63,0,0,1,.78-1.22,3.15,3.15,0,0,1,1.89-.47,2.5,2.5,0,0,1,2,.65c.3.34.37.66.37,1.52v2.66a4.09,4.09,0,0,0,.18,1.2Zm-.2-3c-1.7,0-2.59.42-2.59,1.24,0,.55.4.89,1,.89a1.48,1.48,0,0,0,1.55-1.58Zm6.65,3v-3.69c0-.72-.36-1.17-.92-1.17a1.27,1.27,0,0,0-1.09.73,2.45,2.45,0,0,0-.22,1.1v3h-1.33v-5.91H103v1.37c.49-1.07,1-1.49,1.81-1.49a1.85,1.85,0,0,1,1.62.88,2.77,2.77,0,0,1,.25,1.34v3.81Zm18.19-4.82a3.27,3.27,0,0,1,.49,1.87,2.82,2.82,0,0,1-2.81,3.07,2.4,2.4,0,0,1-2.11-1.09,3.45,3.45,0,0,1-.59-2,2.8,2.8,0,0,1,2.77-3.06A2.46,2.46,0,0,1,123.54,315.26Zm-3.6,1.86c0,1.27.48,2,1.33,2s1.34-.72,1.34-2-.47-2-1.32-2S119.94,315.85,119.94,317.12Zm5.7,3v-4.87h-.88v-1h.88a2.14,2.14,0,0,1,.44-1.7,2,2,0,0,1,1.68-.52h.48V313a2.12,2.12,0,0,0-.36,0,1,1,0,0,0-.83.25c-.12.16-.13.24-.13.92h1.32v1h-1.32v4.87Zm17,0a5,5,0,0,1-.94.13,1.8,1.8,0,0,1-1.26-.47c-.31-.31-.41-.67-.41-1.47v-3.06h-.73v-1h.82l.12-1.54,1.09-.1v1.63h1.2v1h-1.2v2.88c0,.74.22,1,1,1h.34Zm4.78,0v-3.87c0-.74-.32-1.14-.91-1.14a1.25,1.25,0,0,0-1.08.65,2.68,2.68,0,0,0-.25,1.29v3.07H143.8v-8h1.33v3.12a1.77,1.77,0,0,1,1.76-1.28,1.66,1.66,0,0,1,1.52.76,2.38,2.38,0,0,1,.29,1.34v4.07Zm8.07-1.73a2.55,2.55,0,0,1-2.63,1.85c-1.66,0-2.72-1.2-2.72-3.06a2.79,2.79,0,0,1,2.78-3.09c1.7,0,2.65,1.15,2.66,3.24h-4.05v.17c0,1.08.53,1.69,1.42,1.69a1.28,1.28,0,0,0,1.33-1Zm-1.28-1.93a1.44,1.44,0,0,0-.3-.92,1.24,1.24,0,0,0-1-.52c-.76,0-1.24.5-1.34,1.44ZM1.29,332.89a1.2,1.2,0,0,0,1.31.72c.76,0,1.2-.26,1.2-.73,0-.29-.25-.52-.65-.59l-1.08-.22c-1.22-.23-1.79-.78-1.79-1.74a1.82,1.82,0,0,1,.47-1.24,2.29,2.29,0,0,1,1.81-.65,2.09,2.09,0,0,1,2.28,1.37l-1.2.25c-.16-.48-.47-.67-1.08-.67s-1,.25-1,.64.25.55.85.67l1.27.26a1.63,1.63,0,0,1,1.49,1.71c0,1.17-1,1.92-2.58,1.92a3.17,3.17,0,0,1-1.9-.55,1.62,1.62,0,0,1-.61-.92Zm7.82,1.59a5,5,0,0,1-.94.13,1.8,1.8,0,0,1-1.26-.47c-.31-.31-.41-.67-.41-1.47v-3.06H5.78v-1H6.6L6.72,327l1.09-.1v1.63H9v1H7.81v2.88c0,.74.22,1,1,1h.34Zm5.75-4.82a3.27,3.27,0,0,1,.49,1.87,2.82,2.82,0,0,1-2.81,3.07,2.4,2.4,0,0,1-2.11-1.09,3.45,3.45,0,0,1-.59-2,2.8,2.8,0,0,1,2.77-3.06A2.46,2.46,0,0,1,14.87,329.66Zm-3.6,1.86c0,1.27.48,2,1.33,2s1.34-.72,1.34-2-.47-2-1.32-2S11.27,330.25,11.27,331.52Zm5.5,3v-8h1.33v8Zm8.08-1.73a2.55,2.55,0,0,1-2.63,1.85c-1.66,0-2.72-1.2-2.72-3.06a2.79,2.79,0,0,1,2.78-3.09c1.7,0,2.65,1.15,2.66,3.24H20.89v.17c0,1.08.53,1.69,1.42,1.69a1.28,1.28,0,0,0,1.33-1Zm-1.28-1.93a1.44,1.44,0,0,0-.3-.92,1.24,1.24,0,0,0-1-.52c-.76,0-1.24.5-1.34,1.44Zm6.35,3.66v-3.69c0-.72-.36-1.17-.92-1.17a1.27,1.27,0,0,0-1.09.73,2.45,2.45,0,0,0-.22,1.1v3H26.35v-5.91h1.21v1.37c.49-1.07,1-1.49,1.81-1.49a1.85,1.85,0,0,1,1.62.88,2.77,2.77,0,0,1,.25,1.34v3.81Zm5.8,2v-7.92H37v1a1.9,1.9,0,0,1,1.8-1.15,1.73,1.73,0,0,1,1.51.78,3.88,3.88,0,0,1,.63,2.25,4,4,0,0,1-.7,2.39,1.78,1.78,0,0,1-1.55.73,1.72,1.72,0,0,1-1.63-.95v2.83Zm1.36-4.43a1.35,1.35,0,0,0,1.28,1.49c.73,0,1.17-.73,1.17-2s-.43-2-1.19-2-1.27.71-1.27,1.68Zm5.28,2.42v-8h1.33v8Zm6.9,0a5.21,5.21,0,0,1-.2-1.2,2,2,0,0,1-2,1.32,1.8,1.8,0,0,1-2-1.81c0-.92.59-1.56,1.7-1.83a8.7,8.7,0,0,1,2.25-.2v-.44c0-.61-.42-.91-1.26-.91s-1.22.28-1.37.91l-1.14-.17a1.63,1.63,0,0,1,.78-1.22,3.15,3.15,0,0,1,1.89-.47,2.5,2.5,0,0,1,2,.65c.3.34.37.66.37,1.52v2.66a4.09,4.09,0,0,0,.18,1.2Zm-.2-3c-1.7,0-2.59.42-2.59,1.24,0,.55.4.89,1,.89A1.48,1.48,0,0,0,49,332Zm6.65,3v-3.69c0-.72-.36-1.17-.92-1.17a1.27,1.27,0,0,0-1.09.73,2.45,2.45,0,0,0-.22,1.1v3H52.13v-5.91h1.21v1.37c.49-1.07,1-1.49,1.81-1.49a1.85,1.85,0,0,1,1.62.88,2.77,2.77,0,0,1,.25,1.34v3.81Zm3.64-1.59a1.2,1.2,0,0,0,1.31.72c.76,0,1.2-.26,1.2-.73,0-.29-.25-.52-.65-.59l-1.08-.22c-1.22-.23-1.79-.78-1.79-1.74a1.82,1.82,0,0,1,.47-1.24,2.29,2.29,0,0,1,1.81-.65,2.09,2.09,0,0,1,2.28,1.37l-1.2.25c-.16-.48-.47-.67-1.08-.67s-1,.25-1,.64.25.55.85.67l1.27.26a1.63,1.63,0,0,1,1.49,1.71c0,1.17-1,1.92-2.58,1.92a3.17,3.17,0,0,1-1.9-.55,1.62,1.62,0,0,1-.61-.92Zm10.53,1.59a5,5,0,0,1-.94.13,1.8,1.8,0,0,1-1.26-.47c-.31-.31-.41-.67-.41-1.47v-3.06h-.73v-1h.82l.12-1.54,1.09-.1v1.63h1.2v1h-1.2v2.88c0,.74.22,1,1,1h.34Zm4.78,0v-3.87c0-.74-.32-1.14-.91-1.14a1.25,1.25,0,0,0-1.08.65,2.68,2.68,0,0,0-.25,1.29v3.07H71.06v-8h1.33v3.12a1.77,1.77,0,0,1,1.76-1.28,1.66,1.66,0,0,1,1.52.76,2.38,2.38,0,0,1,.29,1.34v4.07Zm6.89,0a5.21,5.21,0,0,1-.2-1.2,2,2,0,0,1-2,1.32,1.8,1.8,0,0,1-2-1.81c0-.92.59-1.56,1.7-1.83a8.7,8.7,0,0,1,2.25-.2v-.44c0-.61-.42-.91-1.26-.91s-1.22.28-1.37.91l-1.14-.17a1.63,1.63,0,0,1,.78-1.22,3.15,3.15,0,0,1,1.89-.47,2.5,2.5,0,0,1,2,.65c.3.34.37.66.37,1.52v2.66a4.09,4.09,0,0,0,.18,1.2Zm-.2-3c-1.7,0-2.59.42-2.59,1.24,0,.55.4.89,1,.89A1.48,1.48,0,0,0,81.32,332Zm5.74,3a5,5,0,0,1-.94.13,1.8,1.8,0,0,1-1.26-.47c-.31-.31-.41-.67-.41-1.47v-3.06h-.73v-1h.82l.12-1.54,1.09-.1v1.63h1.2v1h-1.2v2.88c0,.74.22,1,1,1h.34Zm8.56-2.05a2.9,2.9,0,0,1-.55,1.31,2.26,2.26,0,0,1-1.87.86c-1.51,0-2.52-1.24-2.52-3.07s1.07-3.08,2.64-3.08a2.22,2.22,0,0,1,1.76.74,2.31,2.31,0,0,1,.54,1.29l-1.15.16c-.1-.73-.47-1.1-1.08-1.1-.82,0-1.29.76-1.29,2s.46,1.86,1.21,1.86c.59,0,1-.38,1.16-1.13Zm5.06,2.05a5.21,5.21,0,0,1-.2-1.2,2,2,0,0,1-2,1.32,1.8,1.8,0,0,1-2-1.81c0-.92.59-1.56,1.7-1.83a8.7,8.7,0,0,1,2.25-.2v-.44c0-.61-.42-.91-1.26-.91s-1.22.28-1.37.91l-1.14-.17a1.63,1.63,0,0,1,.78-1.22,3.15,3.15,0,0,1,1.89-.47,2.5,2.5,0,0,1,2,.65c.3.34.37.66.37,1.52v2.66a4.09,4.09,0,0,0,.18,1.2Zm-.2-3c-1.7,0-2.59.42-2.59,1.24,0,.55.4.89,1,.89a1.48,1.48,0,0,0,1.55-1.58Zm6.65,3v-3.69c0-.72-.36-1.17-.92-1.17a1.27,1.27,0,0,0-1.09.73,2.45,2.45,0,0,0-.22,1.1v3h-1.33v-5.91h1.21v1.37c.49-1.07,1-1.49,1.81-1.49a1.85,1.85,0,0,1,1.62.88,2.77,2.77,0,0,1,.25,1.34v3.81Zm6.33-1.59a1.2,1.2,0,0,0,1.31.72c.76,0,1.2-.26,1.2-.73,0-.29-.25-.52-.65-.59l-1.08-.22c-1.22-.23-1.79-.78-1.79-1.74a1.82,1.82,0,0,1,.47-1.24,2.29,2.29,0,0,1,1.81-.65,2.09,2.09,0,0,1,2.28,1.37l-1.2.25c-.16-.48-.47-.67-1.08-.67s-1,.25-1,.64.25.55.85.67l1.27.26a1.63,1.63,0,0,1,1.49,1.71c0,1.17-1,1.92-2.58,1.92a3.17,3.17,0,0,1-1.9-.55,1.62,1.62,0,0,1-.61-.92Zm8.94,1.59a5.21,5.21,0,0,1-.2-1.2,2,2,0,0,1-2,1.32,1.8,1.8,0,0,1-2-1.81c0-.92.59-1.56,1.7-1.83a8.7,8.7,0,0,1,2.25-.2v-.44c0-.61-.42-.91-1.26-.91s-1.22.28-1.37.91l-1.14-.17a1.63,1.63,0,0,1,.78-1.22,3.15,3.15,0,0,1,1.89-.47,2.5,2.5,0,0,1,2,.65c.3.34.37.66.37,1.52v2.66a4.09,4.09,0,0,0,.18,1.2Zm-.2-3c-1.7,0-2.59.42-2.59,1.24,0,.55.4.89,1,.89a1.48,1.48,0,0,0,1.55-1.58Zm5.38,3h-1.12l-2.05-5.91h1.39l1.38,4,1.36-4h1Zm7.89-1.73a2.55,2.55,0,0,1-2.63,1.85c-1.66,0-2.72-1.2-2.72-3.06a2.79,2.79,0,0,1,2.78-3.09c1.7,0,2.65,1.15,2.66,3.24h-4.05v.17c0,1.08.53,1.69,1.42,1.69a1.28,1.28,0,0,0,1.33-1Zm-1.28-1.93a1.44,1.44,0,0,0-.3-.92,1.24,1.24,0,0,0-1-.52c-.76,0-1.24.5-1.34,1.44Zm9.05,3.66v-3.87c0-.74-.32-1.14-.91-1.14a1.25,1.25,0,0,0-1.08.65,2.68,2.68,0,0,0-.25,1.29v3.07h-1.33v-8H141v3.12a1.77,1.77,0,0,1,1.76-1.28,1.66,1.66,0,0,1,1.52.76,2.38,2.38,0,0,1,.29,1.34v4.07Zm8.07-1.73a2.55,2.55,0,0,1-2.63,1.85c-1.66,0-2.72-1.2-2.72-3.06a2.79,2.79,0,0,1,2.78-3.09c1.7,0,2.65,1.15,2.66,3.24h-4.05v.17c0,1.08.53,1.69,1.42,1.69a1.28,1.28,0,0,0,1.33-1ZM150,330.82a1.44,1.44,0,0,0-.3-.92,1.24,1.24,0,0,0-1-.52c-.76,0-1.24.5-1.34,1.44Zm2.79,3.66v-5.91H154V330c.28-1,1-1.64,1.8-1.58v1.44h-.31c-.79,0-1.34.79-1.37,1.9v2.73Zm-152,16.4V343H2.05v1a1.9,1.9,0,0,1,1.8-1.15,1.73,1.73,0,0,1,1.51.78A3.88,3.88,0,0,1,6,345.88a4,4,0,0,1-.7,2.39,1.78,1.78,0,0,1-1.55.73,1.72,1.72,0,0,1-1.63-.95v2.83Zm1.36-4.43a1.35,1.35,0,0,0,1.28,1.49c.73,0,1.17-.73,1.17-2s-.43-2-1.19-2-1.27.71-1.27,1.68Zm10.25.7A2.55,2.55,0,0,1,9.74,349C8.09,349,7,347.8,7,345.94a2.79,2.79,0,0,1,2.78-3.09c1.7,0,2.65,1.15,2.66,3.24H8.41v.17c0,1.08.53,1.69,1.42,1.69a1.28,1.28,0,0,0,1.33-1Zm-1.28-1.93a1.44,1.44,0,0,0-.3-.92,1.24,1.24,0,0,0-1-.52c-.76,0-1.24.5-1.34,1.44Zm7.42-1.16a3.27,3.27,0,0,1,.49,1.87A2.82,2.82,0,0,1,16.19,349a2.4,2.4,0,0,1-2.11-1.09,3.45,3.45,0,0,1-.59-2,2.8,2.8,0,0,1,2.77-3.06A2.46,2.46,0,0,1,18.5,344.06Zm-3.6,1.86c0,1.27.48,2,1.33,2s1.34-.72,1.34-2-.47-2-1.32-2S14.9,344.65,14.9,345.92Zm5.5,5V343h1.28v1a1.9,1.9,0,0,1,1.8-1.15,1.73,1.73,0,0,1,1.51.78,3.88,3.88,0,0,1,.63,2.25,4,4,0,0,1-.7,2.39,1.78,1.78,0,0,1-1.55.73,1.72,1.72,0,0,1-1.63-.95v2.83Zm1.36-4.43A1.35,1.35,0,0,0,23,347.95c.73,0,1.17-.73,1.17-2s-.43-2-1.19-2-1.27.71-1.27,1.68ZM27,348.88v-8h1.33v8Zm8.09-1.73A2.55,2.55,0,0,1,32.5,349c-1.66,0-2.72-1.2-2.72-3.06a2.79,2.79,0,0,1,2.78-3.09c1.7,0,2.65,1.15,2.66,3.24H31.16v.17c0,1.08.53,1.69,1.42,1.69a1.28,1.28,0,0,0,1.33-1Zm-1.28-1.93a1.44,1.44,0,0,0-.3-.92,1.24,1.24,0,0,0-1-.52c-.76,0-1.24.5-1.34,1.44Zm12.72,3.66a5.21,5.21,0,0,1-.2-1.2,2,2,0,0,1-2,1.32,1.8,1.8,0,0,1-2-1.81c0-.92.59-1.56,1.7-1.83a8.7,8.7,0,0,1,2.25-.2v-.44c0-.61-.42-.91-1.26-.91s-1.22.28-1.37.91l-1.14-.17a1.63,1.63,0,0,1,.78-1.22,3.15,3.15,0,0,1,1.89-.47,2.5,2.5,0,0,1,2,.65c.3.34.37.66.37,1.52v2.66a4.09,4.09,0,0,0,.18,1.2Zm-.2-3c-1.7,0-2.59.42-2.59,1.24,0,.55.4.89,1,.89a1.48,1.48,0,0,0,1.55-1.58Zm6.65,3v-3.69c0-.72-.36-1.17-.92-1.17a1.27,1.27,0,0,0-1.09.73,2.45,2.45,0,0,0-.22,1.1v3H49.44V343h1.21v1.37c.49-1.07,1-1.49,1.81-1.49a1.85,1.85,0,0,1,1.62.88,2.77,2.77,0,0,1,.25,1.34v3.81Zm6.72,0v-1.19A1.76,1.76,0,0,1,58,349a1.94,1.94,0,0,1-1.58-.76,4.33,4.33,0,0,1-.67-2.4,3.77,3.77,0,0,1,.83-2.47,1.88,1.88,0,0,1,1.5-.65,1.6,1.6,0,0,1,1.58,1v-2.89H61v8Zm-.08-3.49a1.51,1.51,0,0,0-.31-1.08,1.17,1.17,0,0,0-.91-.44c-.82,0-1.27.73-1.27,2.05s.43,2,1.24,2a1.38,1.38,0,0,0,1.26-1.51Zm9.26,3.49V343h1.21v1.42c.28-1,1-1.64,1.8-1.58v1.44H71.6c-.79,0-1.34.79-1.37,1.9v2.73Zm9-1.73A2.55,2.55,0,0,1,75.32,349c-1.66,0-2.72-1.2-2.72-3.06a2.79,2.79,0,0,1,2.78-3.09c1.7,0,2.65,1.15,2.66,3.24H74v.17c0,1.08.53,1.69,1.42,1.69a1.28,1.28,0,0,0,1.33-1Zm-1.28-1.93a1.44,1.44,0,0,0-.3-.92,1.24,1.24,0,0,0-1-.52c-.76,0-1.24.5-1.34,1.44ZM80,347.29a1.2,1.2,0,0,0,1.31.72c.76,0,1.2-.26,1.2-.73,0-.29-.25-.52-.65-.59l-1.08-.22c-1.22-.23-1.79-.78-1.79-1.74a1.82,1.82,0,0,1,.47-1.24,2.29,2.29,0,0,1,1.81-.65,2.09,2.09,0,0,1,2.28,1.37l-1.2.25c-.16-.48-.47-.67-1.08-.67s-1,.25-1,.64.25.55.85.67l1.27.26a1.63,1.63,0,0,1,1.49,1.71c0,1.17-1,1.92-2.58,1.92a3.17,3.17,0,0,1-1.9-.55,1.62,1.62,0,0,1-.61-.92Zm7.82,1.59a5,5,0,0,1-.94.13,1.8,1.8,0,0,1-1.26-.47c-.31-.31-.41-.67-.41-1.47V344H84.5v-1h.82l.12-1.54,1.09-.1V343h1.2v1h-1.2v2.88c0,.74.22,1,1,1h.34Zm5.75-4.82a3.27,3.27,0,0,1,.49,1.87A2.82,2.82,0,0,1,91.26,349a2.4,2.4,0,0,1-2.11-1.09,3.45,3.45,0,0,1-.59-2,2.8,2.8,0,0,1,2.77-3.06A2.46,2.46,0,0,1,93.58,344.06ZM90,345.92c0,1.27.48,2,1.33,2s1.34-.72,1.34-2-.47-2-1.32-2S90,344.65,90,345.92Zm5.5,3V343h1.21v1.42c.28-1,1-1.64,1.8-1.58v1.44h-.31c-.79,0-1.34.79-1.37,1.9v2.73Zm9-1.73A2.55,2.55,0,0,1,101.9,349c-1.66,0-2.72-1.2-2.72-3.06a2.79,2.79,0,0,1,2.78-3.09c1.7,0,2.65,1.15,2.66,3.24h-4.05v.17c0,1.08.53,1.69,1.42,1.69a1.28,1.28,0,0,0,1.33-1Zm-1.28-1.93a1.44,1.44,0,0,0-.3-.92,1.24,1.24,0,0,0-1-.52c-.76,0-1.24.5-1.34,1.44Zm9.14,3.66V344h-.88v-1h.88a2.14,2.14,0,0,1,.44-1.7,2,2,0,0,1,1.68-.52H115v1.05a2.12,2.12,0,0,0-.36,0,1,1,0,0,0-.83.25c-.12.16-.13.24-.13.92H115v1h-1.32v4.87Zm3.77,0V343h1.21v1.42c.28-1,1-1.64,1.8-1.58v1.44h-.31c-.79,0-1.34.79-1.37,1.9v2.73Zm9-1.73a2.55,2.55,0,0,1-2.63,1.85c-1.66,0-2.72-1.2-2.72-3.06a2.79,2.79,0,0,1,2.78-3.09c1.7,0,2.65,1.15,2.66,3.24h-4.05v.17c0,1.08.53,1.69,1.42,1.69a1.28,1.28,0,0,0,1.33-1Zm-1.28-1.93a1.44,1.44,0,0,0-.3-.92,1.24,1.24,0,0,0-1-.52c-.76,0-1.24.5-1.34,1.44Zm7.75,1.93A2.55,2.55,0,0,1,129,349c-1.66,0-2.72-1.2-2.72-3.06a2.79,2.79,0,0,1,2.78-3.09c1.7,0,2.65,1.15,2.66,3.24H127.7v.17c0,1.08.53,1.69,1.42,1.69a1.28,1.28,0,0,0,1.33-1Zm-1.28-1.93a1.44,1.44,0,0,0-.3-.92,1.24,1.24,0,0,0-1-.52c-.76,0-1.24.5-1.34,1.44Zm6.4,3.66v-1.19A1.76,1.76,0,0,1,135,349a1.94,1.94,0,0,1-1.58-.76,4.33,4.33,0,0,1-.67-2.4,3.77,3.77,0,0,1,.83-2.47,1.88,1.88,0,0,1,1.5-.65,1.6,1.6,0,0,1,1.58,1v-2.89H138v8Zm-.08-3.49a1.51,1.51,0,0,0-.31-1.08,1.17,1.17,0,0,0-.91-.44c-.82,0-1.27.73-1.27,2.05s.43,2,1.24,2a1.38,1.38,0,0,0,1.26-1.51Zm7.74-1.33a3.27,3.27,0,0,1,.49,1.87,2.82,2.82,0,0,1-2.81,3.07,2.4,2.4,0,0,1-2.11-1.09,3.45,3.45,0,0,1-.59-2,2.8,2.8,0,0,1,2.77-3.06A2.46,2.46,0,0,1,144.43,344.06Zm-3.6,1.86c0,1.27.48,2,1.33,2s1.34-.72,1.34-2-.47-2-1.32-2S140.83,344.65,140.83,345.92Zm12.93,3V345.2c0-.76-.35-1.14-1-1.14-.83,0-1.29.62-1.29,1.71v3.11H150V345.2a1.24,1.24,0,0,0-.13-.71.91.91,0,0,0-.83-.46c-.8,0-1.37.72-1.37,1.74v3.11h-1.38V343h1.29v1.26a2.74,2.74,0,0,1,.65-.92,2,2,0,0,1,1.32-.46,1.65,1.65,0,0,1,1.7,1.38,2.17,2.17,0,0,1,2-1.38,1.8,1.8,0,0,1,1.89,1.85v4.19ZM3.5,363.28a5,5,0,0,1-.94.13,1.8,1.8,0,0,1-1.26-.47c-.31-.31-.41-.67-.41-1.47v-3.06H.17v-1H1l.12-1.54,1.09-.1v1.63h1.2v1H2.19v2.88c0,.74.22,1,1,1H3.5Zm5.75-4.82a3.27,3.27,0,0,1,.49,1.87,2.82,2.82,0,0,1-2.81,3.07,2.4,2.4,0,0,1-2.11-1.09,3.45,3.45,0,0,1-.59-2A2.8,2.8,0,0,1,7,357.25,2.46,2.46,0,0,1,9.25,358.46Zm-3.6,1.86c0,1.27.48,2,1.33,2s1.34-.72,1.34-2-.47-2-1.32-2S5.65,359,5.65,360.32Zm11.41,3a5,5,0,0,1-.94.13,1.8,1.8,0,0,1-1.26-.47c-.31-.31-.41-.67-.41-1.47v-3.06h-.73v-1h.82l.12-1.54,1.09-.1v1.63H17v1h-1.2v2.88c0,.74.22,1,1,1h.34Zm4.78,0v-3.87c0-.74-.32-1.14-.91-1.14a1.25,1.25,0,0,0-1.08.65,2.68,2.68,0,0,0-.25,1.29v3.07H18.26v-8h1.33v3.12a1.77,1.77,0,0,1,1.76-1.28,1.66,1.66,0,0,1,1.52.76,2.38,2.38,0,0,1,.29,1.34v4.07Zm8.08-1.73a2.55,2.55,0,0,1-2.63,1.85c-1.66,0-2.72-1.2-2.72-3.06a2.79,2.79,0,0,1,2.78-3.09c1.7,0,2.65,1.15,2.66,3.24H26v.17c0,1.08.53,1.69,1.42,1.69a1.28,1.28,0,0,0,1.33-1Zm-1.28-1.93a1.44,1.44,0,0,0-.3-.92,1.24,1.24,0,0,0-1-.52c-.76,0-1.24.5-1.34,1.44ZM40,357.26h-.41c-.5,0-.65.1-.86.48a1.57,1.57,0,0,1,.7,1.28c0,1.06-1,1.81-2.39,1.81a4.37,4.37,0,0,1-1.12-.16c-.3.16-.41.3-.41.56s.31.6.8.6h1.76c1.15,0,1.93.66,1.93,1.62,0,1.2-1.18,1.94-3.08,1.94s-2.87-.54-2.87-1.61c0-.56.22-.86.86-1.2-.42-.37-.55-.6-.55-1,0-.54.26-.89.95-1.24a1.48,1.48,0,0,1-.83-1.36,1.57,1.57,0,0,1,.52-1.17,2.65,2.65,0,0,1,1.94-.61,5,5,0,0,1,1.13.12,1.32,1.32,0,0,1,1.42-1.13H40Zm-3.54,5.84a2.91,2.91,0,0,1-1-.14c-.22.2-.29.32-.29.52,0,.62.77,1,2,1,1,0,1.55-.28,1.55-.79,0-.36-.35-.6-.89-.6Zm-.59-4A1,1,0,0,0,37,360c.67,0,1.09-.36,1.09-.94a1,1,0,0,0-1.07-1A1,1,0,0,0,35.87,359.07Zm8.91,4.21a5.26,5.26,0,0,1-.2-1.2,2,2,0,0,1-2,1.32,1.8,1.8,0,0,1-2-1.81c0-.92.59-1.56,1.7-1.83a8.7,8.7,0,0,1,2.25-.2v-.44c0-.61-.42-.91-1.26-.91s-1.22.28-1.37.91l-1.14-.17a1.63,1.63,0,0,1,.78-1.22,3.15,3.15,0,0,1,1.89-.47,2.5,2.5,0,0,1,2,.65c.3.34.37.66.37,1.52v2.66a4.09,4.09,0,0,0,.18,1.2Zm-.2-3c-1.7,0-2.59.42-2.59,1.24,0,.55.4.89,1,.89a1.48,1.48,0,0,0,1.55-1.58Zm3.08,3v-8H49v8Zm6.9,0a5.26,5.26,0,0,1-.2-1.2,2,2,0,0,1-2,1.32,1.8,1.8,0,0,1-2-1.81c0-.92.59-1.56,1.7-1.83a8.7,8.7,0,0,1,2.25-.2v-.44c0-.61-.42-.91-1.26-.91s-1.22.28-1.37.91l-1.14-.17a1.63,1.63,0,0,1,.78-1.22,3.15,3.15,0,0,1,1.89-.47,2.5,2.5,0,0,1,2,.65c.3.34.37.66.37,1.52v2.66a4.09,4.09,0,0,0,.18,1.2Zm-.2-3c-1.7,0-2.59.42-2.59,1.24,0,.55.4.89,1,.89a1.48,1.48,0,0,0,1.55-1.58Zm6.14,3-1.25-2.16-1.37,2.16H56.74l2-3L57,357.37h1.54l1,1.74,1.1-1.74h1.12l-1.67,2.57,2,3.35Zm4.81.83c-.31.91-.79,1.31-1.61,1.31-.17,0-.48,0-.77,0v-1.06h.66a.81.81,0,0,0,.78-.33,2.58,2.58,0,0,0,.25-.7,2.22,2.22,0,0,0-.12-.37l-2-5.55h1.39l1.44,3.91,1.24-3.91h1.07Zm4.3-.83H68.16v-1.54h1.45Zm3.07,0H71.23v-1.54h1.45Zm3.07,0H74.3v-1.54h1.45Zm3.07,0H77.37v-1.54h1.45ZM51.41,8V0h5.15V1.19H52.85V3.36h3V4.52h-3V6.76h3.75V8ZM58,10V2.09h1.28v1A1.9,1.9,0,0,1,61,2a1.73,1.73,0,0,1,1.51.78A3.87,3.87,0,0,1,63.19,5a4,4,0,0,1-.7,2.39A1.78,1.78,0,0,1,61,8.12a1.72,1.72,0,0,1-1.63-.95V10Zm1.35-4.43A1.35,1.35,0,0,0,60.6,7.06c.73,0,1.18-.73,1.18-2s-.43-2-1.19-2-1.27.71-1.27,1.68ZM64.6,1.39V0h1.33V1.39ZM64.6,8V2.09h1.33V8Zm3.65-1.6a1.2,1.2,0,0,0,1.31.72c.76,0,1.2-.26,1.2-.73,0-.29-.25-.52-.65-.59L69,5.59c-1.22-.23-1.79-.78-1.79-1.74a1.82,1.82,0,0,1,.47-1.24A2.29,2.29,0,0,1,69.52,2,2.09,2.09,0,0,1,71.8,3.33l-1.2.25c-.16-.48-.47-.67-1.08-.67s-1,.25-1,.64.25.55.85.67l1.27.26A1.63,1.63,0,0,1,72.09,6.2c0,1.18-1,1.92-2.58,1.92a3.17,3.17,0,0,1-1.9-.55A1.62,1.62,0,0,1,67,6.64ZM78,3.18A3.28,3.28,0,0,1,78.47,5a2.82,2.82,0,0,1-2.81,3.07A2.4,2.4,0,0,1,73.55,7,3.45,3.45,0,0,1,73,5,2.8,2.8,0,0,1,75.74,2,2.46,2.46,0,0,1,78,3.18ZM74.38,5c0,1.27.48,2,1.33,2s1.34-.72,1.34-2-.47-2-1.32-2S74.38,3.77,74.38,5Zm9.11,3V6.81a1.76,1.76,0,0,1-1.74,1.31,1.94,1.94,0,0,1-1.58-.76A4.34,4.34,0,0,1,79.49,5a3.77,3.77,0,0,1,.83-2.47,1.88,1.88,0,0,1,1.5-.65,1.6,1.6,0,0,1,1.58,1V0h1.33V8ZM83.4,4.51a1.51,1.51,0,0,0-.31-1.08A1.17,1.17,0,0,0,82.18,3c-.82,0-1.27.73-1.27,2.05s.43,2,1.23,2A1.38,1.38,0,0,0,83.4,5.52Zm8.08,1.76a2.56,2.56,0,0,1-2.63,1.85c-1.66,0-2.72-1.2-2.72-3.06A2.79,2.79,0,0,1,88.91,2c1.7,0,2.65,1.15,2.66,3.24H87.52v.17c0,1.08.53,1.69,1.42,1.69a1.28,1.28,0,0,0,1.33-1ZM90.19,4.34a1.44,1.44,0,0,0-.3-.92,1.23,1.23,0,0,0-1-.52c-.76,0-1.24.5-1.34,1.44Zm6,3.66V0h1.44V8Zm5,0L98.75,0h1.52l1.84,6.13L104,0h1.2l-2.5,8ZM27.33,38.91l3.82-17.33h2.78l3.53,17.33h-2.4l-.79-4.42H30.52l-.79,4.42Zm5.06-14.78-1.51,8.35h3l-1.49-8.35ZM45.47,38.91V21.58h3.34L51.66,36V21.58h2.26V38.91H50.43L47.58,24.13V38.91Zm11.42,0V21.58h6.53v2H59.29V29h3.89v2H59.29v5.86h4.13v2Zm10.92,0L65.08,21.58h2.47l1.73,14.26h0l1.92-14.26h3.26l1.58,14.26h0L78.2,21.58h2.26L77.34,38.91H74.41L72.8,24.41h0l-2,14.5Zm20.71,0V21.58h2.4V29h3.19V21.58h2.4V38.91h-2.4V31H90.92v7.87Zm10.9-4.15V26q0-4.56,4.06-4.56a4,4,0,0,1,3.19,1.13,4.78,4.78,0,0,1,.89,3.17v8.76q0,4.56-4.08,4.56a3.91,3.91,0,0,1-3.17-1.15A4.67,4.67,0,0,1,99.42,34.76Zm2.4-9v9.1q0,2.28,1.66,2.28t1.68-2.28v-9.1q0-2.5-1.68-2.5T101.82,25.81Zm8.64,13.1V21.58h4q2.42,0,3.16.94t.73,4q0,3-.73,4t-3.16.94h-1.56v7.54Zm2.4-15.31v5.76h1.25q1.22,0,1.51-.46a5.9,5.9,0,0,0,.29-2.42,5.9,5.9,0,0,0-.29-2.42q-.29-.46-1.51-.46ZM121,38.91V21.58h6.53v2H123.4V29h3.89v2H123.4v5.86h4.13v2Z"/>
</svg>
