<svg id="sky" xmlns="http://www.w3.org/2000/svg" viewBox="0 0 1920 1080">
  <title>starry-sky</title>
  <g style="opacity: 0.6">
    <circle cx="137.17" cy="93.36" r="1" style="fill: #fff"/>
    <circle cx="123" cy="619.81" r="1" style="fill: #fff"/>
    <circle cx="40.57" cy="429.58" r="1" style="fill: #fff"/>
    <circle cx="20" cy="376.81" r="1" style="fill: #fff"/>
    <circle cx="239.17" cy="334.79" r="1" style="fill: #fff"/>
    <circle cx="318.98" cy="266.87" r="1" style="fill: #fff"/>
    <circle cx="336.77" cy="291.73" r="1" style="fill: #fff"/>
    <circle cx="229.51" cy="171.25" r="1" style="fill: #fff"/>
    <circle cx="727.9" cy="311.97" r="1" style="fill: #fff"/>
    <circle cx="297.85" cy="796.2" r="1" style="fill: #fff"/>
    <circle cx="492.12" cy="684.85" r="1" style="fill: #fff"/>
    <circle cx="357.61" cy="867.49" r="1" style="fill: #fff"/>
    <circle cx="312.41" cy="971.56" r="1" style="fill: #fff"/>
    <circle cx="646.77" cy="867.95" r="1" style="fill: #fff"/>
    <circle cx="359.97" cy="792.16" r="1" style="fill: #fff"/>
    <circle cx="363.85" cy="583.49" r="1" style="fill: #fff"/>
    <circle cx="516.42" cy="369.34" r="1" style="fill: #fff"/>
    <circle cx="902.81" cy="238.34" r="1" style="fill: #fff"/>
    <circle cx="968.31" cy="950.74" r="1" style="fill: #fff"/>
    <circle cx="1210.1" cy="1044.48" r="1" style="fill: #fff"/>
    <circle cx="777.67" cy="918.01" r="1" style="fill: #fff"/>
    <circle cx="1070.32" cy="549.2" r="1" style="fill: #fff"/>
    <circle cx="753.74" cy="247.56" r="1" style="fill: #fff"/>
    <circle cx="664.83" cy="557.38" r="1" style="fill: #fff"/>
    <circle cx="669.4" cy="136.03" r="1" style="fill: #fff"/>
    <circle cx="548.32" cy="22.32" r="1" style="fill: #fff"/>
    <circle cx="1873.09" cy="380.02" r="1" style="fill: #fff"/>
    <circle cx="1790.3" cy="222.75" r="1" style="fill: #fff"/>
    <circle cx="1694.64" cy="48.07" r="1" style="fill: #fff"/>
    <circle cx="1125.79" cy="53.06" r="1" style="fill: #fff"/>
    <circle cx="827.32" cy="53.93" r="1" style="fill: #fff"/>
    <circle cx="763.86" cy="81.23" r="1" style="fill: #fff"/>
    <circle cx="1075.41" cy="233.43" r="1" style="fill: #fff"/>
    <circle cx="1152.17" cy="264.19" r="1" style="fill: #fff"/>
    <circle cx="1358.13" cy="148.12" r="1" style="fill: #fff"/>
    <circle cx="1353.52" cy="204.31" r="1" style="fill: #fff"/>
    <circle cx="1467.43" cy="437.18" r="1" style="fill: #fff"/>
    <circle cx="1744.08" cy="127.41" r="1" style="fill: #fff"/>
    <circle cx="1660.89" cy="396.96" r="1" style="fill: #fff"/>
    <circle cx="1573.3" cy="583.41" r="1" style="fill: #fff"/>
    <circle cx="1533.19" cy="255.97" r="1" style="fill: #fff"/>
    <circle cx="1665.66" cy="482.41" r="1" style="fill: #fff"/>
    <circle cx="1742.73" cy="199.72" r="1" style="fill: #fff"/>
    <circle cx="1810.9" cy="627.29" r="1" style="fill: #fff"/>
    <circle cx="1846.43" cy="486.55" r="1" style="fill: #fff"/>
    <circle cx="1760.8" cy="975.83" r="1" style="fill: #fff"/>
    <circle cx="1792.79" cy="721.11" r="1" style="fill: #fff"/>
    <circle cx="1519.8" cy="1014.74" r="1" style="fill: #fff"/>
    <circle cx="1891.42" cy="1016.62" r="1" style="fill: #fff"/>
    <circle cx="1523.08" cy="1066.15" r="1" style="fill: #fff"/>
    <circle cx="1088.01" cy="1039.66" r="1" style="fill: #fff"/>
    <circle cx="1462.62" cy="919.21" r="1" style="fill: #fff"/>
    <circle cx="1168.13" cy="980.45" r="1" style="fill: #fff"/>
    <circle cx="881.14" cy="720.61" r="1" style="fill: #fff"/>
    <circle cx="1025" cy="589.84" r="1" style="fill: #fff"/>
    <circle cx="951.29" cy="421.16" r="1" style="fill: #fff"/>
    <circle cx="973.85" cy="908.44" r="1" style="fill: #fff"/>
    <circle cx="1334.53" cy="892.96" r="1" style="fill: #fff"/>
    <circle cx="1189.05" cy="589.48" r="1" style="fill: #fff"/>
    <circle cx="1239.55" cy="548.1" r="1" style="fill: #fff"/>
    <circle cx="1560.85" cy="729.54" r="1" style="fill: #fff"/>
    <circle cx="1475.9" cy="791.47" r="1" style="fill: #fff"/>
    <circle cx="1079.97" cy="817.45" r="1" style="fill: #fff"/>
    <circle cx="1453.81" cy="649.59" r="1" style="fill: #fff"/>
    <circle cx="1265.29" cy="669.09" r="1" style="fill: #fff"/>
    <circle cx="1283.93" cy="472.08" r="1" style="fill: #fff"/>
    <circle cx="1174.18" cy="354.13" r="1" style="fill: #fff"/>
    <circle cx="1088.02" cy="363.4" r="1" style="fill: #fff"/>
  </g>
</svg>
