<svg id="sky" xmlns="http://www.w3.org/2000/svg" viewBox="0 0 1920 1080">
  <title>starry-sky-back</title>
  <g style="opacity: 0.3">
    <circle cx="469.11" cy="6.41" r="1" transform="translate(306.71 446.55) rotate(-70.53)" style="fill: #fff"/>
    <circle cx="670.34" cy="360.77" r="1" transform="translate(106.77 872.52) rotate(-70.53)" style="fill: #fff"/>
    <circle cx="1018.5" cy="338.97" r="1" transform="translate(359.44 1186.25) rotate(-70.53)" style="fill: #fff"/>
    <circle cx="687.41" cy="251.23" r="1" transform="translate(221.43 815.6) rotate(-70.53)" style="fill: #fff"/>
    <circle cx="357.94" cy="442.23" r="1" transform="translate(-178.31 632.3) rotate(-70.53)" style="fill: #fff"/>
    <circle cx="312.82" cy="300.23" r="1" transform="translate(-74.51 495.09) rotate(-70.53)" style="fill: #fff"/>
    <circle cx="373.54" cy="91.09" r="1" transform="translate(163.16 412.91) rotate(-70.53)" style="fill: #fff"/>
    <circle cx="353.12" cy="185.49" r="1" transform="translate(60.54 456.59) rotate(-70.53)" style="fill: #fff"/>
    <circle cx="426.77" cy="228.76" r="1" transform="translate(68.85 554.88) rotate(-70.53)" style="fill: #fff"/>
    <circle cx="571.98" cy="491.92" r="1" transform="translate(-82.46 867.24) rotate(-70.53)" style="fill: #fff"/>
    <circle cx="615.06" cy="684.09" r="1" transform="translate(-234.92 1035.97) rotate(-70.53)" style="fill: #fff"/>
    <circle cx="152.11" cy="753.93" r="1" transform="translate(-609.41 646.05) rotate(-70.53)" style="fill: #fff"/>
    <circle cx="236.56" cy="84.94" r="1" transform="translate(77.63 279.66) rotate(-70.53)" style="fill: #fff"/>
    <circle cx="68.14" cy="434.09" r="1" transform="translate(-363.84 353.65) rotate(-70.53)" style="fill: #fff"/>
    <circle cx="9.93" cy="365.3" r="1" transform="translate(-337.79 252.91) rotate(-70.53)" style="fill: #fff"/>
    <circle cx="196.44" cy="882.94" r="1" transform="translate(-701.49 773.86) rotate(-70.53)" style="fill: #fff"/>
    <circle cx="319.04" cy="785.95" r="1" transform="translate(-528.31 824.79) rotate(-70.53)" style="fill: #fff"/>
    <circle cx="544.61" cy="1023.47" r="1" transform="translate(-601.86 1195.81) rotate(-70.53)" style="fill: #fff"/>
    <circle cx="139.34" cy="916.39" r="1" transform="translate(-771.09 742.32) rotate(-70.53)" style="fill: #fff"/>
    <circle cx="859.57" cy="887.47" r="1" transform="translate(-263.66 1402.09) rotate(-70.53)" style="fill: #fff"/>
    <circle cx="779.04" cy="536.5" r="1" transform="translate(13.55 1092.18) rotate(-70.53)" style="fill: #fff"/>
    <circle cx="912" cy="327.67" r="1" transform="translate(299.1 1078.3) rotate(-70.53)" style="fill: #fff"/>
    <circle cx="981.63" cy="156.92" r="1" transform="translate(506.5 1030.12) rotate(-70.53)" style="fill: #fff"/>
    <circle cx="1292.04" cy="226.18" r="1" transform="translate(648.14 1368.96) rotate(-70.53)" style="fill: #fff"/>
    <circle cx="1082.88" cy="1005.66" r="1" transform="translate(-226.21 1691.43) rotate(-70.53)" style="fill: #fff"/>
    <circle cx="1109.04" cy="669.42" r="1" transform="translate(108.25 1491.92) rotate(-70.53)" style="fill: #fff"/>
    <circle cx="942.51" cy="714.6" r="1" transform="translate(-45.38 1365.03) rotate(-70.53)" style="fill: #fff"/>
    <circle cx="1617.97" cy="533.87" r="1" transform="translate(575.34 1881.38) rotate(-70.53)" style="fill: #fff"/>
    <circle cx="1320.89" cy="964.76" r="1" transform="translate(-28.97 1888.55) rotate(-70.53)" style="fill: #fff"/>
    <circle cx="1601.88" cy="990.86" r="1" transform="translate(133.76 2170.87) rotate(-70.53)" style="fill: #fff"/>
    <circle cx="1715.18" cy="989.65" r="1" transform="translate(210.43 2276.89) rotate(-70.53)" style="fill: #fff"/>
    <circle cx="1628.27" cy="1050.49" r="1" transform="translate(95.13 2235.51) rotate(-70.53)" style="fill: #fff"/>
    <circle cx="1743.63" cy="752.73" r="1" transform="translate(452.77 2145.76) rotate(-70.53)" style="fill: #fff"/>
    <circle cx="1784.99" cy="334.82" r="1" transform="translate(874.37 1906.14) rotate(-70.53)" style="fill: #fff"/>
    <circle cx="1739.54" cy="434.13" r="1" transform="translate(750.43 1929.49) rotate(-70.53)" style="fill: #fff"/>
    <circle cx="1724.31" cy="403.02" r="1" transform="translate(769.61 1894.39) rotate(-70.53)" style="fill: #fff"/>
    <circle cx="1646.29" cy="345" r="1" transform="translate(772.29 1782.16) rotate(-70.53)" style="fill: #fff"/>
    <circle cx="1864.12" cy="606.83" r="1" transform="translate(670.66 2162.1) rotate(-70.53)" style="fill: #fff"/>
    <circle cx="1847.47" cy="715.23" r="1" transform="translate(557.36 2218.66) rotate(-70.53)" style="fill: #fff"/>
    <circle cx="1844.86" cy="528.85" r="1" transform="translate(731.34 2091.94) rotate(-70.53)" style="fill: #fff"/>
    <circle cx="1638.55" cy="726.07" r="1" transform="translate(407.86 2028.92) rotate(-70.53)" style="fill: #fff"/>
    <circle cx="1731.37" cy="529.38" r="1" transform="translate(655.18 1985.3) rotate(-70.53)" style="fill: #fff"/>
    <circle cx="1730.41" cy="1041.74" r="1" transform="translate(171.48 2325.98) rotate(-70.53)" style="fill: #fff"/>
    <circle cx="1326.3" cy="389.82" r="1" transform="translate(516.7 1510.34) rotate(-70.53)" style="fill: #fff"/>
    <circle cx="1092.66" cy="727.92" r="1" transform="translate(42.17 1515.47) rotate(-70.53)" style="fill: #fff"/>
    <circle cx="1443.24" cy="831.16" r="1" transform="translate(178.56 1914.84) rotate(-70.53)" style="fill: #fff"/>
    <circle cx="1352.48" cy="814.14" r="1" transform="translate(134.1 1817.92) rotate(-70.53)" style="fill: #fff"/>
    <circle cx="1188.21" cy="595.43" r="1" transform="translate(230.79 1517.23) rotate(-70.53)" style="fill: #fff"/>
    <circle cx="1168.3" cy="431.06" r="1" transform="translate(372.48 1388.87) rotate(-70.53)" style="fill: #fff"/>
    <circle cx="1324.51" cy="358.94" r="1" transform="translate(544.62 1488.08) rotate(-70.53)" style="fill: #fff"/>
    <circle cx="1035.36" cy="194.71" r="1" transform="translate(506.69 1105.96) rotate(-70.53)" style="fill: #fff"/>
    <circle cx="846.26" cy="123.98" r="1" transform="translate(447.3 880.52) rotate(-70.53)" style="fill: #fff"/>
    <circle cx="611.93" cy="27.53" r="1" transform="translate(382.01 595.29) rotate(-70.53)" style="fill: #fff"/>
    <circle cx="201.8" cy="35.22" r="1" transform="translate(101.34 213.74) rotate(-70.53)" style="fill: #fff"/>
    <circle cx="199.5" cy="227.18" r="1" transform="translate(-81.18 339.55) rotate(-70.53)" style="fill: #fff"/>
    <circle cx="491.25" cy="507.24" r="1" transform="translate(-150.72 801.33) rotate(-70.53)" style="fill: #fff"/>
    <circle cx="325.78" cy="673.99" r="1" transform="translate(-418.25 756.5) rotate(-70.53)" style="fill: #fff"/>
    <circle cx="194.45" cy="655.16" r="1" transform="translate(-488.06 620.12) rotate(-70.53)" style="fill: #fff"/>
    <circle cx="81.01" cy="332.41" r="1" transform="translate(-259.39 297.99) rotate(-70.53)" style="fill: #fff"/>
    <circle cx="486.08" cy="876.08" r="1" transform="translate(-501.91 1042.36) rotate(-70.53)" style="fill: #fff"/>
    <circle cx="134.93" cy="889.8" r="1" transform="translate(-748.96 720.43) rotate(-70.53)" style="fill: #fff"/>
    <circle cx="444.04" cy="899.95" r="1" transform="translate(-552.45 1018.64) rotate(-70.53)" style="fill: #fff"/>
    <circle cx="1064.12" cy="894.49" r="1" transform="translate(-133.9 1599.62) rotate(-70.53)" style="fill: #fff"/>
    <circle cx="1140.6" cy="1021.8" r="1" transform="translate(-202.95 1756.6) rotate(-70.53)" style="fill: #fff"/>
    <circle cx="1825.11" cy="810.26" r="1" transform="translate(452.86 2260.94) rotate(-70.53)" style="fill: #fff"/>
    <circle cx="1386.38" cy="759.75" r="1" transform="translate(207.98 1813.63) rotate(-70.53)" style="fill: #fff"/>
    <circle cx="1327.05" cy="447.64" r="1" transform="translate(462.69 1549.6) rotate(-70.53)" style="fill: #fff"/>
    <circle cx="1479.85" cy="432.7" r="1" transform="translate(578.65 1683.71) rotate(-70.53)" style="fill: #fff"/>
    <circle cx="932.04" cy="916.89" r="1" transform="translate(-243.08 1490.02) rotate(-70.53)" style="fill: #fff"/>
    <circle cx="895.57" cy="268.2" r="1" transform="translate(344.21 1023.17) rotate(-70.53)" style="fill: #fff"/>
    <circle cx="849.07" cy="607.57" r="1" transform="translate(-6.76 1205.58) rotate(-70.53)" style="fill: #fff"/>
    <circle cx="715.64" cy="776.27" r="1" transform="translate(-254.77 1192.25) rotate(-70.53)" style="fill: #fff"/>
    <circle cx="604.15" cy="936.29" r="1" transform="translate(-479.97 1193.82) rotate(-70.53)" style="fill: #fff"/>
  </g>
  <g style="opacity: 0.3">
    <circle cx="1234.34" cy="11.77" r="1" transform="translate(811.83 1171.6) rotate(-70.53)" style="fill: #fff"/>
    <circle cx="921.94" cy="93.23" r="1" transform="translate(526.74 931.38) rotate(-70.53)" style="fill: #fff"/>
    <circle cx="1135.98" cy="142.92" r="1" transform="translate(622.6 1166.31) rotate(-70.53)" style="fill: #fff"/>
    <circle cx="1179.06" cy="335.09" r="1" transform="translate(470.13 1335.04) rotate(-70.53)" style="fill: #fff"/>
    <circle cx="716.11" cy="404.93" r="1" transform="translate(95.64 945.12) rotate(-70.53)" style="fill: #fff"/>
    <circle cx="632.14" cy="85.09" r="1" transform="translate(341.21 652.72) rotate(-70.53)" style="fill: #fff"/>
    <circle cx="573.93" cy="16.3" r="1" transform="translate(367.27 551.98) rotate(-70.53)" style="fill: #fff"/>
    <circle cx="760.44" cy="533.94" r="1" transform="translate(3.57 1072.93) rotate(-70.53)" style="fill: #fff"/>
    <circle cx="883.04" cy="436.95" r="1" transform="translate(176.75 1123.86) rotate(-70.53)" style="fill: #fff"/>
    <circle cx="1108.61" cy="674.47" r="1" transform="translate(103.2 1494.88) rotate(-70.53)" style="fill: #fff"/>
    <circle cx="703.34" cy="567.39" r="1" transform="translate(-66.04 1041.4) rotate(-70.53)" style="fill: #fff"/>
    <circle cx="1423.57" cy="538.47" r="1" transform="translate(441.4 1701.16) rotate(-70.53)" style="fill: #fff"/>
    <circle cx="1343.04" cy="187.5" r="1" transform="translate(718.61 1391.25) rotate(-70.53)" style="fill: #fff"/>
    <circle cx="1646.88" cy="656.66" r="1" transform="translate(478.85 1990.5) rotate(-70.53)" style="fill: #fff"/>
    <circle cx="1673.04" cy="320.42" r="1" transform="translate(813.3 1791) rotate(-70.53)" style="fill: #fff"/>
    <circle cx="1506.51" cy="365.6" r="1" transform="translate(659.68 1664.1) rotate(-70.53)" style="fill: #fff"/>
    <circle cx="1884.89" cy="615.76" r="1" transform="translate(676.08 2187.63) rotate(-70.53)" style="fill: #fff"/>
    <circle cx="1890.3" cy="40.82" r="1" transform="translate(1221.76 1809.42) rotate(-70.53)" style="fill: #fff"/>
    <circle cx="1656.66" cy="378.92" r="1" transform="translate(747.23 1814.55) rotate(-70.53)" style="fill: #fff"/>
    <circle cx="1752.21" cy="246.43" r="1" transform="translate(935.84 1816.3) rotate(-70.53)" style="fill: #fff"/>
    <circle cx="1732.3" cy="82.06" r="1" transform="translate(1077.54 1687.94) rotate(-70.53)" style="fill: #fff"/>
    <circle cx="1888.51" cy="9.94" r="1" transform="translate(1249.68 1787.15) rotate(-70.53)" style="fill: #fff"/>
    <circle cx="1055.25" cy="158.24" r="1" transform="translate(554.33 1100.4) rotate(-70.53)" style="fill: #fff"/>
    <circle cx="889.78" cy="324.99" r="1" transform="translate(286.81 1055.57) rotate(-70.53)" style="fill: #fff"/>
    <circle cx="758.45" cy="306.16" r="1" transform="translate(217 919.19) rotate(-70.53)" style="fill: #fff"/>
    <circle cx="1050.08" cy="527.08" r="1" transform="translate(203.14 1341.43) rotate(-70.53)" style="fill: #fff"/>
    <circle cx="698.93" cy="540.8" r="1" transform="translate(-43.9 1019.5) rotate(-70.53)" style="fill: #fff"/>
    <circle cx="1008.04" cy="550.95" r="1" transform="translate(152.6 1317.72) rotate(-70.53)" style="fill: #fff"/>
    <circle cx="1628.12" cy="545.49" r="1" transform="translate(571.16 1898.7) rotate(-70.53)" style="fill: #fff"/>
    <circle cx="1704.6" cy="672.8" r="1" transform="translate(502.11 2055.67) rotate(-70.53)" style="fill: #fff"/>
    <circle cx="1891.05" cy="98.64" r="1" transform="translate(1167.75 1848.68) rotate(-70.53)" style="fill: #fff"/>
    <circle cx="1496.04" cy="567.89" r="1" transform="translate(461.98 1789.09) rotate(-70.53)" style="fill: #fff"/>
    <circle cx="1413.07" cy="258.57" r="1" transform="translate(698.3 1504.65) rotate(-70.53)" style="fill: #fff"/>
    <circle cx="1279.64" cy="427.27" r="1" transform="translate(450.28 1491.32) rotate(-70.53)" style="fill: #fff"/>
    <circle cx="1168.15" cy="587.29" r="1" transform="translate(225.09 1492.9) rotate(-70.53)" style="fill: #fff"/>
  </g>
  <g style="opacity: 0.3">
    <circle cx="22.34" cy="350.77" r="1" transform="translate(-315.81 254.91) rotate(-70.53)" style="fill: #fff"/>
    <circle cx="370.5" cy="328.97" r="1" transform="translate(-63.15 568.64) rotate(-70.53)" style="fill: #fff"/>
    <circle cx="39.41" cy="241.23" r="1" transform="translate(-201.16 197.98) rotate(-70.53)" style="fill: #fff"/>
    <circle cx="211.57" cy="877.47" r="1" transform="translate(-686.25 784.48) rotate(-70.53)" style="fill: #fff"/>
    <circle cx="131.04" cy="526.5" r="1" transform="translate(-409.03 474.56) rotate(-70.53)" style="fill: #fff"/>
    <circle cx="264" cy="317.67" r="1" transform="translate(-123.49 460.69) rotate(-70.53)" style="fill: #fff"/>
    <circle cx="333.63" cy="146.92" r="1" transform="translate(83.92 412.5) rotate(-70.53)" style="fill: #fff"/>
    <circle cx="644.04" cy="216.18" r="1" transform="translate(225.56 751.34) rotate(-70.53)" style="fill: #fff"/>
    <circle cx="434.88" cy="995.66" r="1" transform="translate(-648.79 1073.81) rotate(-70.53)" style="fill: #fff"/>
    <circle cx="461.04" cy="659.42" r="1" transform="translate(-314.34 874.31) rotate(-70.53)" style="fill: #fff"/>
    <circle cx="294.51" cy="704.6" r="1" transform="translate(-467.96 747.42) rotate(-70.53)" style="fill: #fff"/>
    <circle cx="969.97" cy="523.87" r="1" transform="translate(152.75 1263.77) rotate(-70.53)" style="fill: #fff"/>
    <circle cx="672.89" cy="954.76" r="1" transform="translate(-451.56 1270.94) rotate(-70.53)" style="fill: #fff"/>
    <circle cx="745.59" cy="1059.68" r="1" transform="translate(-502.01 1409.44) rotate(-70.53)" style="fill: #fff"/>
    <circle cx="953.88" cy="980.86" r="1" transform="translate(-288.83 1553.26) rotate(-70.53)" style="fill: #fff"/>
    <circle cx="1067.18" cy="979.65" r="1" transform="translate(-212.16 1659.28) rotate(-70.53)" style="fill: #fff"/>
    <circle cx="980.27" cy="1040.49" r="1" transform="translate(-327.46 1617.9) rotate(-70.53)" style="fill: #fff"/>
    <circle cx="1095.63" cy="742.73" r="1" transform="translate(30.18 1528.15) rotate(-70.53)" style="fill: #fff"/>
    <circle cx="1136.99" cy="324.82" r="1" transform="translate(451.78 1288.53) rotate(-70.53)" style="fill: #fff"/>
    <circle cx="1091.54" cy="424.13" r="1" transform="translate(327.84 1311.88) rotate(-70.53)" style="fill: #fff"/>
    <circle cx="1076.31" cy="393.02" r="1" transform="translate(347.02 1276.78) rotate(-70.53)" style="fill: #fff"/>
    <circle cx="998.29" cy="335" r="1" transform="translate(349.7 1164.55) rotate(-70.53)" style="fill: #fff"/>
    <circle cx="1216.12" cy="596.83" r="1" transform="translate(248.07 1544.48) rotate(-70.53)" style="fill: #fff"/>
    <circle cx="1199.47" cy="705.23" r="1" transform="translate(134.77 1601.05) rotate(-70.53)" style="fill: #fff"/>
    <circle cx="1196.86" cy="518.85" r="1" transform="translate(308.76 1474.33) rotate(-70.53)" style="fill: #fff"/>
    <circle cx="990.55" cy="716.07" r="1" transform="translate(-14.73 1411.31) rotate(-70.53)" style="fill: #fff"/>
    <circle cx="1083.37" cy="519.38" r="1" transform="translate(232.59 1367.69) rotate(-70.53)" style="fill: #fff"/>
    <circle cx="1082.41" cy="1031.74" r="1" transform="translate(-251.11 1708.37) rotate(-70.53)" style="fill: #fff"/>
    <circle cx="678.3" cy="379.82" r="1" transform="translate(94.11 892.73) rotate(-70.53)" style="fill: #fff"/>
    <circle cx="444.66" cy="717.92" r="1" transform="translate(-380.42 897.86) rotate(-70.53)" style="fill: #fff"/>
    <circle cx="795.24" cy="821.16" r="1" transform="translate(-244.03 1297.22) rotate(-70.53)" style="fill: #fff"/>
    <circle cx="704.48" cy="804.14" r="1" transform="translate(-288.49 1200.31) rotate(-70.53)" style="fill: #fff"/>
    <circle cx="540.21" cy="585.43" r="1" transform="translate(-191.8 899.62) rotate(-70.53)" style="fill: #fff"/>
    <circle cx="520.3" cy="421.06" r="1" transform="translate(-50.1 771.26) rotate(-70.53)" style="fill: #fff"/>
    <circle cx="676.51" cy="348.94" r="1" transform="translate(122.04 870.46) rotate(-70.53)" style="fill: #fff"/>
    <circle cx="387.36" cy="184.71" r="1" transform="translate(84.11 488.35) rotate(-70.53)" style="fill: #fff"/>
    <circle cx="198.26" cy="113.98" r="1" transform="translate(24.71 262.91) rotate(-70.53)" style="fill: #fff"/>
    <circle cx="416.12" cy="884.49" r="1" transform="translate(-556.49 982.01) rotate(-70.53)" style="fill: #fff"/>
    <circle cx="492.6" cy="1011.8" r="1" transform="translate(-625.53 1138.99) rotate(-70.53)" style="fill: #fff"/>
    <circle cx="1177.11" cy="800.26" r="1" transform="translate(30.27 1643.33) rotate(-70.53)" style="fill: #fff"/>
    <circle cx="738.38" cy="749.75" r="1" transform="translate(-214.61 1196.01) rotate(-70.53)" style="fill: #fff"/>
    <circle cx="679.05" cy="437.64" r="1" transform="translate(40.11 931.99) rotate(-70.53)" style="fill: #fff"/>
    <circle cx="831.85" cy="422.7" r="1" transform="translate(156.06 1066.1) rotate(-70.53)" style="fill: #fff"/>
    <circle cx="284.04" cy="906.89" r="1" transform="translate(-665.67 872.41) rotate(-70.53)" style="fill: #fff"/>
    <circle cx="247.57" cy="258.2" r="1" transform="translate(-78.38 405.55) rotate(-70.53)" style="fill: #fff"/>
    <circle cx="201.07" cy="597.57" r="1" transform="translate(-429.34 587.97) rotate(-70.53)" style="fill: #fff"/>
    <circle cx="67.64" cy="766.27" r="1" transform="translate(-677.36 574.63) rotate(-70.53)" style="fill: #fff"/>
  </g>
  <g style="opacity: 0.3">
    <circle cx="748.11" cy="261.41" r="1" transform="translate(252.3 879.6) rotate(-70.53)" style="fill: #fff"/>
    <circle cx="949.34" cy="615.77" r="1" transform="translate(52.36 1305.58) rotate(-70.53)" style="fill: #fff"/>
    <circle cx="1297.5" cy="593.97" r="1" transform="translate(305.02 1619.31) rotate(-70.53)" style="fill: #fff"/>
    <circle cx="966.41" cy="506.23" r="1" transform="translate(167.02 1248.65) rotate(-70.53)" style="fill: #fff"/>
    <circle cx="636.94" cy="697.23" r="1" transform="translate(-232.72 1065.36) rotate(-70.53)" style="fill: #fff"/>
    <circle cx="591.82" cy="555.23" r="1" transform="translate(-128.92 928.14) rotate(-70.53)" style="fill: #fff"/>
    <circle cx="652.54" cy="346.09" r="1" transform="translate(108.75 845.96) rotate(-70.53)" style="fill: #fff"/>
    <circle cx="632.12" cy="440.49" r="1" transform="translate(6.13 889.64) rotate(-70.53)" style="fill: #fff"/>
    <circle cx="705.77" cy="483.76" r="1" transform="translate(14.44 987.93) rotate(-70.53)" style="fill: #fff"/>
    <circle cx="850.98" cy="746.92" r="1" transform="translate(-136.87 1300.29) rotate(-70.53)" style="fill: #fff"/>
    <circle cx="894.06" cy="939.09" r="1" transform="translate(-289.33 1469.02) rotate(-70.53)" style="fill: #fff"/>
    <circle cx="431.11" cy="1008.93" r="1" transform="translate(-663.83 1079.1) rotate(-70.53)" style="fill: #fff"/>
    <circle cx="515.56" cy="339.94" r="1" transform="translate(23.22 712.71) rotate(-70.53)" style="fill: #fff"/>
    <circle cx="347.14" cy="689.09" r="1" transform="translate(-418.26 786.7) rotate(-70.53)" style="fill: #fff"/>
    <circle cx="288.93" cy="620.3" r="1" transform="translate(-392.2 685.96) rotate(-70.53)" style="fill: #fff"/>
    <circle cx="598.04" cy="1040.95" r="1" transform="translate(-582.72 1257.84) rotate(-70.53)" style="fill: #fff"/>
    <circle cx="1058.04" cy="791.5" r="1" transform="translate(-40.86 1525.23) rotate(-70.53)" style="fill: #fff"/>
    <circle cx="1191" cy="582.67" r="1" transform="translate(244.68 1511.36) rotate(-70.53)" style="fill: #fff"/>
    <circle cx="1260.63" cy="411.92" r="1" transform="translate(452.09 1463.17) rotate(-70.53)" style="fill: #fff"/>
    <circle cx="1571.04" cy="481.18" r="1" transform="translate(593.73 1802.01) rotate(-70.53)" style="fill: #fff"/>
    <circle cx="1388.04" cy="924.42" r="1" transform="translate(53.83 1924.98) rotate(-70.53)" style="fill: #fff"/>
    <circle cx="1221.51" cy="969.6" r="1" transform="translate(-99.79 1798.08) rotate(-70.53)" style="fill: #fff"/>
    <circle cx="1605.3" cy="644.82" r="1" transform="translate(462.29 1943.39) rotate(-70.53)" style="fill: #fff"/>
    <circle cx="1371.66" cy="982.92" r="1" transform="translate(-12.24 1948.53) rotate(-70.53)" style="fill: #fff"/>
    <circle cx="1467.21" cy="850.43" r="1" transform="translate(176.38 1950.28) rotate(-70.53)" style="fill: #fff"/>
    <circle cx="1447.3" cy="686.06" r="1" transform="translate(318.07 1821.92) rotate(-70.53)" style="fill: #fff"/>
    <circle cx="1603.51" cy="613.94" r="1" transform="translate(490.21 1921.13) rotate(-70.53)" style="fill: #fff"/>
    <circle cx="1314.36" cy="449.71" r="1" transform="translate(452.28 1539.02) rotate(-70.53)" style="fill: #fff"/>
    <circle cx="1125.26" cy="378.98" r="1" transform="translate(392.89 1313.57) rotate(-70.53)" style="fill: #fff"/>
    <circle cx="890.93" cy="282.53" r="1" transform="translate(327.6 1028.34) rotate(-70.53)" style="fill: #fff"/>
    <circle cx="480.8" cy="290.22" r="1" transform="translate(46.93 646.79) rotate(-70.53)" style="fill: #fff"/>
    <circle cx="478.5" cy="482.18" r="1" transform="translate(-135.6 772.6) rotate(-70.53)" style="fill: #fff"/>
    <circle cx="770.25" cy="762.24" r="1" transform="translate(-205.13 1234.38) rotate(-70.53)" style="fill: #fff"/>
    <circle cx="604.78" cy="928.99" r="1" transform="translate(-472.66 1189.55) rotate(-70.53)" style="fill: #fff"/>
    <circle cx="473.45" cy="910.16" r="1" transform="translate(-542.47 1053.17) rotate(-70.53)" style="fill: #fff"/>
    <circle cx="360.01" cy="587.41" r="1" transform="translate(-313.8 731.04) rotate(-70.53)" style="fill: #fff"/>
    <circle cx="1665.38" cy="1014.75" r="1" transform="translate(153.57 2246.68) rotate(-70.53)" style="fill: #fff"/>
    <circle cx="1606.05" cy="702.64" r="1" transform="translate(408.28 1982.66) rotate(-70.53)" style="fill: #fff"/>
    <circle cx="1758.85" cy="687.7" r="1" transform="translate(524.24 2116.76) rotate(-70.53)" style="fill: #fff"/>
    <circle cx="1174.57" cy="523.2" r="1" transform="translate(289.79 1456.22) rotate(-70.53)" style="fill: #fff"/>
    <circle cx="1128.07" cy="862.57" r="1" transform="translate(-61.17 1638.63) rotate(-70.53)" style="fill: #fff"/>
    <circle cx="994.64" cy="1031.27" r="1" transform="translate(-309.18 1625.3) rotate(-70.53)" style="fill: #fff"/>
  </g>
</svg>
